<?xml version="1.0" encoding="UTF-8" standalone="no"?>
<!-- Created with Inkscape (http://www.inkscape.org/) -->

<svg
   version="1.1"
   id="svg1"
   width="785.51605"
   height="794.76697"
   viewBox="0 0 785.51606 794.76697"
   sodipodi:docname="lucasmahler_logo_black.png"
   xmlns:inkscape="http://www.inkscape.org/namespaces/inkscape"
   xmlns:sodipodi="http://sodipodi.sourceforge.net/DTD/sodipodi-0.dtd"
   xmlns="http://www.w3.org/2000/svg"
   xmlns:svg="http://www.w3.org/2000/svg">
  <defs
     id="defs1" />
  <sodipodi:namedview
     id="namedview1"
     pagecolor="#ffffff"
     bordercolor="#000000"
     borderopacity="0.25"
     inkscape:showpageshadow="2"
     inkscape:pageopacity="0.0"
     inkscape:pagecheckerboard="0"
     inkscape:deskcolor="#d1d1d1"
     showgrid="false"
     inkscape:export-bgcolor="#ffffff00">
    <inkscape:page
       x="0"
       y="0"
       width="785.51605"
       height="794.76697"
       id="page2"
       margin="0"
       bleed="0" />
  </sodipodi:namedview>
  <g
     inkscape:groupmode="layer"
     inkscape:label="Image"
     id="g1"
     style="display:inline;opacity:1"
     transform="translate(-1.0241156,-0.25602135)">
    <path
       style="fill:#030303;stroke:none"
       d="M 387.2788,0.91949193 C 346.73021,8.8971124 358.94571,72.343076 399.26586,63.596494 438.22187,55.14581 426.49173,-6.7953518 387.2788,0.91949193 M 127.27525,434.19357 l 65.33333,-13.33334 -83,-165.33333 -68.999998,-134.66667 197.333338,-1.32084 49.33333,4.43803 30.30268,4.51261 35.03066,-23.6298 C 319.1649,82.164121 270.37987,79.528297 231.27525,79.526914 H 81.941922 c -31.4579,0 -83.4021499,-3.602702 -80.8254599,42.666656 1.3187,23.67989 20.4377699,48.73523 31.0839699,69.33333 24.72835,47.84408 49.3164,95.8339 73.407898,144 7.56056,15.1158 15.01163,30.29211 22.71982,45.33333 3.9563,7.72006 10.07933,16.35433 10.16522,25.33321 0.0937,9.79517 -7.29906,19.36093 -11.21812,28.00013 M 253.94192,260.86023 h -2.66667 c -5.98598,-13.63631 -15.93847,-42.29789 -30.31166,-48.74861 -9.20573,-4.13155 -22.48381,-1.91805 -32.35501,-1.91805 10.0872,25.7386 24.62916,49.96362 37.00163,74.66666 31.9761,63.84392 65.89218,138.2653 141.66505,157.33334 -10.79029,-19.3794 -22.60726,-38.22754 -33.8782,-57.33334 -4.83638,-8.19832 -12.59448,-18.03312 -12.4151,-28 0.25755,-14.31022 13.87531,-31.54984 21.93205,-42.65405 39.56295,-54.52751 115.31629,-64.57149 176.36125,-45.75903 90.51237,27.89355 142.67326,111.42366 181.33334,192.41308 -17.58419,-0.002 -34.80473,-0.55114 -52,-4.64994 C 557.51936,434.49756 502.47253,364.27657 456.60859,287.5269 l -42.66667,6.66667 c 9.63823,14.97725 19.11093,30.05224 28.2614,45.33333 4.33191,7.23417 10.26619,15.25126 10.53003,24 0.67208,22.28642 -22.10132,49.59766 -35.72225,65.32878 -51.27739,59.22147 -125.63339,79.05273 -200.40251,86.67122 5.16198,10.06771 11.3247,26.74931 21.4175,32.7548 6.42566,3.82345 15.5887,1.86992 22.58335,1.04138 19.00214,-2.25085 37.70451,-5.78365 55.99915,-11.43668 68.99207,-21.31848 139.21623,-67.41402 166.66667,-137.02617 h 2.66667 c 39.51725,57.14738 114.55892,93.48682 182.66667,99.80502 24.21663,2.24658 64.50447,8.12028 74.93831,-21.16944 5.01368,-14.07438 -1.31714,-27.69747 -7.95247,-39.96891 -10.93115,-20.21602 -22.56576,-40.10144 -34.06315,-60 -15.08749,-26.11202 -30.33427,-52.30115 -50.78073,-74.66593 -61.60958,-67.3899 -142.57865,-92.40011 -231.4753,-84.00074 v -1.33333 c 16.9213,-7.67916 32.40442,-18.3903 50.66667,-22.87423 40.23291,-9.87833 78.71452,9.04997 114.66667,24.20756 L 560.60859,186.19357 H 672.6086 l -24.3759,44 -7.43473,21.33333 15.72217,21.33333 33.42179,38.66667 c 28.16512,-45.93481 51.51807,-95.11125 76.80339,-142.66667 9.92594,-18.66821 25.81738,-40.58939 17.43652,-62.63265 -5.67383,-14.923241 -20.00667,-24.50397 -35.57332,-26.201154 -38.2666,-4.172119 -78.8383,-0.499512 -117.33326,-0.499512 -50.18103,0 -102.41724,-4.139893 -152,4.902669 C 383.18191,101.95439 290.70681,168.32878 253.94192,260.86023 m 492.00001,-140 c -3.87899,7.31592 -7.48909,17.56682 -14.70093,22.26433 -14.11214,9.19201 -46.23885,3.06901 -62.6324,3.06901 -56.35507,0 -116.31104,-5.77466 -172.00001,3.41674 -63.2574,10.4406 -118.69116,45.28895 -157.08458,96.58464 -17.91986,23.94189 -29.52526,51.80554 -46.91542,75.99862 -4.57394,-8.37952 -11.3738,-18.0625 -11.04472,-28.00013 0.38776,-11.70963 9.59062,-23.54854 15.26062,-33.33321 16.22736,-28.00341 36.37415,-54.81864 61.12191,-75.84782 41.06006,-34.89038 89.87826,-57.22627 143.63151,-63.17207 31.17147,-3.44796 63.69271,-0.98011 95.03069,-0.98011 H 745.94193 M 81.941922,146.19357 c 27.754758,53.73392 55.752698,107.33268 82.987928,161.33333 16.80148,33.31311 31.65743,68.56527 51.84662,100 12.46385,19.40629 27.23405,38.15938 45.17804,52.77185 7.24099,5.89661 15.62944,13.16549 25.32074,14.06628 15.37462,1.42904 32.87684,-7.71647 46.66667,-13.5048 v -1.33333 c -67.47146,-33.10335 -98.32965,-97.39299 -130.33447,-161.33333 -18.67442,-37.30839 -38.83042,-74.14348 -56.3322,-112 h 80 c 11.45512,0 26.39421,2.39148 37.05882,-2.53898 12.10677,-5.59721 21.68307,-20.46546 29.60785,-30.79436 -33.01662,-8.29996 -66.21495,-6.66666 -100,-6.66666 -37.27275,0 -74.75201,-1.1637 -111.999998,0 M 488.60859,288.86023 c 12.47355,22.83736 28.81413,46.38957 46.66667,65.33334 4.88041,-10.79191 15.37598,-31.9705 9.28996,-43.78207 -7.38131,-14.32544 -41.73063,-18.59257 -55.95663,-21.55127 m 85.33334,38.66667 c -3.50086,12.59334 -17.22709,35.44389 -14.8385,47.80306 1.86332,9.64136 14.0354,16.68823 21.50598,21.71574 22.11409,14.88228 46.06348,25.6982 71.99919,31.81453 C 634.27209,390.884 608.10367,352.79281 573.94193,327.5269 m -486.666678,40 c -13.59262,23.30135 -26.79367,46.92102 -39.59643,70.66667 -6.23873,11.57116 -14.06107,25.00952 -10.51901,38.63049 6.70987,25.80277 35.50162,25.36772 56.78211,25.36943 53.280388,0.004 103.579238,-9.28833 155.999998,-17.33326 L 211.27525,443.5269 c -43.40017,12.78743 -81.43853,17.33333 -126.666658,17.33333 7.66944,-14.30696 25.266618,-35.18803 24.303318,-52 -0.80985,-14.13366 -13.056188,-28.75622 -18.969988,-41.33333 h -2.66667 m 401.333338,78.66667 c -35.22086,60.13077 -103.85539,100.05859 -169.33334,118.66666 18.00235,35.52938 37.69373,70.43482 56.89796,105.33334 8.1077,14.73356 27.36942,38.63859 26.20922,55.99886 -0.5618,8.40608 -6.288,16.52677 -9.77384,24.00114 h -2.66667 c -17.77795,-43.04672 -44.62089,-84.50822 -67.10337,-125.33334 -7.39986,-13.43713 -15.50635,-39.26989 -29.00324,-47.4648 -10.02291,-6.08561 -28.83396,-0.21407 -39.89339,0.79814 23.78731,57.79581 58.65564,113.09733 88.47966,168 11.19401,20.60693 21.12699,48.33895 48.85368,48.82332 34.11283,0.59595 48.72176,-42.43481 62.12166,-67.48999 40.23723,-75.23576 84.73251,-149.19633 120.54501,-226.66667 L 543.27526,487.5269 c -14.38005,22.42586 -30.42326,42.89893 -50.66683,60.40389 -13.06946,11.30135 -29.71468,19.66418 -41.37333,32.40137 -16.48059,18.00521 -29.07272,47.50923 -38.62651,69.86141 h -2.66667 l -34.66666,-64 c 59.99829,-22.51949 109.32837,-60.34025 145.33333,-113.33334 z"
       id="path1" />
  </g>
</svg>
