<?xml version="1.0" encoding="UTF-8" standalone="no"?>
<!-- Created with Inkscape (http://www.inkscape.org/) -->

<svg
   version="1.1"
   id="svg1"
   width="2442.5818"
   height="2440.5293"
   viewBox="0 0 2442.5818 2440.5293"
   xmlns="http://www.w3.org/2000/svg"
   xmlns:svg="http://www.w3.org/2000/svg">
  <defs
     id="defs1" />
  <g
     id="g1"
     transform="translate(-309.85064,-528.59446)">
    <path
       style="fill:#040404;stroke:none"
       d="m 1954.0782,862.67771 h -221.44 -36.48 c -16.8281,0 -32.8042,-0.0461 -44.0027,14.73203 -10.5182,13.88062 -7.1973,34.21515 -7.1973,50.54797 v 115.83999 c -14.3216,-6.1342 -29.4687,-9.5088 -44.8,-11.9916 -8.1816,-1.325 -17.9527,-0.9539 -25.6,-4.2804 -17.1358,-7.4543 -24.6306,-26.4511 -24.96,-43.888 4.5767,-0.17687 9.1009,-0.64453 13.44,-2.20672 16.4056,-5.90656 23.013,-22.66328 24.5666,-38.75328 0.5204,-5.39093 -0.5103,-11.24406 0.5406,-16.52406 1.3944,-7.00515 11.9286,-8.84828 9.4311,-17.3925 -2.028,-6.93797 -10.2463,-11.82672 -14.6364,-17.28703 -5.4172,-6.7375 -7.2449,-14.30203 -9.6619,-22.3964 25.513,-7.81703 42.9898,-45.14141 31.917,-69.76 -5.6747,-12.61688 -17.7432,-20.22531 -30.637,-23.95875 -12.2242,-3.53938 -25.6297,-4.98875 -37.76,-0.3625 -11.652,4.44406 -21.3041,13.05969 -32.64,18.26469 -15.228,6.99187 -31.5231,10.12468 -48,12.45656 1.4722,-6.37797 7.8914,-20.32313 3.8655,-26.22313 -6.3303,-9.27687 -27.4872,-8.19062 -28.688,-21.19218 -1.2055,-13.05125 5.4103,-16.23563 15.8625,-21.93719 6.0741,-3.31344 14.4892,-6.15687 12.8416,-14.50187 -1.3072,-6.62063 -3.9235,-24.86907 -10.6488,-27.86407 -12.2312,-5.44656 -27.9037,7.3125 -36.5775,-6.71968 -6.4744,-10.47406 -0.4937,-16.8175 5.2077,-26.20188 3.2637,-5.37218 7.5511,-10.69812 3.092,-16.63968 -4.1573,-5.53969 -16.1519,-20.05375 -23.835,-19.21625 -10.3247,1.12562 -17.5861,15.09843 -28.16,14.76156 -2.972,-0.0947 -5.7822,-1.85906 -8.2961,-3.28 -9.9653,-5.63344 -7.1156,-16.14906 -7.0556,-26.18563 0.029,-4.91531 1.1719,-10.995 -4.0788,-13.61531 -6.7959,-3.39125 -16.0256,-4.72437 -23.4465,-6.2425 -3.1086,-0.63593 -6.2735,-0.88468 -8.7864,1.40407 -9.5769,8.72156 -7.8903,27.89843 -23.8578,28.03499 -12.0394,0.10282 -14.6911,-9.1325 -19.7908,-18.54062 -2.273,-4.19313 -4.7389,-10.74937 -10.3969,-10.71844 -7.663,0.0419 -16.9325,4.00531 -24.1822,6.37219 -2.8608,0.93406 -5.8798,2.15437 -6.8792,5.26625 -4.0322,12.55531 7.3864,27.855 -6.6138,36.16812 -14.7842,8.77844 -22.125,-7.76781 -35.8123,-10.5825 -3.5209,-0.72406 -6.2655,1.44032 -8.6656,3.73938 -5.3702,5.14375 -12.9195,11.16469 -16.4602,17.75437 -2.977,5.54094 2.4281,11.5575 5.3174,16 6.4926,9.9825 11.1795,15.05781 4.6416,26.17594 -5.103,8.67781 -17.6129,6.08281 -26.4366,5.71656 -4.5404,-0.18844 -9.9203,-1.13781 -12.457,3.6175 -3.5596,6.67281 -4.6561,16.01719 -6.3146,23.36688 -0.6591,2.92125 -1.3618,6.21906 0.6431,8.78625 6.4042,8.20031 22.3053,7.515 27.193,17.15718 1.6836,3.32125 1.4062,8.14719 1.1887,11.77282 -0.5421,9.03593 -14.3761,13.07281 -21.1219,16.87531 -3.534,1.99218 -7.7277,4.25843 -7.756,8.85093 -0.047,7.61719 3.9397,17.02563 6.3347,24.21141 0.97,2.91062 2.2879,5.85891 5.4761,6.78844 11.9714,3.49015 27.5971,-6.91953 35.5846,6.07937 1.6272,2.64813 3.7029,5.70203 3.761,8.92141 0.1926,10.66156 -14.0753,18.18172 -14.0679,28.8 0,6.41422 8.6869,12.3325 12.896,16.25109 2.9008,2.70063 5.8894,6.27469 9.6,7.86609 5.2906,2.26907 11.208,-3.17984 15.36,-5.85546 10.0917,-6.50313 15.6006,-11.07141 26.7427,-3.93329 11.0936,7.10719 1.5692,24.22641 5.3246,34.66844 1.1935,3.31859 4.5158,4.42156 7.6269,5.29141 7.1527,1.99968 15.528,5.1314 22.9703,5.37312 7.2243,0.23469 10.0686,-9.60797 12.6955,-14.8614 5.3686,-10.73672 8.0188,-15.17203 20.6036,-14.88063 12.1662,0.28172 13.7767,20.64844 21.4961,27.4275 2.6734,2.34766 6.1305,1.57703 9.2633,0.76781 7.2308,-1.86781 15.4047,-3.46234 22.1975,-6.58718 6.5147,-2.99688 4.3706,-11.19219 4.1137,-16.9675 -0.5237,-11.77641 -2.074,-18.91797 9.5283,-25.07891 12.8461,-6.82125 21.7717,11.87469 33.9175,12.24906 5.5886,0.17219 10.528,-6.66422 14.08,-10.21015 4.4791,9.80078 8.8798,19.28265 10.2869,30.08 1.7662,13.55359 -4.7728,36.97484 12.7589,42.50203 3.3023,1.04109 6.8094,0.9925 10.2342,1.01796 1.7464,19.81422 8.1567,39.41032 31.36,39.68 -0.022,16.4472 -3.818,31.4662 -18.5662,40.9372 -13.2511,8.5094 -32.8411,8.4908 -47.9938,11.9025 -28.6216,6.4444 -57.3187,14.9945 -83.84,27.694 -60.2591,28.8546 -95.2919,94.3917 -117.7175,154.3463 -10.1352,27.0962 -18.2884,54.9625 -24.5752,83.2 -1.5139,6.8 -2.9501,13.6143 -4.142,20.479 -0.4569,2.6317 -1.47,6.3546 0.1935,8.7616 2.9751,4.3051 13.9595,0.6487 18.2412,0.1994 -4.1305,48.0436 3.7178,99.4064 33.2363,138.88 8.422,11.2623 18.2575,21.1706 29.4837,29.6428 4.992,3.7675 15.2683,7.852 17.3847,14.0933 1.5755,4.6459 0.5714,10.9309 0.5208,15.7839 -0.1291,12.3711 -1.0674,24.7495 -1.2436,37.12 -0.6255,43.9164 -1.8269,87.9625 -3.7524,131.84 -1.0007,22.8042 -1.0993,45.6667 -1.9459,68.48 -0.1816,4.8943 -2.6,19.6526 1.5637,22.9854 4.0821,3.2674 15.1111,-3.0925 19.4727,-4.4255 -1.7662,30.7175 -3.3408,61.4555 -5.3298,92.16 -0.5111,7.8893 -0.8138,15.7932 -1.3689,23.6797 -0.2149,3.0524 0.1589,7.4207 -1.8575,9.9597 -2.186,2.7524 -6.904,2.188 -10.0047,2.1981 -8.3196,0.027 -16.6396,0 -24.9591,0 h -67.84 c -10.7689,0 -23.7436,-1.9384 -33.9198,2.1869 -11.7706,4.7717 -15.0979,15.5866 -18.7736,26.6131 -3.9898,11.9693 -8.1702,23.8708 -12.16,35.84 -2.204,6.6122 -3.8066,14.3843 -7.631,20.2777 -6.3824,9.8355 -21.6827,16.5487 -31.8356,21.7552 -35.3694,18.1373 -71.1118,17.3984 -107.51996,2.1817 -9.6822,-4.0467 -21.7593,-8.7264 -29.632,-15.818 -2.8326,-2.5516 -2.3304,-5.3503 -1.0132,-8.5961 2.9229,-7.2022 5.6413,-15.4717 9.6133,-22.1415 3.2524,-5.4613 10.6528,-6.9168 15.9119,-9.8371 8.9312,-4.9595 17.3961,-11.3675 22.4125,-20.4619 4.7178,-8.5531 6.347,-18.5045 5.3318,-28.16 -0.5881,-5.5932 -4.3301,-13.6228 -1.624,-18.902 5.6147,-10.9534 12.74966,-18.3469 15.29356,-31.018 0.5681,-2.8292 2.5626,-9.7668 -0.7987,-11.6135 -2.917,-1.6027 -6.6896,2.2373 -8.61706,3.9357 -7.2065,6.3507 -14.0847,13.0921 -21.1181,19.6328 -12.2839,11.4238 -26.691,22.354 -37.2437,35.4144 -4.9148,6.0827 -8.1443,13.4728 -12.7293,19.8306 -8.4299,11.6893 -18.7608,22.3844 -30.027,31.36 -5.181,-9.1085 -10.803,-17.7206 -14.6809,-27.52 -6.3382,-16.0164 -9.0207,-33.4806 -14.1799,-49.92 -12.83217,-40.8887 -35.2881,-87.2664 -74.8192,-107.9037 -17.87679,-9.3327 -37.23476,-13.1914 -56.96,-16.2562 l 10.24,-17.92 c 4.06016,3.3959 7.96336,7.2829 12.80008,9.5678 20.14836,9.5179 32.58031,-13.5777 41.59617,-27.2743 2.38555,-3.624 7.67571,-4.5443 9.44696,-8.3534 1.74242,-3.747 0.34203,-9.0048 0.21937,-12.9801 -0.26469,-8.5788 -0.82641,-18.4754 1.12211,-26.88 2.41227,-10.4047 10.63086,-19.5505 13.75438,-30.08 8.78531,-29.616 -2.96243,-58.2494 -26.45907,-77.3122 -19.82,-16.0799 -47.92703,-26.196 -73.6,-23.1419 -17.66476,2.1014 -31.60828,12.1603 -49.92,6.853 -20.86297,-6.0469 -32.24828,-22.7399 -48.02312,-35.9947 -29.26297,-24.5883 -69.84782,-44.0175 -108.13688,-29.7214 -14.53449,5.4267 -27.37597,15.364 -35.3493,28.7572 -6.24492,10.4898 -8.70031,22.659 -14.63757,33.28 -5.70551,10.2064 -14.48664,17.632 -24.89313,22.7673 -21.21851,10.4706 -42.68043,3.7498 -65.28,4.8684 -20.90855,1.035 -39.3398,11.0132 -52.2616,27.4043 -16.72281,21.2125 -28.64777,56.7279 -7.55441,79.2059 6.26738,6.6787 14.59339,9.5061 22.0548,14.4286 7.60047,5.0142 13.69231,11.8808 18.38172,19.6455 16.25621,26.9167 21.98363,62.2151 53.93949,76.3979 6.12281,2.7175 12.59231,4.0211 19.2,4.882 -9.76066,8.3065 -19.02183,17.064 -26.5207,27.52 -27.95992,38.9863 -24.0393,84.4691 -24.0393,129.92 v 145.28 c 0,51.3868 0.007,100.9318 16.03238,150.4 8.22219,25.3803 19.93657,49.8985 34.37743,72.32 4.95285,7.69 10.22156,15.1739 15.83043,22.4 3.32925,4.2893 7.67234,8.6047 8.85546,14.08 1.87497,8.6769 0.895,18.0707 1.10946,26.88 0.40992,16.8391 0.69414,33.7274 1.31844,50.56 2.11793,57.1038 3.81664,114.3777 4.41101,171.52 0.50813,48.8531 3.71969,97.6997 3.82754,146.56 0.0316,14.2906 1.16289,28.5913 1.26836,42.88 0.0445,6.0353 -1.53289,15.0916 1.48656,20.5703 1.41656,2.5703 4.27778,2.6141 6.86664,2.2603 6.19422,-0.8465 15.96758,-1.7978 21.20574,-5.355 5.98157,-4.0621 3.97293,-19.3987 4.26227,-25.7956 1.13813,-25.1615 2.60672,-50.344 3.3475,-75.52 1.87715,-63.7972 5.92848,-127.5993 8.8125,-191.36 l 3.2,-69.76 c 0.59375,-13.1259 0.24102,-26.659 2.02828,-39.68 19.58774,12.0158 39.23008,23.2425 60.8,31.3864 6.75813,2.5516 13.56141,4.8972 20.47867,6.9783 3.19555,0.9613 7.36047,1.7244 9.45321,4.5938 4.16437,5.7097 2.95656,18.0425 3.58031,24.8815 l 5.58562,60.8 c 6.8179,75.3147 13.83344,150.611 20.7129,225.92 l 9.48312,103.04 2.38648,26.24 c 0.31438,3.4531 0.0452,8.4878 2.53391,11.23 2.2082,2.4325 6.05516,1.8963 8.98797,1.7144 6.31289,-0.3909 26.0475,1.3378 28.26516,-6.1781 2.16109,-7.3241 -0.0575,-16.5153 -0.10204,-24.0463 -0.12484,-21.1253 -1.76851,-42.2337 -1.93445,-63.36 -0.56101,-71.4369 -4.79023,-142.9922 -6.96867,-214.4 -1.00875,-33.0654 -1.70297,-66.1506 -3.15266,-99.2 -0.5582,-12.7253 0.22258,-25.7553 -1.38953,-38.4 h 216.96 c -8.3286,81.0007 -12.16,163.73 -12.16,245.12 l 17.28,0.64 c -1.629,5.461 -2.1841,14.71 -6.6512,18.6375 -3.3236,2.9219 -9.1276,3.5525 -13.1888,5.1213 -12.5448,4.845 -25.93976,11.4812 -29.69812,25.5212 -3.70531,13.8416 -2.05789,30.65 -1.08586,44.8 2.76742,40.285 13.47538,80.8381 32.67038,116.48 8.928,16.5775 26.147,49.8178 49.9359,35.9416 17.4197,-10.161 19.3692,-41.0653 22.4546,-58.9816 6.3282,-36.7469 9.9244,-75.3365 9.5142,-112.64 -0.058,-5.2487 -0.7934,-10.5344 -2.9515,-15.36 -1.7,-3.8012 -4.858,-7.2819 -5.3668,-11.52 -1.1493,-9.574 4.3259,-21.2134 5.8072,-30.72 h 1.28 c 3.2246,40.1181 11.6487,80.5363 17.7714,120.32 1.6734,10.8731 3.3011,21.7556 4.9017,32.64 0.6939,4.7188 0.61,11.3869 3.3071,15.4672 3.0555,4.6225 11.53956,3.0928 16.25976,3.0928 h 44.8 c 4.4728,0 14.6783,1.8072 17.1606,-3.1275 3.1855,-6.3325 -0.6975,-19.449 -1.3844,-26.3125 l -6.5924,-65.92 c -5.5086,-55.0437 -11.1314,-110.0762 -16.64,-165.12 -2.6991,-26.9703 -7.7637,-54.8228 -8.022,-81.92 -0.082,-8.6367 4.6257,-17.552 7.3616,-25.6 5.6589,-16.6459 11.2331,-33.3281 17.0473,-49.92 9.1788,-26.1934 17.3263,-52.8322 25.4803,-79.36 8.2946,-26.9853 16.703,-54.53 20.6008,-82.56 1.522,-10.9443 2.6703,-23.1948 -0.6305,-33.92 -7.4744,-24.2865 -34.9036,-41.6061 -57.5813,-49.92 v -0.64 c 26.4142,0 55.1489,23.455 63.1858,48.64 3.1826,9.9732 2.6493,21.0794 1.578,31.36 -4.3865,42.0985 -19.6852,83.3928 -32.3833,123.52 -3.7896,11.9752 -7.8515,23.865 -11.641,35.84 -1.6691,5.2747 -4.8123,11.6513 -4.1342,17.28 0.7887,6.5466 5.241,13.2663 7.9456,19.2 5.6269,12.346 11.1907,24.7178 16.6926,37.12 12.9891,29.2794 25.5621,58.751 37.8762,88.32 5.714,13.7206 14.6891,28.8803 17.3979,43.52 2.3276,12.5794 0.027,28.1985 -0.6923,40.96 -2.6303,46.6644 -2.1403,93.4953 -4.7706,140.16 -0.6361,11.2856 -0.3932,22.6297 -0.9541,33.92 -0.1841,3.7069 -1.554,9.7938 2.166,12.2531 6.0004,3.9672 20.3789,2.5654 27.3994,2.4138 2.8343,-0.061 6.0298,-0.3156 7.594,-3.0397 3.5941,-6.2584 2.5719,-17.3575 3.2695,-24.4272 1.8919,-19.1725 3.1903,-38.5103 5.7905,-57.6 h 0.64 c 5.3463,13.4585 14.0075,26.0538 22.4259,37.76 19.1563,26.6378 42.491,50.6419 69.7341,69.0694 15.5148,10.4944 44.2286,25.2612 53.5755,-1.2297 5.1742,-14.6653 -1.4146,-33.5394 -5.0178,-47.9997 -9.788,-39.2797 -23.5,-79.4912 -41.4311,-115.84 -5.2966,-10.7369 -17.9816,-15.3294 -20.6943,-26.8853 -2.3709,-10.1003 -6.1162,-21.4884 -6.5028,-31.8641 -0.1587,-4.2603 2.8891,-7.2515 2.221,-11.7 -4.2796,-28.4978 -13.0327,-57.0753 -19.843,-85.0706 -5.0383,-20.7108 -9.9286,-41.4856 -15.4275,-62.08 -3.1781,-11.9028 -8.5109,-25.4118 -8.8466,-37.76 -0.2815,-10.3597 1.7352,-21.0578 2.7272,-31.36 0.3632,-3.7709 -0.055,-9.4256 2.4408,-12.5437 2.2372,-2.795 6.9641,-2.7947 10.0749,-4.0806 5.435,-2.2471 9.8429,-6.664 11.9298,-12.1797 2.7022,-7.1424 1.7002,-16.2107 1.1064,-23.676 -1.3484,-16.9554 -4.4948,-33.705 -9.6611,-49.92 -10.7387,-33.7059 -29.9208,-63.6478 -55.2116,-88.2726 -8.0827,-7.8699 -16.9264,-14.9758 -26.2398,-21.3364 -5.2711,-3.5999 -12.1097,-6.533 -16.3957,-11.3253 -4.9617,-5.5482 -7.4466,-14.4166 -10.4843,-21.1457 h 140.16 c 0,99.8275 10.5275,197.6644 25.6,296.32 l 22.4,-1.28 c 1.0789,8.4607 4.3828,20.3225 2.2345,28.66 -1.3407,5.2039 -6.1034,9.7347 -8.9229,14.2203 -5.3583,8.5247 -9.8186,17.6125 -13.7341,26.8797 -10.6369,25.1757 -18.1589,51.6053 -24.7775,78.08 -2.8931,11.5728 -8.9583,25.7319 -7.3655,37.76 2.1511,16.2435 15.5636,22.5941 30.1655,24.3506 25.0661,3.0147 50.3755,3.2894 75.52,1.1682 10.9453,-0.9235 23.8003,-1.025 32.3658,-8.846 10.968,-10.0147 8.7911,-23.4109 6.62,-36.5128 -4.2391,-25.5806 -8.1769,-51.2115 -12.3692,-76.8 -2.515,-15.3506 -4.9211,-30.72 -7.378,-46.08 -0.8764,-5.4793 -0.6817,-13.409 -6.4386,-16 l 0.01,-20.4765 1.8037,-8.3847 8.428,-1.8588 c 0.015,-71.3173 4.1294,-143.1734 7.8188,-214.4 1.3223,-25.5287 4.0118,-51.2498 4.3412,-76.8 h 130.56 l 16,290.56 14.72,0.64 1.92,30.08 c -9.0903,1.9928 -8.2977,19.4013 -9.238,26.88 -2.2778,18.1169 -3.2856,36.2035 -4.4998,54.4 -0.7333,10.9885 -1.5613,22.926 5.983,31.9006 6.1487,7.3144 14.9087,9.03 23.7548,11.0771 11.9419,2.7636 23.8848,5.5242 35.84,8.2297 20.0323,4.5334 40.0736,9.0286 60.16,13.3173 37.7809,8.0666 78.7867,15.0397 113.2795,-7.9678 3.3643,-2.2441 6.5621,-4.8709 9.1713,-7.9741 11.7331,-13.9536 -3.013,-31.674 -12.6227,-42.1822 -17.1937,-18.8009 -38.3768,-31.6374 -58.6281,-46.6184 -14.5948,-10.7964 -27.853,-23.3459 -40.96,-35.868 -12.8525,-12.2789 -29.3014,-33.4789 -48.64,-23.7542 0,-5.4345 -1.3073,-14.4297 2.4406,-18.8972 3.4927,-4.1631 9.8278,-4.1221 12.2642,-9.5481 5.0847,-11.3237 5.7675,-26.5794 8.038,-38.7547 9.4642,-50.7515 17.7731,-101.7279 24.1772,-152.96 3.4161,-27.3281 7.1697,-55.0139 8.12,-82.56 h 179.2 c 0,20.1557 1.3348,39.7274 5.3895,59.52 2.5844,12.6157 7.9943,25.6327 9.2005,38.4 1.437,15.2094 -5.8103,30.6649 -2.3737,46.08 2.6229,11.7657 13.2125,16.8166 24.2637,17.28 1.1298,32.3738 6.0225,65.046 9.2478,97.28 1.3353,13.3453 5.1078,28.9007 3.5466,42.24 -0.8675,7.4116 -5.3347,14.9492 -8.2169,21.76 l -17.28,40.96 c -6.0436,14.2813 -12.0542,28.5774 -18.0469,42.88 -2.9359,7.0074 -6.9947,13.4763 0.6694,18.56 l -39.68,55.68 h -0.64 c -8.2152,-7.4744 -28.4181,1.4888 -37.76,4.3481 -36.5345,11.1822 -70.7647,29.2588 -101.76,51.4729 -9.6925,6.9465 -34.5456,20.0059 -27.9233,35.0206 4.1711,9.4569 14.8714,8.3584 23.4433,8.3584 h 64 84.48 c 13.7698,0 28.4847,1.811 39.5497,-8.13 7.7423,-6.9562 10.2237,-16.5022 11.6203,-26.43 2.2584,-16.0559 2.5194,-32.5334 0.67,-48.64 l -8.32,1.28 28.16,-28.16 c 7.4127,-7.4125 12.0994,-13.7851 23.04,-13.44 1.0553,30.2385 5.5967,60.7703 8.6081,90.88 1.7297,17.2947 1.1649,36.8022 5.5167,53.6225 2.2941,8.8672 21.2186,4.8813 28.1127,4.396 3.1566,-0.2222 7.7052,-0.2122 9.3219,-3.5091 1.8898,-3.8534 0.7454,-9.4413 0.4939,-13.5494 -0.5445,-8.8919 -0.808,-17.9715 -0.8508,-26.88 -0.1598,-33.2853 -2.8537,-66.5544 -3.2167,-99.84 -0.1255,-11.5103 -4.0277,-27.3253 -0.5577,-38.3537 1.8405,-5.8492 8.3832,-10.0441 12.7319,-13.9753 9.3111,-8.4172 17.9838,-17.605 27.52,-25.751 5.7334,10.5288 12.4058,20.6266 18.8691,30.7194 2.1173,3.3062 5.0303,9.4694 9.4645,9.9708 5.2244,0.5908 11.1302,-6.0805 14.5464,-9.3302 h 0.64 c 4.9649,7.1656 10.2145,14.1435 15.4403,21.12 2.6827,3.5814 6.5005,7.4888 7.6897,11.9053 1.6878,6.2678 -2.5764,15.3597 -4.2967,21.3747 -5.2319,18.2925 -10.5752,38.0394 -20.5758,54.3956 -7.1828,11.7472 -20.9084,17.2994 -29.4317,28.1647 -4.1167,5.2482 -7.9324,11.7819 -4.8789,18.4897 3.1055,6.8222 10.0609,8.2778 16.8531,8.3722 10.9044,0.1519 21.7506,-0.6044 32.64,-0.6209 24.6295,-0.037 47.5247,-8.2175 64.3453,-26.8916 11.188,-12.4206 19.2091,-28.1466 28.1125,-42.2297 8.2253,-13.0106 19.7997,-26.8165 24.4664,-41.6 6.3103,-19.9897 -5.557,-37.2498 -22.8442,-46.2086 -6.0473,-3.1339 -21.3576,-7.3664 -23.0073,-14.7758 -1.1268,-5.0603 -0.037,-11.2703 -0.032,-16.4556 0.012,-13.8631 0.8968,-27.7431 1.2343,-41.6 1.0329,-42.4186 3.0243,-84.9356 3.2392,-127.36 0.034,-6.7518 -0.5664,-13.894 1.2197,-20.48 2.124,-7.832 7.1715,-15.1734 10.7862,-22.4 2.335,-4.6684 4.5838,-12.1978 9.1366,-15.1665 3.4881,-2.2747 8.8273,-1.4728 12.7834,-1.4735 h 27.52 105.6 c -1.2634,27.5224 -5.352,55.1453 -8.0962,82.56 -1.21,12.0885 0.053,28.7866 -4.6277,40.0221 -2.345,5.6295 -10.3862,8.7548 -14.7219,12.7629 -7.7662,7.18 -13.24,16.4463 -16.1564,26.575 -6.1653,21.4113 -9.2333,44.1035 -13.7575,65.92 -8.6681,41.7991 -17.4419,83.5856 -25.8397,125.44 -5.7842,28.8288 -11.8886,57.5941 -17.7843,86.4 -3.0018,14.6663 -8.5546,30.6113 -3.7882,45.44 9.033,28.1022 35.4274,28.8 59.9719,28.8 h 50.56 305.92 66.56 c 15.275,0 29.8788,-0.2 40.1266,-13.4694 8.455,-10.9481 7.1572,-23.5409 6.085,-36.4506 -1.4172,-17.064 -2.8191,-34.1303 -4.1666,-51.2 -5.3059,-67.2137 -10.9694,-134.4017 -16.4709,-201.6 l -4.4803,-55.04 c -0.7,-8.5092 0.031,-19.3147 -4.6075,-26.8109 -5.345,-8.6375 -14.4313,-9.0259 -23.5263,-9.0289 l -32,-2e-4 c 0.01,-47.989 2.9003,-96.0217 3.8081,-144 0.3188,-16.8539 1.05,-33.7103 1.29,-50.56 0.1407,-9.8784 -0.9587,-21.0292 1.126,-30.72 1.2762,-5.9331 6.3647,-10.7015 9.9434,-15.36 6.1531,-8.0097 11.8694,-16.3762 17.1894,-24.96 15.9731,-25.7718 28.59,-53.8692 36.4394,-83.2 12.1243,-45.305 11.4837,-90.4723 11.4837,-136.96 v -147.84 c 0,-46.7681 3.1981,-92.3085 -27.7387,-131.1999 -17.8966,-22.4983 -43.2572,-38.3755 -71.4613,-44.136 -11.0753,-2.262 -23.9734,-0.1711 -34.56,-3.4567 -11.8781,-3.6866 -22.6619,-12.6105 -34.56,-17.0708 -21.6634,-8.1212 -43.1481,-9.9909 -65.92,-11.4965 5.545,-13.7669 -17.16,-9.115 -22.8409,-16.5719 -3.6075,-4.735 -4.6835,-12.3639 -6.3324,-17.9881 -3.7987,-12.9568 -7.2431,-25.9407 -10.5067,-39.04 11.6225,-5.3882 20.8784,-14.8075 29.2369,-24.3207 17.6353,-20.0715 34.4584,-48.0912 19.05,-74.2393 -2.8541,-4.8435 -6.5122,-9.2341 -10.6216,-13.0607 -9.2731,-8.6345 -21.1872,-16.015 -33.8253,-18.1681 -7.9956,-1.3622 -17.3348,0.3444 -24.9562,-2.618 -10.3749,-4.0325 -13.9408,-15.2612 -26.2438,-16.3865 -28.8306,-2.6372 -34.6855,44.3181 -13.44,57.2733 -3.3003,6.435 -6.9983,12.9256 -11.5742,18.5454 -3.0878,3.7922 -7.6459,7.0755 -9.6899,11.5967 -2.2617,5.0032 1.0121,10.1604 0.8869,15.2979 -0.339,13.9142 -5.5628,27.805 -0.2158,41.5946 2.1305,5.4943 6.6132,9.5218 12.2741,11.1183 3.315,0.9349 8.3353,0.4217 10.7477,3.2869 2.69,3.195 2.1017,9.2097 2.3954,13.1202 0.8319,11.0714 1.8344,22.1832 2.2158,33.28 -11.065,1.5659 -25.4822,0.4396 -22.4,15.36 -31.2405,0 -66.2891,-1.9893 -94.08,14.5637 -11.6141,6.9177 -20.3542,18.2528 -27.3414,29.5963 -14.1002,22.8909 -22.6739,49.1373 -29.8836,74.8799 -5.5373,19.7715 -9.972,39.9252 -13.4337,60.16 -1.1099,6.4875 -4.8874,16.9816 -2.5413,23.3458 1.9039,5.1647 9.6777,7.9491 14.32,9.9342 -10.7525,51.8119 -31.1412,103.8882 -61.7791,147.2 -12.3157,17.4107 -26.8728,35.6682 -44.4609,48 -3.9441,-16.0317 -10.4048,-31.7495 -15.7662,-47.36 -9.5096,-27.6889 -18.9225,-55.4262 -28.1805,-83.2 -5.0006,-15.0017 -8.4767,-38.9662 -23.2578,-47.3531 -12.1763,-6.9089 -30.0241,-3.8469 -43.5155,-3.8469 h -94.72 -73.6 c -9.6408,0 -21.8737,-1.9929 -28.6116,6.5982 -5.6181,7.1634 -2.6798,15.219 0.076,22.8418 4.8831,13.5063 9.1098,27.3138 13.595,40.96 15.068,45.8444 29.7658,91.8171 45.0203,137.6 4.1869,12.5658 8.3258,25.1422 12.3525,37.76 2.677,8.3885 3.8891,15.8741 9.4075,23.04 h -213.76 l -3.1906,-101.76 1.2706,-261.76 c 5.1747,-0.3045 14.2845,0.3866 18.2325,-3.5126 4.9008,-4.8403 4.2656,-17.5524 4.8614,-24.0073 2.0281,-21.9715 2.4127,-43.9011 3.2297,-65.92 2.39,-64.404 0.7112,-129.5605 -2.1131,-193.92 -0.9735,-22.1804 -1.5758,-44.3777 -2.5597,-66.56 -0.5803,-13.086 -2.3717,-26.6522 -0.5308,-39.68 h 260.48 56.32 c 14.1819,0 28.0956,-0.081 38.6461,-11.1236 10.6678,-11.1652 9.9939,-25.0939 9.9939,-39.4364 v -69.76 h 421.76 93.44 c 20.1188,0 39.7678,-0.08 53.5688,-17.3163 10.8315,-13.528 10.4312,-29.0198 10.4312,-45.4037 v -51.84 -244.48 c 20.6866,0.005 41.4063,1.22735 62.08,1.85782 5.8306,0.17781 18.6922,2.61093 23.5738,-0.83719 4.3168,-3.04938 2.6225,-11.92406 2.3237,-16.38062 -1.0362,-15.45485 -2.0794,-30.75532 -4.4887,-46.08 -7.1132,-45.24172 -22.3679,-89.24594 -44.5985,-129.28 -7.2159,-12.99469 -15.0894,-25.66719 -23.7369,-37.76 -4.634,-6.48031 -12.0034,-13.40625 -14.3684,-21.12 -2.8991,-9.45594 -0.785,-22.16281 -0.785,-32 v -67.19999 c 0,-18.16438 0.1706,-35.32313 -13.5681,-49.16532 -14.4385,-14.5475 -33.2903,-14.19468 -52.3519,-14.19468 h -88.96 -390.4 -95.36 c -21.0081,0 -41.1036,-0.0931 -55.9153,17.29187 -10.84,12.72313 -10.6447,27.76688 -10.6447,43.50813 v 46.07999 227.2 m 407.68,-327.67999 -0.64,27.52 h -67.84 l -15.9364,0.18875 -4.6662,2.71312 4.6662,2.67438 15.9364,0.18375 h 67.84 l -0.64,31.99999 h -282.88 -66.56 c -5.0661,0 -10.2644,-0.32562 -15.3131,0.13657 -1.6253,0.14875 -4.7546,0.51187 -4.9908,2.64718 -0.2416,2.18407 2.7755,3.03657 4.3786,3.30969 4.9328,0.84063 10.2967,0.30656 15.2853,0.30656 h 66.56 283.52 c -2.3995,53.16969 -2.7975,106.77594 -3.1906,160 -0.1008,13.65656 -0.6453,27.315 -0.6492,40.96 0,4.67109 -1.2872,11.95219 1.4731,16.02625 2.1197,3.12875 6.6736,3.51656 10.0473,4.28094 6.7558,1.53062 13.3949,3.41531 19.8394,5.97093 18.4397,7.3125 35.1738,18.8961 48.2039,33.88203 11.0585,12.71844 19.3764,27.93203 23.9506,44.15985 1.6105,5.71312 1.4732,19.38234 7.5519,22.12312 4.8856,2.20281 12.3069,1.52359 17.5736,1.55109 10.8425,0.0564 21.8116,0.23969 32.64,0.78578 31.9534,1.61157 64.02,2.0225 96,2.99782 13.5391,0.41297 27.5188,-0.37125 40.96,1.34218 v 243.2 55.68 c 0,13.8472 0.5366,26.8576 -8.4912,38.3734 -12.505,15.9513 -30.1472,15.3866 -48.4688,15.3866 h -96 -419.84 v -49.28 l 0.4919,-26.24 14.2281,-37.12 c 9.065,6.1561 17.6255,12.9923 26.8797,18.8867 3.0192,1.9231 7.7237,5.8642 11.5869,4.5926 3.7525,-1.2351 6.1833,-6.3189 8.1815,-9.4006 l 16.2263,-24.9562 c 18.3868,-28.4046 36.7585,-56.8257 55.3141,-85.12 5.0219,-7.6577 9.972,-15.3631 14.9644,-23.04 2.1287,-3.2734 5.7842,-7.3541 5.9094,-11.4481 0.1845,-6.033 -9.7708,-11.7102 -13.5575,-15.498 -10.2316,-10.2347 -18.5329,-22.5227 -24.3324,-35.7739 -6.414,-14.65531 -9.9072,-31.32953 -9.3358,-47.36 0.2061,-5.7839 0.6947,-11.555 1.5877,-17.27359 0.4467,-2.86109 1.5536,-6.57969 -0.2127,-9.20125 -3.212,-4.76781 -13.1986,-6.16031 -18.3331,-7.87187 -16.2358,-5.41188 -32.4039,-11.01453 -48.64,-16.42657 -12.6622,-4.22078 -29.4264,-6.93828 -40.6576,-14.18718 -3.8763,-2.50188 -5.8372,-7.02078 -8.7061,-10.4861 -4.35,-5.25437 -10.063,-9.28031 -16.5563,-11.40687 -11.0409,-3.61609 -23.7444,-2.10594 -35.2,-2.10656 h -61.44 v -225.92 -48.63999 c 0,-14.27719 -0.3831,-27.43563 9.5083,-38.95875 12.0148,-13.99688 28.5759,-14.16125 45.5317,-14.16125 h 58.24 288 m 293.12,149.11999 c -8.8572,-8.17875 -16.3925,-17.73062 -24.9694,-26.20812 -18.8215,-18.60313 -39.5562,-36.57469 -62.0706,-50.59188 v -0.64 h 44.16 c 2.52,-9.3e-4 13.7538,1.07657 13.2206,-3.61625 -0.3093,-2.72218 -4.9115,-2.68437 -6.8328,-2.74562 -7.8753,-0.25156 -15.7887,-0.0381 -23.6678,-0.0381 -11.4072,0 -26.1603,2.46 -37.12,-0.90906 -7.0244,-2.15937 -13.455,-7.37156 -19.84,-10.93593 -12.815,-7.15375 -26.0128,-14.12969 -39.68,-19.515 v -0.64 c 9.1719,0 18.3463,0.0731 27.5178,-0.008 2.0931,-0.0184 8.3388,0.45938 8.7013,-2.69187 0.3959,-3.44125 -6.791,-3.035 -8.7013,-3.05188 -9.5978,-0.085 -19.1997,-0.008 -28.7978,-0.008 -16.9225,0 -31.3608,-6.78094 -47.36,-11.66625 -22.8698,-6.98313 -47.138,-13.2925 -71.04,-15.21375 21.1545,-3.61188 45.1027,-0.64 66.56,-0.64 h 131.84 c 23.1844,0 53.1775,-5.31438 69.4216,15.41281 10.4615,13.34875 8.6584,29.45906 8.6584,45.38718 v 88.32 m 88.32,252.79999 c -64.2006,-1.18468 -128.4306,-5.42218 -192.64,-5.75406 -19.3159,-0.0998 -38.9675,-0.34468 -58.24,-1.62797 -5.7069,-0.38 -15.3797,1.58954 -20.3634,-1.51671 -2.8769,-1.79297 -3.21,-6.02719 -3.8597,-9.02469 -1.4181,-6.5425 -3.2666,-12.9586 -5.7045,-19.19656 -6.9058,-17.66953 -18.0835,-33.64766 -32.156,-46.36657 -13.204,-11.93406 -28.6055,-21.18499 -45.4364,-26.99359 -5.0976,-1.75922 -18.8766,-2.88375 -21.0526,-8.40078 -2.4619,-6.24156 -0.7261,-15.92265 -0.7038,-22.55906 0.062,-18.33531 1.2109,-36.70469 1.2728,-55.04 0.2255,-66.78218 3.2036,-133.53843 3.2036,-200.31999 56.9113,8.35 111.0091,22.64812 161.92,50.23125 126.41,68.48749 213.76,201.21311 213.76,346.56873 m -743.0081,-381.8678 c -13.5478,3.35125 -8.3242,24.11438 5.0544,20.75188 13.3526,-3.35594 8.2807,-24.05063 -5.0544,-20.75188 m 44.1547,0.0631 c -13.2625,3.91312 -7.3908,24.43375 5.7068,20.56937 13.2625,-3.91312 7.3908,-24.43375 -5.7068,-20.56937 m 44.807,-0.0631 c -13.3864,3.31594 -8.2303,24.07563 5.0619,20.75188 13.5442,-3.38688 8.3125,-24.065 -5.0619,-20.75188 m 60.5414,8.84907 c -4.3358,3.59937 6.4845,4.35812 7.9072,4.37062 12.1572,0.1075 24.32,0.01 36.4778,0.008 3.0594,-3.2e-4 10.2719,1.18656 12.3966,-1.67813 3.1954,-4.30812 -9.5963,-4.07969 -11.1166,-4.08125 l -32.64,-6.2e-4 c -3.6062,0 -10.0278,-1.10688 -13.025,1.38125 m 411.0081,0 c -4.6318,4.01875 8.3247,4.375 9.6972,4.3775 l 40.3197,10e-4 c 3.5844,0 11.8569,1.43406 14.4722,-1.67813 3.7175,-4.42375 -10.4016,-4.08156 -11.9122,-4.08187 h -38.4 c -3.7844,0 -11.0812,-1.305 -14.1769,1.38125 m -900.6062,5.605 c -4.6644,1.62531 -9.7042,7.48718 -12.2939,11.53312 -1.12,1.75 -2.455,6.21688 1.3147,5.3725 4.8536,-1.08687 10.1011,-7.73937 12.6721,-11.69125 1.3238,-2.03437 2.424,-6.64875 -1.6929,-5.21437 m -61.9752,1.21781 c -1.8567,1.20562 -0.1061,4.04937 0.7566,5.27625 1.8833,2.67844 10.7453,13.79062 14.8187,11.00281 1.82,-1.24562 0.1,-4.07437 -0.7698,-5.32281 -1.905,-2.73469 -10.6475,-13.65594 -14.8055,-10.95625 m -142.6017,211.95603 c -1.7297,6.46437 -2.4289,19.77781 -7.8925,24.13781 -7.8084,6.23109 -21.3797,-0.88047 -30.3237,2.16953 -5.82,1.98469 -9.769,12.02188 -12.1669,17.21266 -3.2828,7.1064 2.5126,11.64297 4.8479,17.92 1.4086,3.78609 0.5547,7.61109 0.4972,11.52 -0.1142,7.75984 1.9691,13.69203 -5.0965,19.32234 -8.9675,7.14594 -22.2413,-10.03828 -31.1455,-11.75641 -4.2445,-0.81906 -8.0991,2.20625 -11.5197,4.2686 -3.5625,2.14797 -8.4598,4.05312 -10.6865,7.76594 -2.0494,3.41718 -1.3824,7.98015 -1.1311,11.75953 0.4806,7.23109 0.9104,14.51265 0.9373,21.76 -6.4692,1.58109 -18.0767,7.59359 -24.5594,5.40781 -3.0964,-1.04391 -4.6981,-4.69719 -6.1606,-7.3375 -3.2275,-5.82688 -6.0362,-13.92625 -11.0302,-18.46094 -3.2784,-2.97703 -7.955,-2.10875 -12.0098,-2.04 -3.9602,0.0672 -9.1839,-0.81437 -12.7927,1.16266 -3.3087,1.8125 -4.9379,5.935 -6.5985,9.11031 -3.4385,6.57484 -6.934,13.09953 -10.0488,19.83766 -6.2505,-1.21657 -20.6384,-2.24 -24.7667,-7.47047 -5.7858,-7.33063 1.2961,-21.64438 -1.5414,-30.14563 -1.9727,-5.90984 -11.3985,-9.615 -16.5719,-12.19109 -12.8973,-6.42219 -21.2905,13.02641 -33.28,13.11328 -5.647,0.0409 -11.8209,-8.03375 -15.0984,-11.94609 -8.9325,-10.66282 9.0411,-22.00344 10.6375,-32.64 0.6003,-3.99985 -2.1322,-7.62985 -4.0614,-10.87985 -2.1777,-3.66843 -4.1916,-8.9664 -7.9905,-11.26078 -3.0369,-1.83422 -7.0099,-1.11765 -10.3674,-0.9664 -7.6803,0.34593 -15.3798,0.69015 -23.0398,1.34703 l -7.04,-26.24 c 7.7904,-4.27281 24.2264,-9.47625 28.497,-17.57969 1.9628,-3.72437 0.9596,-9.07937 0.9437,-13.14031 -0.015,-3.76219 0.4323,-8.28469 -2.2013,-11.34312 -4.3233,-5.02094 -13.126,-7.81563 -18.9103,-10.86625 -2.7721,-1.46188 -6.7059,-3.02938 -7.6457,-6.3525 -1.0702,-3.78438 1.0399,-8.73719 1.9569,-12.39782 0.8115,-3.23906 1.2806,-7.90562 3.8011,-10.34281 2.5453,-2.46125 7.0306,-1.57781 10.1996,-1.38969 6.2303,0.37 15.6041,1.79625 21.4536,-0.70843 3.756,-1.60813 5.446,-5.955 7.2409,-9.32188 1.8793,-3.52562 5.3304,-7.71437 5.4048,-11.85937 0.065,-3.59531 -2.7151,-7.02219 -4.5528,-9.9 -3.9884,-6.24563 -8.05,-12.46469 -12.2675,-18.55813 v -0.64 c 4.8031,-4.86625 11.9777,-16.21718 19.2003,-17.08062 9.6674,-1.15594 18.0972,12.26312 27.5197,13.61875 5.6359,0.81094 12.6706,-5.04125 17.2091,-7.86844 13.4192,-8.35969 -0.3857,-24.82594 5.81,-35.91562 2.5993,-4.6525 14.3509,-6.39407 19.185,-7.24782 11.5572,-2.04093 14.6781,19.34657 21.3707,25.62625 3.4343,3.22219 8.2902,2.43813 12.5852,2.20938 3.9016,-0.20781 8.8597,0.83094 12.4017,-1.16156 8.2017,-4.61375 12.7299,-21.12719 17.0383,-29.14032 6.1906,1.65688 20.8255,2.50344 24.7216,7.96157 1.8078,2.5325 1.0168,6.42312 0.9379,9.31937 -0.1693,6.22 -1.7795,15.73563 0.6938,21.53188 2.2987,5.38718 10.9925,8.52625 15.8867,11.03781 13.408,6.88031 21.4422,-13.64313 33.92,-12.86375 4.1186,0.25719 7.5356,4.48844 10.2308,7.18281 2.1659,2.165 4.584,4.37156 6.1548,7.03031 5.0055,8.47188 -9.4217,20.94875 -11.9697,28.8 -2.0615,6.35281 4.6616,14.73 8.1005,19.70281 5.4724,7.91344 17.5991,4.81469 25.883,4.27657 4.1337,-0.26844 9.3244,-0.94594 11.6659,3.29343 2.423,4.38657 7.2874,17.14688 4.6149,21.84344 -4.2368,7.44531 -17.7944,9.72844 -24.2286,15.16125 -5.2352,4.42031 -5.6643,21.165 -1.7128,26.60469 2.6259,3.615 7.7203,5.55406 11.5812,7.50906 5.7247,2.89844 11.4552,5.79625 17.28,8.48875 m 192.2883,-163.22343 c -2.293,1.18531 -0.089,4.52718 0.867,5.80875 1.9472,2.60968 10.303,13.1025 14.3644,10.37781 2.0867,-1.4 -0.2653,-4.66719 -1.2527,-5.94719 -2.0926,-2.71281 -9.7456,-12.42781 -13.9787,-10.23937 m -35.8116,0.52968 c -4.7884,1.05657 -9.9026,7.79782 -12.5239,11.62 -1.1022,1.60719 -2.9203,6.31594 0.9253,5.70532 4.7158,-0.74875 10.6041,-8.27063 13.0303,-12.0225 1.1657,-1.8025 2.2955,-6.12532 -1.4317,-5.30282 m 688.3111,33.7675 c -89.1875,2.39438 -175.6923,39.46656 -236.0028,105.88625 -14.0698,15.495 -26.5941,32.48 -37.1478,50.56 -3.3695,5.7725 -9.743,14.0675 -10.0711,20.92937 -0.2247,4.69719 5.837,6.19453 9.3158,7.41328 10.6283,3.7236 21.3219,7.32329 31.9981,10.90766 33.5344,11.25859 66.9286,22.93 100.48,34.13703 9.4064,3.14203 18.7508,6.46266 28.16,9.59937 4.0099,1.33672 8.9459,3.89922 13.255,3.56891 5.305,-0.40656 8.4052,-7.93765 11.1569,-11.67578 7.3362,-9.96625 16.2278,-18.99516 26.1481,-26.39734 12.6869,-9.46641 27.0006,-16.83735 42.24,-21.20406 6.1778,-1.77016 20.0577,-1.65172 24.3813,-6.50407 4.1323,-4.63765 1.7137,-16.2539 1.9682,-22.05437 0.9247,-21.07063 1.1647,-42.26563 1.1707,-63.36 0.01,-23.46281 1.2798,-46.93031 1.2798,-70.4 0,-8.20468 3.4567,-21.72281 -8.3322,-21.40625 m 2.5722,6.04625 c -0.3508,40.24156 -0.6861,80.75625 -2.4505,120.96 -0.4676,10.65656 0.3263,21.35047 -0.3642,32 -0.2364,3.64515 0.42,8.77437 -1.3054,12.08828 -2.2382,4.29875 -11.5377,4.39797 -15.7199,5.44703 -12.7866,3.20734 -25.1269,8.22125 -36.48,14.935 -12.2336,7.23422 -23.403,16.34016 -32.7591,27.05031 -3.9701,4.54469 -8.9407,15.07031 -14.9162,16.89781 -4.3463,1.32922 -10.3672,-1.88093 -14.4047,-3.30296 -11.2723,-3.97032 -22.6536,-7.6175 -33.92,-11.60469 -42.2592,-14.95563 -85.513,-27.51016 -127.36,-43.59078 50.1122,-105.02 165.3144,-169.38812 279.68,-170.88 m -1011.84,11.20282 c -13.5114,0.95343 -26.5403,4.56593 -38.4,11.17187 -9.2561,5.15562 -17.4737,12.22 -24.0656,20.50562 -37.0936,46.62532 -15.2794,118.77234 42.6256,135.44563 9.4969,2.73453 19.575,3.92437 29.44,3.20484 12.5808,-0.91766 24.7541,-4.52984 35.84,-10.53313 8.9786,-4.86218 17.0822,-11.48546 23.6269,-19.32359 38.2901,-45.85687 18.1351,-117.83031 -38.9869,-136.44562 -9.4794,-3.08937 -20.107,-4.72937 -30.08,-4.02562 m -1.28,6.35562 c 9.8739,-0.79 20.022,0.54781 29.44,3.57406 10.058,3.23188 19.4667,8.4475 27.5102,15.2975 41.2601,35.13781 33.7496,103.21234 -13.4302,129.30281 -9.5366,5.27375 -20.4973,8.54266 -31.36,9.38969 -55.2686,4.31 -99.217,-49.48063 -82.2556,-102.8025 2.8697,-9.02156 7.4254,-17.545 13.3101,-24.96 6.446,-8.12219 14.4553,-15.02375 23.5055,-20.08719 10.1931,-5.70281 21.6748,-8.78593 33.28,-9.71437 m 986.8319,2.71719 c -21.9238,0.38406 -45.1563,7.04468 -65.8719,13.71718 -5.4169,1.74469 -11.4272,3.39563 -16.4166,6.16969 -1.6157,0.89844 -4.8782,3.79344 -1.9385,5.32906 4.9306,2.57532 17.2517,-4.40156 22.1951,-6.01 15.2363,-4.95718 30.8884,-8.57906 46.72,-11.01937 5.1445,-0.79281 16.1424,-0.0912 19.9783,-3.95281 3.0433,-3.06344 -2.6533,-4.26907 -4.6664,-4.23375 m -111.743,34.37187 c -5.5883,-0.36969 -12.9486,5.72219 -17.4889,8.49156 -14.9512,9.11938 -29.1273,19.51313 -42.24,31.1275 -4.1825,3.70469 -8.8997,7.40844 -12.207,11.95219 -0.9402,1.29187 -3.2005,5.12906 -0.4333,5.915 5.2461,1.48969 14.8652,-11.01156 18.4003,-14.11281 14.0606,-12.335 29.3102,-23.13 45.4397,-32.57938 3.2198,-1.88625 7.4702,-3.59656 9.8222,-6.60375 1.2983,-1.66 1.2294,-4.02343 -1.293,-4.19031 M 945.84024,775.89896 c -3.9933,1.53031 -5.8453,7.11719 -7.6019,10.61906 -4.7274,9.42438 -9.6817,18.72906 -14.4002,28.15953 -2.6615,5.31922 -4.8804,12.17953 -11.7354,12.60094 -6.915,0.425 -22.0768,2.69391 -28.124,-0.77406 -3.925,-2.25094 -6.0039,-8.02907 -8.0547,-11.82672 -4.4998,-8.33281 -9.0384,-16.64359 -13.56838,-24.96 -2.07242,-3.80469 -4.02867,-9.12781 -7.71679,-11.67125 -4.04188,-2.78719 -9.9718,-0.0275 -14.16063,1.13312 -8.76047,2.4275 -17.49179,4.95313 -26.24,7.42438 -4.38812,1.23937 -9.74914,1.94875 -13.64218,4.42375 -4.71016,2.99437 -3.10079,10.61906 -2.82508,15.33 0.75617,12.91859 4.07437,28.67531 1.885,41.43687 -1.29196,7.53047 -18.20063,14.53078 -24.45774,17.72578 -6.46539,3.30141 -11.81343,-1.07047 -17.28,-4.42078 l -23.68,-14.5214 c -3.66547,-2.25422 -7.83187,-5.70735 -12.16,-6.46266 -4.97492,-0.86812 -9.01765,4.10828 -12.16,7.21375 -9.2239,9.11547 -20.84711,18.67891 -28.12195,29.42844 -5.73219,8.47 9.02851,23.72703 13.55758,30.72 4.07906,6.29812 12.18211,14.81515 13.1957,22.4 0.43805,3.27812 -1.52398,6.25781 -3.09914,8.95999 -3.45391,5.92532 -6.24148,13.55141 -10.81344,18.66735 -3.23851,3.6239 -8.45023,3.11875 -12.87883,3.07734 -10.59921,-0.0992 -21.4239,-0.26281 -31.99992,-0.96656 -5.00101,-0.33281 -13.36359,-1.85844 -16.38797,3.32516 -6.325,10.84062 -7.50578,27.74624 -10.57593,39.89671 -1.03164,4.083 -3.74899,10.1291 -1.14516,14.0634 2.38664,3.6063 7.77086,5.3524 11.46914,7.2253 8.76672,4.4397 17.44914,9.0346 26.23984,13.4313 3.78454,1.8928 9.58485,3.73 11.88305,7.5366 1.66109,2.7514 0.99344,6.5317 0.94649,9.5843 -0.0945,6.1438 0.86257,12.4121 0.46265,18.5225 -0.39672,6.0621 -5.30164,8.4011 -10.09414,11.0316 -9.57781,5.257 -19.20773,10.4183 -28.79773,15.6528 -4.225,2.3061 -11.60063,4.8898 -11.81578,10.5895 -0.18024,4.7735 2.19976,10.0677 3.49554,14.6027 l 7.58906,26.8798 c 1.23493,4.3089 2.12633,10.82 7.33329,11.9345 12.54234,2.6849 28.61093,-1.129 41.39765,-1.6811 6.70875,-0.2896 13.2968,-1.9409 17.39649,4.6041 3.79781,6.063 13.33203,17.5491 12.96531,24.8227 -0.21875,4.339 -3.74352,8.5856 -5.91656,12.16 -5.06813,8.3364 -10.18735,16.6436 -15.28828,24.96 -2.14875,3.5032 -5.72305,7.8322 -5.85391,12.1148 -0.14516,4.7517 5.20742,8.5936 8.22328,11.587 8.81242,8.7472 18.9107,22.5924 30.07367,28.2111 5.18102,2.6078 10.57821,-2.232 14.72,-4.8961 10.99875,-7.0746 22.4161,-17.0981 34.56,-21.9843 7.6786,-3.0896 21.60688,7.6859 28.02266,11.7193 6.69508,4.2091 5.1018,11.4527 4.75726,18.2882 -0.6007,11.917 -3.61656,29.2056 -0.24726,40.6768 1.44047,4.9044 8.05594,5.6122 12.2675,6.7244 12.61351,3.331 27.7925,9.5731 40.84344,9.8216 6.01132,0.1144 8.5705,-7.3269 10.8275,-11.783 5.9648,-11.7767 10.825,-26.3661 19.0684,-36.7211 4.6012,-5.7797 22.7027,-3.8297 29.706,-3.5303 7.3695,0.3152 9.845,7.0367 12.9509,12.7316 l 13.5545,24.96 c 2.0657,3.7947 3.9809,9.0626 7.5472,11.7156 3.902,2.9026 9.8709,0.232 13.9819,-0.9309 12.2544,-3.4668 25.1236,-6.1836 37.05976,-10.6193 7.9327,-2.9479 6.3309,-10.4839 5.9565,-17.4454 -0.5619,-10.4503 -0.9772,-20.9149 -1.6282,-31.36 -0.3658,-5.8707 -1.1811,-11.4664 4.2515,-15.2078 5.6872,-3.9168 18.0944,-13.7713 25.0585,-13.5372 4.1915,0.1409 8.4353,3.7457 11.8621,5.852 l 24.9598,15.307 c 3.6136,2.2116 8.3413,6.1991 12.8,6.063 4.6354,-0.1416 8.512,-5.0872 11.5141,-8.0834 8.6711,-8.6539 18.1568,-17.4063 25.9175,-26.8736 5.5193,-6.7332 0.9606,-12.3868 -3.0822,-18.56 l -17.5017,-26.88 c -3.0534,-4.6599 -6.3986,-9.0828 -3.777,-14.72 3.1163,-6.7011 9.7959,-23.9799 17.767,-25.3164 13.0306,-2.1849 28.2785,0.6318 41.4823,0.9512 5.3477,0.1294 12.602,1.1677 15.2866,-4.6344 5.4875,-11.8596 7.2343,-26.8184 10.3931,-39.4804 1.1212,-4.4944 3.6094,-10.5128 -0.1169,-14.3974 -8.5628,-8.9265 -25.4755,-13.8353 -36.4427,-19.3684 -5.9248,-2.989 -12.8487,-5.4936 -13.3479,-12.9906 -0.457,-6.8641 -3.0946,-24.4038 2.3824,-29.2944 9.5801,-8.5544 24.6321,-13.957 35.9252,-20.0489 4.1361,-2.2311 11.7115,-4.8458 12.2052,-10.3309 0.4047,-4.495 -1.9428,-9.62721 -3.15,-13.8894 l -7.5919,-26.88 c -1.17,-4.09687 -1.9452,-10.54765 -6.3271,-12.51906 -4.0309,-1.81344 -9.4448,-0.70234 -13.696,-0.45344 -9.5911,0.56141 -19.2005,1.10797 -28.8,1.50016 -4.2617,0.17406 -9.7099,1.46469 -13.6784,-0.58656 -6.3789,-3.29719 -11.408,-16.38547 -14.8602,-22.50109 -4.1662,-7.38063 0.3982,-12.80438 4.3129,-19.2 6.3084,-10.30641 17.4026,-22.82438 20.4041,-34.56 1.2792,-5.00157 -3.2705,-8.9575 -6.4379,-12.13813 -9.0953,-9.13312 -19.4887,-22.61297 -30.7005,-28.95906 -5.6718,-3.21031 -11.3599,1.63906 -16,4.65313 -8.753,5.68562 -17.4717,11.42515 -26.24,17.08718 -3.6789,2.37563 -8.0988,6.21578 -12.8,5.28172 -4.3232,-0.85891 -8.3812,-4.15 -12.16,-6.28516 -4.5025,-2.54406 -12.2329,-4.81531 -14.8247,-9.59828 -1.9665,-3.62906 -1.2017,-8.94265 -1.1606,-12.9214 0.1008,-9.76141 0.2737,-19.68969 0.7652,-29.44 0.2189,-4.34188 1.5548,-10.20469 -0.6757,-14.20938 -1.75246,-3.14656 -5.87356,-3.98375 -9.06676,-4.85562 -7.6376,-2.08563 -15.3568,-3.895 -23.0374,-5.815 -6.0841,-1.52094 -17.1756,-6.63719 -23.278,-4.29875 m 233.19796,230.13874 c -11.0387,6.6441 -22.5794,12.547 -33.92,18.6594 -4.9683,2.6778 -12.0191,5.1604 -15.6559,9.6292 -3.8148,4.6875 -1.4709,14.1439 -1.1593,19.7114 0.3371,6.0223 -2.02,14.6731 0.7165,20.1747 2.4475,4.9205 9.6046,7.0969 14.1787,9.4612 12.3419,6.3794 24.885,12.4245 37.12,19.0041 -2.6686,11.5617 -5.6804,23.0493 -8.5601,34.56 -0.9572,3.8264 -1.4733,10.5453 -5.4778,12.5193 -3.5835,1.7666 -8.9678,0.9618 -12.8421,0.8888 -9.3427,-0.1759 -18.8319,-0.2572 -28.16,-0.7828 -7.6385,-0.4305 -14.8391,-1.6797 -19.0806,6.005 -3.7643,6.8198 -7.2592,13.7358 -11.296,20.4097 -1.9561,3.234 -4.6186,6.8862 -3.8705,10.88 0.8244,4.4009 4.3187,8.5087 6.7273,12.16 4.7637,7.2217 9.4565,14.4928 14.1505,21.76 2.4385,3.7751 7.6216,9.2406 6.9259,14.08 -0.6478,4.5053 -5.7003,8.384 -8.6202,11.52 -7.6537,8.2198 -16.039,15.777 -23.3364,24.32 -11.6512,-6.1157 -22.7019,-13.5169 -33.92,-20.3858 -4.621,-2.8295 -10.2918,-7.8102 -15.7868,-8.5528 -5.5452,-0.7496 -11.7969,5.3373 -16.2132,8.0339 -5.6082,3.4242 -15.5215,6.5417 -19.0062,12.3462 -2.45056,4.0819 -1.2165,9.8328 -0.9677,14.3185 0.5323,9.5972 1.0614,19.1978 1.488,28.8 0.1759,3.9578 1.4221,9.1587 -0.3584,12.8848 -1.9568,4.095 -8.62966,4.8353 -12.51576,5.907 -11.475,3.1646 -22.8736,7.0643 -34.5599,9.3682 -5.9349,-12.1668 -12.7494,-23.9436 -19.2052,-35.84 -2.4887,-4.5863 -5.0146,-11.8018 -9.8979,-14.3424 -5.5474,-2.8861 -14.7509,-0.4009 -20.8169,-0.3814 -5.9006,0.019 -15.6257,-2.2226 -20.1213,2.5006 -8.2035,8.6189 -13.1304,24.0071 -18.4387,34.6232 -1.9909,3.9814 -4.20726,11.4454 -8.67867,13.2817 -3.92242,1.6108 -9.70375,-1.0306 -13.56133,-2.0002 -11.05078,-2.7775 -22.09304,-5.9042 -33.28,-8.0815 0,-13.8821 0.46438,-27.7241 0.66188,-41.6 0.0723,-5.0833 1.95219,-12.1857 -0.90047,-16.7614 -3.51859,-5.6439 -13.37203,-8.3524 -18.96141,-11.5208 -4.77242,-2.7053 -11.43398,-8.8169 -17.28,-7.7916 -4.17562,0.7324 -8.04265,4.0953 -11.52,6.3361 -7.70375,4.9644 -15.37328,9.9861 -23.04,15.0075 -3.76515,2.4661 -9.2214,7.3824 -14.08,6.4149 -4.33836,-0.864 -7.90414,-5.3783 -10.88,-8.3322 -5.08164,-5.0441 -10.14422,-10.0921 -15.34851,-15.0105 -2.5161,-2.378 -5.94289,-5.1253 -6.7725,-8.6656 -1.11532,-4.7594 3.75359,-10.3032 6.07015,-14.0764 4.84289,-7.8883 9.6968,-15.7716 14.5068,-23.68 2.18422,-3.5913 5.65539,-7.8169 5.94656,-12.16 0.38539,-5.7488 -5.54797,-11.9924 -8.35515,-16.64 -3.26735,-5.4096 -6.20789,-15.0266 -11.8093,-18.3607 -4.50016,-2.6786 -11.89227,-0.98 -16.87805,-0.7357 -13.56633,0.6643 -27.48906,0.7381 -40.96,2.4564 -3.74445,-11.3825 -6.67773,-23.04 -9.96554,-34.56 -1.14266,-4.0038 -4.01008,-10.1013 -1.12149,-13.9091 2.52227,-3.3248 7.51938,-5.1492 11.08711,-7.0945 l 24.95977,-13.5569 c 6.54007,-3.5739 12.85171,-6.3437 12.70843,-14.7248 -0.13148,-7.6905 -0.63414,-15.3274 -0.51992,-23.0342 0.0566,-3.8205 0.73656,-8.1688 -2.08625,-11.2236 -7.99765,-8.6549 -24.6107,-13.4517 -35.06211,-18.6991 -4.07359,-2.0451 -11.40648,-4.4205 -13.29062,-8.9833 -1.70078,-4.1187 1.04078,-10.1851 2.11258,-14.2145 2.8707,-10.79203 5.84406,-21.67625 7.97804,-32.64 13.17399,0 26.52844,0.0736 39.68,0.81469 5.50485,0.31016 13.72938,2.0436 18.68133,-1.05219 5.48695,-3.43015 8.14633,-12.88921 11.24188,-18.3225 2.9014,-5.0925 9.54937,-12.29874 7.78531,-18.55999 -3.35664,-11.91391 -14.9511,-24.19657 -21.63766,-34.56 -3.88906,-6.02766 -8.43539,-11.2825 -3.23617,-17.92 6.16914,-7.87563 14.01547,-14.5811 20.97578,-21.74407 2.71008,-2.78906 5.99758,-7.10374 10.36414,-6.70124 4.29985,0.39625 8.58196,4.00171 12.14539,6.19218 l 23.68,14.52172 c 6.15532,3.77625 11.51547,7.94156 18.56,3.88047 6.68219,-3.85219 13.05828,-8.17938 19.83742,-11.88344 3.40141,-1.85844 7.76547,-3.66234 9.29,-7.53281 1.48055,-3.75891 0.44079,-8.63891 0.2893,-12.57281 -0.36125,-9.37891 -0.89422,-18.79438 -1.51094,-28.16 -0.26875,-4.0811 -1.95531,-11.40094 0.55719,-14.97828 2.35805,-3.35735 8.83453,-4.00078 12.49703,-5.04516 11.27641,-3.21562 22.52735,-6.63219 33.92,-9.41656 6.25805,10.9825 12.17242,22.17312 18.2072,33.28 2.7558,5.07219 5.188,11.92719 9.5276,15.86219 4.5733,4.14687 13.4083,1.7725 18.9852,1.52734 6.222,-0.27359 16.4557,2.26609 21.9291,-1.00156 4.0211,-2.40063 5.9889,-7.91985 7.9895,-11.90797 4.3867,-8.74453 8.663,-17.55016 13.1574,-26.24 1.7817,-3.44469 3.6395,-8.5825 7.0149,-10.7875 3.3967,-2.21875 8.4809,0.0153 11.9892,0.92469 10.1979,2.64343 22.1137,3.91875 31.7167,8.2675 6.037,2.7339 4.0209,11.65922 3.6964,16.95531 -0.6469,10.56125 -0.8454,21.41922 -0.847,31.99984 -9e-4,5.47203 0.1561,10.15203 5.2511,13.28047 7.01136,4.30516 14.58086,7.71656 21.62266,12.01031 3.7451,2.28344 7.6107,5.04953 12.16,3.43844 11.8088,-4.18203 23.4369,-14.66438 33.92,-21.50094 4.0277,-2.62656 9.5981,-7.72312 14.72,-5.3189 5.1301,2.40812 9.3475,8.0089 13.44,11.82875 5.3724,5.01453 15.772,12.20859 17.8048,19.54203 1.3278,4.79015 -3.4546,10.2714 -5.7704,14.08 l -14.4998,23.68 c -2.201,3.59796 -5.6774,7.80937 -6.0218,12.16 -0.3183,4.02203 2.7577,7.68703 4.7865,10.87999 3.9689,6.2461 7.2927,12.84719 11.1622,19.13985 4.5996,7.48 11.0356,6.25656 18.7785,5.88906 9.1759,-0.43547 18.3459,-0.97875 27.52,-1.44891 4.2241,-0.2164 9.5309,-1.40937 13.5934,0.1686 4.2944,1.66797 5.0511,8.23203 6.155,12.09156 3.2889,11.49812 6.6472,22.99453 9.6916,34.55984 m 254.72,-191.35999 v 0.64 c -8.025,6.55187 -14.0872,14.05969 -19.2,23.04 -5.2134,-6.57438 -3.5191,-18.83813 4.9978,-22.75938 4.0485,-1.8639 9.852,-0.92062 14.2022,-0.92062 m 144.64,222.07999 c -35.087,25.7172 -92.2527,27.4439 -129.28,4.48 6.1139,-2.8298 12.4647,-5.195 17.9175,-9.2448 19.0914,-14.1796 18.5625,-33.9677 18.5625,-55.3952 0,-7.54421 1.4598,-16.865 -0.5327,-24.17906 -1.2012,-4.40937 -5.731,-6.39672 -8.7251,-9.44094 -4.1219,-4.19093 -6.2939,-9.7764 -5.8645,-15.65859 1.1521,-15.78625 22.5173,-11.6075 25.9726,-25.00797 2.0016,-7.76234 -9.658,-17.95234 -5.543,-24.74828 4.2147,-6.96078 19.3557,-6.65875 25.9752,-11.05359 9.9266,-6.59063 4.7094,-26.32672 19.2897,-27.70203 19.1497,-1.80641 29.5761,25.42922 33.4478,39.87047 2.0227,7.54453 5.8259,13.99875 11.0906,19.755 3.0303,3.31328 8.3471,6.68546 9.8291,11.07359 1.7305,5.12328 -7.0208,7.89203 -8.5497,12.21078 -1.408,3.97719 -0.3902,9.12484 -0.3958,13.28063 -0.01,7.36234 -0.6233,14.79093 -3.1733,21.75999 -9.5411,26.0761 -39.0026,23.91375 -57.6187,8.94407 -4.1266,-3.31828 -7.3239,-7.5686 -11.3472,-10.95719 -1.2094,-1.01859 -4.5745,-2.96078 -4.8028,0.0136 -0.2922,3.80688 4.2475,7.84297 6.6316,10.26328 5.0231,5.09954 10.7581,9.41797 17.1962,12.56969 3.8694,1.89422 9.2728,2.75078 12.5413,5.59906 4.8559,4.23172 3.9548,17.40339 6.469,23.48749 5.9033,14.285 17.3841,23.4747 30.9097,30.08 m 452.48,122.88 c 0,-3.828 0.9866,-10.0449 -2.2006,-12.9049 -4.0531,-3.6368 -13.8764,-1.8151 -18.9194,-1.8151 h -49.92 c -6.2739,0 -22.437,-2.8667 -26.9847,2.2006 -3.8009,4.2355 -1.8153,14.9119 -1.8153,20.1994 v 40.32 c 0,4.6275 1.4303,12.4376 -1.4733,16.3922 -3.0136,4.1042 -11.1804,4.9182 -15.8067,6.0078 v -218.24 -54.4 c 0,-5.41203 1.955,-15.96062 -2.2422,-20.15781 -4.197,-4.19703 -14.7458,-2.24218 -20.1578,-2.24218 h -55.68 c -5.9352,0 -19.0144,-2.48719 -21.6125,4.70093 -2.8036,7.75625 -0.7875,19.12203 -0.7875,27.29906 v 58.88 199.68 c -2.3875,-0.6588 -4.7405,-1.378 -7.058,-2.2558 -1.6592,-0.6286 -3.3464,-1.2738 -4.8951,-2.1477 -11.5977,-6.5445 9.6381,-19.0843 7.3347,-27.5965 -1.8585,-6.8677 -10.1624,-9.9689 -11.6289,-17.28 -2.0888,-10.4125 -0.3927,-22.673 -0.3927,-33.28 v -66.56 -37.76 c 0,-4.5677 1.1713,-11.437 -1.5175,-15.4325 -3.6328,-5.3983 -15.9395,-3.1275 -21.5225,-3.1275 h -55.68 c -5.3212,0 -16.0809,-1.9858 -19.9012,2.6661 -3.2463,3.9528 -1.8588,11.7787 -1.8588,16.5339 v 42.24 c -10.1572,-7.4602 -19.3769,-16.1395 -29.44,-23.7422 -4.4169,-3.337 -11.6177,-6.7059 -14.1847,-11.8058 -1.9103,-3.7951 -1.175,-8.9784 -1.1753,-13.092 v -26.24 -90.87999 c 0,-14.19922 -1.628,-29.42797 10.3964,-39.63313 9.0763,-7.70312 20.0394,-7.08687 31.2036,-7.08687 h 54.4 229.12 57.6 c 12.3924,0 24.2836,-0.48063 33.6033,9.18203 11.0786,11.4864 7.9967,29.33922 7.9967,43.93797 v 106.23999 55.68 c 0,8.047 1.7597,18.5845 -0.9997,26.24 -2.2495,6.2414 -7.9462,11.6787 -12.1789,16.64 -9.7914,11.4768 -20.1353,22.8281 -31.6214,32.64 m 51.84,-266.23999 102.4,34.56 c -7.7114,46.58078 7.0594,92.24559 45.44,121.59999 l -37.9478,58.88 -58.6922,90.24 -34.56,-23.68 c 1.9116,-6.7311 3.5788,-20.2518 8.8174,-25.0746 4.4221,-4.0712 15.5089,-3.6517 21.2626,-5.7334 15.6458,-5.6606 28.0758,-18.048 33.4595,-33.832 3.4499,-10.1142 3.3443,-21.216 -1.8664,-30.7198 -2.3678,-4.319 -9.3965,-9.8368 -9.4639,-14.8602 -0.072,-5.3966 7.7172,-11.4558 10.9588,-15.22 10.4664,-12.1541 27.5326,-28.3177 20.8587,-46.0478 -2.9354,-7.79876 -8.0634,-6.04407 -13.6275,-1.8533 -6.5079,4.9019 -12.8409,10.0413 -19.1992,15.1339 -27.708,22.1931 -50.0073,52.0941 -67.84,82.6872 h -0.64 v -136.96 c 0,-22.2714 -3.108,-47.16468 0.64,-69.11999 M 893.59824,914.83067 c -20.9895,1.62579 -41.7375,7.4886 -60.16,17.77407 -14.46218,8.07437 -27.605,18.65093 -38.43461,31.19296 -51.31609,59.4305 -45.21984,152.2633 14.75461,203.5372 14.67289,12.5442 31.58782,21.7725 49.92,27.6975 17.2261,5.5675 35.683,7.9418 53.76,6.5756 20.6988,-1.5646 41.3224,-7.4102 59.52,-17.4619 15.2116,-8.4025 28.95626,-19.5384 40.16576,-32.8284 51.0498,-60.5249 42.936,-154.80531 -19.04576,-204.70906 -14.0409,-11.30484 -30.158,-20.02172 -47.36,-25.42422 -17.065,-5.35953 -35.2541,-7.7375 -53.12,-6.35375 m -1.28,6.36422 c 17.6258,-1.4075 35.608,0.56438 52.48,5.81969 14.6458,4.56188 28.6234,11.90516 40.96,20.98812 61.36856,45.18375 72.43936,135.2875 26.08986,194.995 -11.4,14.6854 -25.84316,26.8423 -42.08986,35.8393 -16.5918,9.1882 -35.4916,14.8433 -54.4,16.3629 -19.9098,1.6 -40.0836,-0.9358 -58.88,-7.679 -69.1,-24.7892 -106.22195,-102.4662 -83.80531,-171.8832 4.9968,-15.4734 12.81617,-30.15703 22.95469,-42.88 11.43164,-14.34578 25.59914,-26.32859 41.65062,-35.19781 16.83407,-9.30172 35.8891,-14.83578 55.04,-16.365 M 1907.3582,941.3977 v 215.68 53.76 c 0,4.9886 2.0298,15.9711 -1.8153,19.809 -4.5178,4.5092 -17.2059,3.7933 -23.1447,3.8563 -21.6264,0.2292 -41.5441,-2.2991 -62.72,-6.3853 v -286.72 h 87.68 m 535.713,28.09875 c -3.5852,2.1461 -3.9914,7.94235 -5.0108,11.58141 -2.3105,8.24812 -5.6459,16.11328 -9.6422,23.67984 -10.7136,20.2858 -27.7284,37.203 -47.46,48.7644 -22.6797,13.2889 -49.8797,20.0829 -76.16,17.9239 -9.093,-0.7471 -18.075,-2.1674 -26.88,-4.5956 -4.0501,-1.1169 -9.5134,-4.0686 -13.7575,-2.7311 -4.0376,1.2723 -6.4698,6.4681 -8.6106,9.7596 -5.5364,8.5125 -11.0049,17.0691 -16.5147,25.5988 -18.0533,27.9481 -36.1608,55.8614 -54.1666,83.84 -4.8104,7.4748 -9.6254,14.9475 -14.4703,22.4 -2.2717,3.4945 -5.9239,7.7154 -6.4214,11.9909 -0.7437,6.3925 11.5794,9.1775 16.0211,10.8817 18.0249,6.9156 36.705,12.3711 55.68,15.9788 77.8377,14.7989 159.6769,1.6476 228.48,-37.8577 63.4994,-36.46 114.9953,-95.2261 138.8634,-164.8337 5.0866,-14.8344 9.0425,-29.985 11.7247,-45.44 1.0275,-5.92062 3.2766,-13.64234 2.1132,-19.61906 -0.8757,-4.49797 -5.6157,-4.62234 -9.3447,-4.68312 -10.0322,-0.1636 -20.0425,-0.65 -30.0766,-0.65844 -32.1812,-0.0269 -64.4744,-1.51625 -96.64,-2.49719 -8.5378,-0.26031 -17.0628,-0.30359 -25.6,-0.61844 -3.6675,-0.13531 -8.8319,-0.8375 -12.127,1.135 m 167.647,9.02125 c -1.9694,32.1431 -12.7922,64.7737 -27.0437,93.44 -73.6469,148.1375 -262.8607,213.2203 -413.2763,145.92 l 32.1928,-50.56 63.1672,-97.92 c 54.9438,18.2426 115.4216,4.8403 153.5763,-40.32 9.0165,-10.6722 16.1937,-22.7967 21.1959,-35.84 1.7737,-4.62515 2.8081,-15.23671 7.6144,-17.63937 4.4609,-2.23016 11.8456,-0.94281 16.6534,-0.62266 10.4142,0.69344 20.9263,0.51125 31.36,0.89844 38.0744,1.41297 76.4628,2.61531 114.56,2.64359 m -25.8487,19.9261 c -4.9022,1.9975 -6.0257,16.4498 -7.3675,21.0339 -5.6744,19.3844 -13.9004,38.1691 -23.9532,55.68 -30.4081,52.9667 -78.5175,94.5339 -134.1906,119.174 -11.7044,5.1802 -23.7161,9.0478 -35.8076,13.165 -2.4979,0.8507 -9.6636,6.0827 -2.9657,6.631 5.1892,0.4248 11.5267,-2.6189 16.3733,-4.2366 12.6797,-4.232 25.1367,-9.2986 37.12,-15.2227 53.5559,-26.476 99.4059,-68.7718 128.0238,-121.4307 9.5725,-17.6142 17.1653,-36.3595 22.5293,-55.68 1.3369,-4.815 3.3478,-10.2208 3.4066,-15.2534 0.02,-1.7185 -0.7584,-4.84253 -3.1684,-3.8605 m -407.4313,5.0339 c 6.2045,26.1158 -22.7205,38.9678 -33.2241,58.8522 -3.5121,6.6489 8.6955,14.3287 11.5891,19.8679 5.4038,10.3444 3.8288,22.4633 -1.1492,32.6399 -5.9434,12.1504 -16.7816,20.9101 -29.6958,24.7325 -6.1631,1.8242 -18.78,0.4925 -22.5405,6.379 -2.8195,4.4138 -3.6501,10.6425 -5.1784,15.6085 -2.8605,9.2945 -6.1066,18.4706 -9.6691,27.52 -11.1336,28.2812 -25.0057,55.5672 -42.2371,80.64 -13.3204,19.3818 -28.7575,37.4961 -46.4549,53.019 -13.6878,12.0061 -28.68,22.4166 -44.8,30.8932 -69.9806,36.7984 -146.97,24.0815 -218.24,-0.7122 l 15.4548,-55.68 9.1999,-30.72 29.7453,-42.88 c 24.8036,7.7822 47.1566,16.2025 73.6,17.1961 82.655,3.1059 152.8344,-51.2639 204.0411,-111.2761 18.9881,-22.2533 32.7798,-48.4859 50.6481,-71.68 16.3836,-21.2667 36.5616,-39.4963 58.9108,-54.4 m -387.2,23.04 v 145.28 c -21.55,-18.4088 -40.9702,-39.9353 -61.44,-59.5677 -7.4169,-7.1134 -21.5819,-15.8823 -25.3194,-25.6365 -2.2104,-5.7688 -0.9206,-13.6716 -0.9206,-19.7558 v -40.32 h 87.68 m 13.44,168.32 v 0.64 l -37.76,52.48 h -0.64 l 5.12,-17.92 h -168.32 -41.6 c -4.6247,0 -12.5519,-1.4333 -16.1425,2.2006 -2.7228,2.7556 -3.4012,7.6484 -4.3931,11.2394 -2.2411,8.1136 -4.5033,16.2228 -6.8025,24.32 -8.5935,30.2632 -17.076,60.5645 -25.4838,90.88 l -7.3523,26.24 c -1.095,3.9173 -1.8197,9.3493 -4.878,12.292 -2.5034,2.4089 -6.5845,3.0723 -9.8287,3.8989 -44.1047,11.2369 -99.583,14.8447 -133.5799,-21.3352 -6.2253,-6.6251 -11.249,-14.282 -15.3479,-22.3757 -8.6097,-17.0008 -12.9241,-36.0749 -14.0905,-55.04 -0.2786,-4.53 2.0323,-17.5822 -3.2735,-19.7396 -3.3896,-1.3782 -7.9932,1.5207 -10.9873,2.8661 l -24.96,11.1236 c -21.1252,9.4916 -42.5719,21.5156 -64.64,28.5439 -9.5519,3.0422 -20.1881,3.8544 -30.08,5.366 9.0158,-58.0594 29.4816,-117.8761 58.4325,-168.96 16.267,-28.7033 36.7592,-55.9947 63.8075,-75.3488 33.6272,-24.0614 78.3027,-35.2529 118.398,-42.7775 9.1689,-1.7206 14.3278,2.4479 22.402,6.0779 8.0519,3.62 16.4191,6.6579 24.96,8.9011 36.1234,9.4871 82.9634,5.0882 111.36,-21.6527 18.7427,2.6527 38.3852,5.1911 55.68,13.3569 22.5689,10.6558 41.8928,30.1286 60.16,46.7485 34.5066,31.3952 67.2961,64.5768 99.84,97.9746 m 220.8,-43.52 c -10e-5,4.304 0.6224,9.3067 -0.9206,13.4068 -3.1264,8.3077 -14.7086,14.9908 -21.4794,20.2071 -19.207,14.7972 -41.7177,30.6043 -65.28,37.4261 v -71.04 h 87.68 m 178.5583,54.054 c -3.4006,1.3347 -0.3728,4.4542 1.5264,5.3955 5.5812,2.7659 12.3045,4.0608 18.3153,5.5831 23.2109,5.8788 47.0834,9.2069 71.04,9.2074 5.7067,10e-5 18.6055,2.3747 23.2206,-1.5003 2.3652,-1.986 -0.2595,-4.0585 -2.3181,-4.5105 -4.6534,-1.0217 -9.7934,0.1089 -14.5025,0.1997 -22.5601,0.4351 -45.8845,-2.5424 -67.84,-7.5975 -6.6698,-1.5358 -13.2862,-3.2828 -19.8398,-5.2555 -2.7694,-0.8336 -6.7049,-2.6589 -9.6019,-1.5219 m -127.3583,25.306 v 122.24 c 0,15.41 4.0567,37.0706 -6.41,49.834 -9.0687,11.0588 -21.4955,10.966 -34.55,10.966 h -56.96 -259.2 l 15.36,-55.04 c 19.2486,5.959 37.8642,13.0654 57.6,17.4637 46.9728,10.4683 95.2502,10.0742 140.8,-6.4455 13.3603,-4.8454 26.3669,-11.2435 38.4,-18.8012 6.9111,-4.3406 13.318,-9.8895 20.48,-13.7648 7.3652,-3.9854 18.1269,-2.1183 26.24,-2.1335 3.5586,-0.01 8.4786,0.5614 11.2394,-2.1994 2.6326,-2.6326 2.187,-7.1951 2.1981,-10.5995 0.024,-7.4284 -1.7055,-17.3839 1.3422,-24.3198 4.222,-9.6083 13.313,-18.2088 19.2764,-26.88 8.9202,-12.9707 15.8158,-27.0478 24.1839,-40.32 m -759.68,58.24 c 0,16.9295 1.7073,33.6628 6.678,49.92 3.4556,11.3022 8.1887,22.1612 14.7845,32 30.7161,45.8181 87.8927,49.6737 137.2575,38.9575 14.9994,-3.2561 29.6205,-7.6254 44.16,-12.5074 4.9864,-1.6744 13.3877,-3.1672 16.7863,-7.5058 3.4607,-4.4178 -1.1546,-14.6453 -2.0975,-19.5843 -2.798,-14.655 -4.8193,-30.7758 -1.2488,-45.44 13.617,14.1614 7.9645,41.3248 28.8002,47.8428 27.652,8.6503 58.8109,-4.5816 85.7598,-9.8341 6.8884,-1.3426 14.1023,-1.9895 21.1116,-1.328 2.5982,0.2454 6.425,0.7975 7.5157,3.6136 1.3397,3.4586 -2.2881,7.2416 -4.4626,9.4469 -6.2342,6.3224 -14.0552,11.1856 -21.6047,15.7659 -21.7119,13.1729 -45.5164,25.8121 -70.4,31.6461 -7.3016,1.7119 -14.9027,2.5893 -22.4,1.823 -3.9541,-0.4041 -8.6803,-3.0862 -12.4872,-1.0397 -5.7778,3.1061 -10.1205,11.1156 -14.3809,15.9835 -9.2371,10.5539 -19.0516,20.4715 -29.4519,29.8754 -42.0095,37.9849 -97.1303,68.3242 -155.52,60.8652 -39.5002,-5.046 -78.5316,-24.5031 -103.1848,-56.1806 -17.3986,-22.3558 -27.6118,-49.6333 -32.0855,-77.44 -2.1502,-13.3639 -2.997,-26.7963 -2.9677,-40.32 0.011,-5.0755 -0.722,-12.1728 1.8421,-16.7577 4.1678,-7.4522 20.7589,-11.3326 28.2359,-14.6787 26.2505,-11.7479 52.3478,-25.2488 79.36,-35.1236 m 708.48,17.28 v 22.4 h -23.04 v -0.64 l 23.04,-21.76 m -1448.31996,12.6987 c -36.02195,6.2572 -25.46812,61.6417 10.24,55.2313 35.68172,-6.4058 25.30485,-61.4057 -10.24,-55.2313 m 6.3e-4,6.4305 c 27.30867,-5.7188 37.73625,36.2095 10.23929,42.2972 -27.56586,6.1028 -37.99843,-36.4841 -10.23929,-42.2972 m 2093.08063,92.9154 c -4.8525,0.7488 -10.0472,7.6982 -12.6622,11.4441 -0.9172,1.3139 -3.3063,5.8119 0.1093,5.8284 4.7725,0.023 11.0582,-8.0014 13.4804,-11.5248 1.1156,-1.623 2.9212,-6.3416 -0.9275,-5.7477 m -62.5863,1.8216 c -1.9475,1.1124 -0.035,4.0559 0.8028,5.2145 1.9581,2.7082 10.221,13.1752 14.3472,10.8966 2.1475,-1.1858 0.1128,-4.3875 -0.8328,-5.6291 -1.9831,-2.6037 -10.3713,-12.7356 -14.3172,-10.482 m -896.415,25.0138 c 0.4152,32.2056 2.7959,64.4445 3.7778,96.64 1.7627,57.7987 2.1739,115.5931 1.9786,173.44 -0.075,22.3329 -1.2291,44.954 -3.2562,67.2 -0.521,5.717 0.359,18.9478 -4.6364,22.7739 -3.1969,2.4484 -8.7679,2.0537 -12.5838,2.3693 -9.5937,0.7936 -19.1897,1.3561 -28.8,1.8732 -30.6161,1.6468 -62.5622,2.3206 -92.8,-3.6277 -10.8081,-2.1261 -20.9003,-6.1711 -31.36,-9.4822 -30.8081,-9.7523 -63.3327,-15.045 -95.36,-18.834 -55.4516,-6.5604 -113.0859,-7.8218 -166.4,10.6875 l 3.2622,-112 4.4178,-157.44 c 17.1231,6.564 33.6158,13.275 51.84,16.2931 32.4403,5.3723 65.8738,-1.8156 95.36,-15.5803 13.7184,-6.4041 26.715,-14.2033 39.04,-22.9807 6.4583,-4.5992 13.5831,-12.374 21.76,-13.3578 15.9908,-1.9237 33.1725,-0.2143 49.28,-0.2143 h 97.92 38.4 c 4.5402,0 11.9192,1.3287 15.8266,-1.4733 3.1151,-2.2339 3.7726,-7.2555 4.7476,-10.6871 2.4246,-8.5328 4.395,-17.3131 7.5858,-25.5996 m 945.7603,23.6226 c -1.8978,1.1231 -0.041,4.0539 0.7847,5.2181 1.9794,2.7911 10.1563,13.1739 14.3822,10.893 2.2378,-1.2078 0.1184,-4.5259 -0.8419,-5.8167 -1.9284,-2.5922 -10.3747,-12.632 -14.325,-10.2944 m -35.8634,0.5288 c -4.6635,1.0723 -9.9963,7.9167 -12.5863,11.6489 -1.1493,1.6559 -2.8762,6.1939 0.9547,5.6262 4.9069,-0.7272 10.4988,-8.0861 13.0347,-11.9447 1.1797,-1.7948 2.3978,-6.2045 -1.4031,-5.3304 m -112.4569,211.3686 c -19.2322,21.7656 -50.8537,21.3689 -76.8,14.139 -10.8333,-3.0186 -23.7503,-7.2992 -28.16,-18.619 5.9236,-1.1149 16.9709,-0.6138 21.4756,-4.969 3.4974,-3.3812 1.7168,-10.5879 1.411,-14.871 -0.926,-12.971 -2.3314,-26.0329 -2.4066,-39.04 4.3172,-1.2946 9.0241,-2.7311 12.4114,-5.8565 1.0431,-0.9623 3.6463,-4.3215 0.9016,-5.0056 -3.0683,-0.7647 -7.3424,2.4685 -10.113,3.5025 -7.6542,2.8567 -19.8009,4.7328 -25.9341,-2.1939 -9.2103,-10.4022 -2.5139,-30.2625 -1.5143,-42.2865 0.3634,-4.3721 -2.3249,-9.1705 -0.8108,-13.3564 1.685,-4.6586 6.667,-8.3315 9.597,-12.2496 3.1036,-4.1503 6.2072,-12.825 11.3805,-14.68 3.9945,-1.4323 9.0989,2.4142 12.4017,4.241 10.2939,5.6932 21.1336,11.4107 23.8199,23.885 1.0362,4.812 -1.7941,15.9792 2.1089,19.297 2.4537,2.0858 5.3848,-0.5067 7.0915,-2.2655 4.2197,-4.3484 16.8719,-19.3448 21.195,-6.6976 2.8781,8.42 -2.0836,18.2996 -9.4464,22.5343 -5.4162,3.1152 -12.5015,4.3238 -14.3726,11.3077 -1.7722,6.615 5.9542,14.4664 7.4028,21.1089 2.8765,13.1903 6.8214,26.1416 10.7934,39.0352 1.5713,5.1006 2.6197,12.5689 6.6163,16.397 4.7381,4.5383 14.7615,5.2145 20.9512,6.643 m -898.0703,-143.5233 c -5.8041,3.0145 -9.967,15.8329 -13.4384,21.2833 -9.5679,15.0223 -21.0221,28.7284 -33.3457,41.5548 -35.6375,37.0917 -82.7937,63.7416 -131.6256,79.1445 -13.8761,4.3769 -27.9789,8.0005 -42.2397,10.8827 -1.4908,0.3012 -15.0605,3.3139 -9.357,6.6647 3.6837,2.1642 10.6345,-0.5077 14.4767,-1.2936 13.1527,-2.6906 26.2775,-6.0738 39.04,-10.2438 56.4178,-18.434 108.4683,-49.2183 147.3123,-94.7093 10.3825,-12.1593 19.6552,-25.1382 27.5641,-39.04 1.8664,-3.2807 4.3041,-6.9374 4.8933,-10.7343 0.3239,-2.0876 -0.7238,-4.8367 -3.28,-3.509 m -801.76966,126.8833 -1.77414,39.04 c -0.2257,4.9762 1.33547,10.829 -0.0514,15.6434 -1.33524,4.6351 -7.91383,9.0614 -10.36758,13.8006 -4.61297,8.9097 -12.69664,21.7939 -23.64696,23.1567 -8.49546,1.0572 -15.08273,-5.7689 -20.11062,-11.6511 -1.46367,-1.7123 -5.41016,-7.7961 -8.35195,-6.345 -1.52922,0.7544 -1.29875,11.4685 -2.70539,14.0354 -4.32579,7.8939 -10.75164,15.7314 -11.73571,24.96 -0.89734,8.4154 5.61078,14.0756 5.88407,21.7564 0.10796,3.0353 -2.07313,5.4362 -4.05704,7.47 -4.68062,4.7982 -10.8282,12.3734 -17.16328,14.8782 -4.71203,1.8632 -9.35289,-2.8709 -12.8,-5.4606 -10.06422,-7.5606 -20.08726,-15.18 -30.07906,-22.8362 -3.22523,-2.4714 -10.68805,-6.4036 -8.96227,-11.4374 2.63219,-7.6776 12.97266,-15.2011 18.46633,-21.0104 14.55969,-15.3968 31.07883,-30.4711 43.89032,-47.3541 7.75382,-10.218 -12.3593,-16.6172 -7.25422,-28.0211 3.65062,-8.1548 11.47468,-5.423 15.45289,0.4891 1.02601,1.5246 3.09359,5.6825 5.57203,4.5232 2.97078,-1.3893 1.49195,-7.8018 1.40476,-10.2773 -0.24515,-6.9613 0.16594,-16.308 7.11985,-20.1142 5.79633,-3.1727 14.18359,-1.2222 20.30937,-0.082 13.59789,2.5311 27.04766,7.5936 40.96,4.8363 m 1626.23996,734.7199 8.32,-58.24 c 17.0481,-2.6887 33.9986,-7.7615 50.56,-12.527 11.6309,-3.3467 24.0553,-6.3798 33.92,-13.6756 16.6169,-12.2899 28.6191,-31.2005 36.7513,-49.9574 3.6028,-8.3103 5.7715,-17.5284 9.765,-25.6 6.4428,-13.0223 17.449,-23.41 23.2893,-37.12 5.7616,-13.5253 9.1166,-28.6487 12.6744,-42.88 7.1288,-28.5146 12.4681,-57.2243 16.0416,-86.4 1.7997,-14.6943 2.4656,-29.4375 3.7284,-44.16 0.4328,-5.0475 -0.5512,-10.4057 0.6616,-15.36 1.5978,-6.527 6.0543,-13.0775 8.8681,-19.2 5.3706,-11.6854 10.0947,-23.6842 14.29,-35.84 3.1284,-9.0646 5.9209,-18.2678 8.4381,-27.52 0.9997,-3.6745 1.3166,-9.0373 5.0122,-10.88 -0.2203,-24.919 -3.3266,-50.0768 -5.5862,-74.88 -2.6894,-29.52 -3.5429,-63.4934 -15.8288,-90.8799 -5.7606,-12.841 -14.4034,-22.6535 -23.385,-33.28 14.0388,0.01 27.6588,1.8045 40.96,6.4581 39.8447,13.9398 69.4728,50.1533 76.9222,91.4618 4.2569,23.6041 1.7978,49.0485 1.7978,72.96 v 90.24 c 0,62.9679 6.2641,129.3099 -10.2478,190.72 -25.5456,95.008 -96.2725,175.7289 -189.4322,209.2016 -34.8131,12.5084 -70.6683,17.3584 -107.52,17.3584 m -1498.23996,-384.64 c 35.5623,17.4341 72.54356,38.3564 113.91996,28.488 21.4878,-5.125 40.2909,-16.4028 58.88,-27.848 -2.9977,12.61 -8.0637,24.8311 -12.16,37.12 -2.5159,7.5479 -4.3859,16.4955 -9.1055,23.0182 -7.3251,10.1234 -19.2861,18.495 -29.2945,25.8089 -31.912,23.3204 -70.68166,38.602 -110.71996,35.3323 -20.3352,-1.6606 -39.9816,-7.4525 -58.24,-16.4897 -3.7297,-1.8461 -16.1098,-11.0993 -20.0256,-8.0087 -3.1551,2.4901 0.5126,9.7942 1.466,12.659 3.9464,11.8591 8.7755,23.3797 12.7996,35.2 -16.6231,1.0429 -6.6027,18.9741 0.64,25.6 v 0.64 c -36.42258,0 -73.02101,1.0885 -109.44,0.3816 -26.21375,-0.5087 -52.53593,-2.9487 -78.72,-4.3578 -29.14562,-1.5684 -62.52312,-8.5947 -87.67984,10.1734 -27.23313,20.3172 -31.12039,59.6331 -34.61938,91.0828 -2.37898,21.3828 -2.60711,42.5894 5.81922,62.72 -13.4332,-2.6214 -26.70828,-5.5956 -39.04,-11.7647 -33.71543,-16.8662 -51.79656,-57.715 -42.18898,-94.4753 5.31547,-20.3378 18.52437,-38.0632 24.83922,-58.24 7.99304,-25.5386 11.35336,-52.6639 12.1675,-79.36 0.37476,-12.2882 2.49281,-27.7457 -0.76328,-39.68 -2.33875,-8.5718 -8.03985,-16.8511 -11.71743,-24.96 -6.38976,-14.0892 -11.68371,-28.5996 -15.77476,-43.52 -12.03828,-43.904 -11.86535,-91.2817 5.43488,-133.76 13.40168,-32.9059 32.74004,-56.7514 67.68285,-67.5189 23.94328,-7.3779 49.95836,-11.9226 74.88,-14.401 -4.08711,7.6082 1.94016,11.1476 7.6811,15.5515 11.46914,8.7981 23.08773,17.4019 34.5589,26.1974 3.92406,3.0087 9.95758,9.516 15.36,8.9145 3.54789,-0.395 6.49344,-3.607 8.96,-5.8972 5.12516,-4.7588 10.28438,-9.4948 15.32188,-14.3463 2.38633,-2.2982 5.54625,-5.0828 5.65406,-8.6635 0.18023,-5.9861 -5.9282,-11.271 -6.92711,-17.2525 -0.46344,-2.7754 -0.28219,-6.2407 2.98524,-7.016 3.83117,-0.909 8.61375,0.5363 12.40593,1.198 10.07711,1.7583 19.90649,4.415 29.44,8.14 60.95242,23.8158 78.1125,92.9053 94.4268,149.334 2.3659,8.1832 5.4908,16.1761 9.5313,23.68 2.3343,4.335 6.0488,8.6461 7.506,13.3608 2.2555,7.2978 -12.5023,14.3333 -17.3841,17.5392 -15.06273,9.8921 -30.97195,18.5124 -47.36,25.9972 -6.07593,2.775 -16.4675,5.0333 -18.50711,12.3085 -1.54398,5.5072 -0.29648,12.2297 0.22641,17.8343 1.54305,16.5399 6.16859,32.7913 12.76117,48 2.48219,5.7263 6.44633,18.5683 14.53133,17.1925 11.66312,-1.9846 24.47945,-11.0439 33.8682,-17.8228 28.2167,-20.3731 49.0801,-47.9604 65.92,-78.0897 m -373.12,-222.08 v 0.64 c -27.50336,12.8183 -42.75953,34.2585 -54.43703,61.44 -19.57699,45.5691 -20.15445,96.0461 -6.53937,143.36 3.82875,13.3054 8.51875,26.3796 14.12238,39.04 3.99254,9.0207 10.16785,17.9769 12.7134,27.52 1.41828,5.3171 0.86187,11.1891 0.86047,16.64 -0.009,33.7664 -2.37375,68.8722 -13.02235,101.12 -6.54519,19.8213 -19.23355,37.4635 -24.52926,57.6 -4.11449,15.645 -2.15285,33.2994 2.43977,48.64 8.4268,28.1478 30.11973,47.6014 57.51199,56.9394 10.74125,3.6619 22.89094,4.1033 33.28,8.3122 47.3475,19.1819 100.38524,20.2025 151.04,22.5358 57.62383,2.6542 117.14719,6.1089 174.72,1.1726 -8.9122,28.0638 -10.8235,60.9208 -12.16,90.24 h -141.44 c -36.79312,0 -74.2,2.0897 -110.72,-3.1284 -55.2789,-7.8984 -107.66015,-32.8705 -149.76,-69.3444 -19.50125,-16.895 -36.63668,-36.2503 -51.33125,-57.4472 -17.95078,-25.8939 -31.51355,-54.4722 -41.00305,-84.48 -13.81375,-43.6821 -13.9057,-87.8279 -13.9057,-133.12 v -129.28 -61.44 c 0,-21.7878 0.008,-42.6373 7.78942,-63.36 6.33855,-16.8801 16.78265,-32.9057 29.99316,-45.1909 4.54137,-4.2233 9.9118,-9.6181 15.97742,-11.4942 5.18074,-1.6025 11.28375,-0.1853 16.64,-0.3395 10.1436,-0.2921 20.48942,-1.7408 30.08,-5.1297 9.26766,-3.2747 16.58535,-10.1546 25.6,-13.513 4.7611,-1.7737 10.37047,-1.1326 15.36,-1.1326 10.34953,0 21.16735,-1.3946 30.72,3.1999 m 237.29914,36.5277 c -3.04765,0.01 -1.48203,4.2994 -0.78281,5.7484 2.95774,6.1297 6.98992,11.7613 10.035,17.8839 13.47805,27.0994 19.44719,58.1382 19.02656,88.32 -0.12234,8.7763 -1.12203,17.5029 -1.90531,26.233 -0.17781,1.9814 -0.78117,7.6497 2.52305,7.6394 3.11172,-0.01 3.50781,-5.5261 3.78422,-7.64 1.1582,-8.8591 1.76851,-17.9416 1.97375,-26.8724 0.6789,-29.5451 -5.42407,-60.1382 -17.60953,-87.04 -2.99094,-6.6029 -6.43969,-13.2671 -10.70657,-19.1457 -1.39547,-1.9225 -3.63406,-5.1339 -6.33836,-5.1266 m 713.10082,21.0723 12.2939,229.76 4.9861,97.92 h -104.32 c 9.1523,-31.7484 21.1469,-62.279 28.1245,-94.72 4.0614,-18.8826 6.4775,-38.0592 10.4402,-56.96 8.2678,-39.435 18.5326,-78.485 29.9512,-117.12 5.7385,-19.4157 10.2289,-40.3864 18.5241,-58.88 m -911.83425,10.1863 c -4.00899,2.3208 0.21445,13.4162 1.05039,16.6937 4.26461,16.7197 10.07328,32.9777 17.30968,48.64 23.64993,51.1874 67.275,92.2282 124.19422,101.3464 11.96547,1.9169 24.37141,2.8783 36.48,2.1193 3.65586,-0.2293 10.095,0.3723 12.95969,-2.3496 3.84945,-3.6575 -4.79156,-4.4064 -6.56836,-4.3357 -11.15344,0.4437 -22.13898,0.7695 -33.27133,-0.3972 -59.62836,-6.2489 -103.48758,-47.6499 -128.41578,-100.2232 -7.3818,-15.5681 -12.95281,-31.9301 -17.09789,-48.64 -0.53367,-2.1514 -2.31625,-15.3571 -6.64062,-12.8537 m 401.75425,9.6537 c -1.2348,7.5588 -3.70596,14.8074 -8.16656,21.1085 -2.609,3.6855 -7.9871,7.174 -8.9525,11.7337 -0.9851,4.6527 2.2425,10.5368 2.9961,15.1578 1.8764,11.5047 0.4482,23.7344 -6.7057,33.2407 -5.1812,6.885 -13.1104,11.8212 -20.7713,15.542 -4.4292,2.1513 -10.7056,2.9738 -13.6191,7.2942 -5.7792,8.5702 -8.4725,20.3466 -13.1075,29.6831 -9.9031,19.9488 -21.9214,38.9071 -36.6229,55.68 -13.0065,14.8393 -28.2257,27.5786 -45.4505,37.2385 -4.26304,2.3908 -13.47461,9.0129 -18.49922,6.1075 -4.5475,-2.6296 -6.64625,-10.6219 -8.5289,-15.186 -5.73235,-13.8962 -9.3325,-28.5545 -10.72578,-43.52 -0.43102,-4.63 -2,-11.7654 0.82734,-15.8856 4.41789,-6.4381 19.13422,-9.94 26.04656,-13.3947 18.66742,-9.3295 36.5795,-20.0092 53.12,-32.7773 13.9016,-10.7311 26.7824,-23.0989 37.3676,-37.1424 5.4459,-7.2251 9.1195,-15.9551 14.9887,-22.7832 16.097,-18.7272 36.9497,-36.1568 55.80366,-52.0968 m 1137.92,227.2 c 62.0039,-48.3234 89.3013,-124.869 109.44,-197.76 8.5188,4.3179 16.6825,9.3196 24.9594,14.0768 3.5715,2.0528 8.8172,4.1412 10.5964,8.1504 1.9741,4.4485 0.4716,10.8528 0.083,15.5328 -1.0526,12.6915 -2.9128,25.2804 -5.4358,37.76 -8.8423,43.7375 -27.7014,85.2186 -56.2054,119.68 -9.1803,11.0991 -19.8344,24.5982 -32.238,32.2091 -7.8331,4.8066 -21.2083,2.3772 -30.0789,2.3484 -3.3262,-0.011 -7.6741,0.441 -10.1964,-2.1981 -6.1614,-6.4465 -8.5259,-21.3581 -10.9247,-29.7994 m 516.48,-176 c -18.4331,93.5458 -82.1247,177.7524 -170.24,214.9825 -44.7225,18.896 -90.1458,23.9918 -137.6,30.7775 1.1767,-15.2328 -17.6334,-10.88 -28.16,-10.88 v -1.28 c 18.2467,-0.8568 24.8225,-15.1278 17.92,-30.72 17.2328,-7.1923 34.9031,-13.0803 51.84,-21.0418 48.2122,-22.6633 92.9295,-53.0343 127.2881,-94.1582 17.8553,-21.371 32.6891,-45.3725 43.5344,-71.04 3.2813,-7.7659 6.2675,-15.6628 8.8813,-23.6787 0.9678,-2.9684 1.7375,-7.9391 4.8112,-9.5277 5.2322,-2.7042 16.7631,2.2016 22.205,3.4108 19.83,4.4064 39.6238,9.0597 59.52,13.1556 m -313.6,241.28 c -2.0881,7.8763 -7.0295,14.6791 -15.3612,16.6119 -8.6219,2 -18.7083,0.6681 -27.5188,0.6681 h -52.4796 -232.96 -64.64 c -9.0781,0 -21.0691,2.0058 -29.4206,-2.1778 -9.0885,-4.5525 -10.3972,-13.3565 -12.925,-22.1422 -2.8525,-9.914 -6.4541,-19.6509 -9.7066,-29.44 -16.3503,-49.21 -32.0295,-98.6451 -48.4278,-147.84 -4.6159,-13.8479 -8.8294,-27.8415 -13.7083,-41.6 -2.0787,-5.8621 -5.2614,-12.8001 0.1361,-17.9235 4.3483,-4.1275 11.2702,-3.196 16.7722,-3.1965 h 39.68 110.72 c 18.3381,0 38.145,-2.1262 56.32,0.3169 12.1934,1.6391 16.5991,11.7288 20.0531,22.0831 4.206,12.6085 8.5971,25.1507 12.8002,37.76 14.3197,42.9593 29.0041,85.8125 43.713,128.64 4.2437,12.3564 8.3961,24.7493 12.5967,37.12 1.91,5.6247 3.1186,13.325 6.8862,18.0274 3.1071,3.878 8.9713,3.0898 13.3908,3.0923 l 33.92,3e-4 h 140.16 m -1036.8,-1.92 h -240.64 c 4.438,-18.6656 12.2526,-36.8518 18.3448,-55.04 13.021,-38.8729 26.4495,-77.6071 39.4704,-116.48 4.7208,-14.0937 9.408,-28.2368 14.3908,-42.24 2.5199,-7.0815 4.3448,-14.6064 11.0656,-18.9212 9.5112,-6.1064 24.327,-3.4788 35.1284,-3.4788 h 81.28 85.12 c 8.0138,0 24.4209,-3.1984 28.5153,5.914 2.6083,5.805 -1.4383,12.932 -3.3211,18.406 -4.8928,14.2254 -9.3434,28.6075 -14.1009,42.88 -18.6822,56.0464 -39.1056,112.135 -55.2533,168.96 m 674.5625,-141.3557 c -21.5539,2.965 -14.517,39.6543 6.395,36.5506 21.4005,-3.1763 14.2434,-39.3897 -6.395,-36.5506 m -751.3611,7.0726 c -19.6366,4.8369 -17.0481,40.0727 4.4772,35.1706 20.0442,-4.5646 17.0481,-40.4728 -4.4772,-35.1706 m -145.9214,61.3231 c -4.9123,17.2736 -11.4638,34.2046 -17.2654,51.2 -1.8526,5.4272 -3.2448,16.0491 -8.0418,19.6466 -3.2987,2.4741 -9.2297,1.4731 -13.0928,1.4734 h -32 -124.15996 l -14.72,-40.32 c 16.248,7.9244 32.1595,15.4989 49.92,19.5138 39.9674,9.0347 81.33856,0.3378 116.47996,-20.0188 15.5413,-9.0025 28.7739,-20.5345 42.88,-31.495 m -493.44183,8.9083 c -6.14922,1.3927 6.38898,10.2886 7.68383,11.1589 11.74492,7.8928 24.56054,14.2121 37.75804,19.2805 45.47485,17.4642 95.36657,19.1606 142.72,8.9914 10.59383,-2.275 21.04235,-5.1787 31.36,-8.4855 3.81352,-1.2222 9.6186,-2.3286 12.31969,-5.5311 3.74406,-4.439 -4.535,-3.729 -6.56836,-3.134 -9.85086,2.8828 -19.45531,6.3833 -29.43133,8.8789 -47.22304,11.8134 -96.56461,11.4484 -142.72,-4.6864 -13.13414,-4.5916 -25.94304,-10.7538 -37.76,-18.0964 -3.63914,-2.2613 -10.77054,-9.4161 -15.36187,-8.3763 m 1687.04183,2.2129 c 5.8852,0.106 11.6014,4.3096 16.64,6.9514 11.0122,5.7738 22.4589,11.0991 33.2488,17.2497 4.482,2.5549 8.3954,6.6908 8.9534,12.0378 1.2734,12.2032 -11.6059,12.6741 -19.8022,15.1535 -8.2589,2.4981 -14.0825,6.1311 -23.04,5.9262 -14.2167,-0.3248 -26.9489,-8.5837 -40.96,-9.4078 -12.5906,-0.7403 -25.5073,4.5767 -38.4,4.2916 -5.2716,-0.1167 -12.1081,-0.6025 -15.7398,-5.0017 -6.4457,-7.8077 6.3095,-16.2886 11.8998,-19.6933 14.8241,-9.0278 31.2508,-14.2719 47.36,-20.3814 6.2628,-2.3753 12.9308,-7.2503 19.84,-7.126 m 293.76,73.9989 c 6.8506,34.603 -2.9619,71.1407 -19.4712,101.76 -7.4772,13.8675 -17.1282,27.8707 -30.4488,36.7141 -8.5922,5.7042 -19.0062,8.2369 -28.8,11.0931 -16.2687,4.7447 -32.6792,8.9347 -49.28,12.3528 2.6011,-30.7872 9.1158,-61.5918 13.6191,-92.16 2.1248,-14.4231 6.8298,-29.6712 -1.7971,-42.8759 -13.6498,-20.8934 -38.7762,-21.7641 -61.102,-21.7641 h -51.2 c 8.2633,-8.9575 28.1838,-6.7165 39.68,-8.2468 30.2272,-4.0238 60.2503,-10.456 88.96,-20.8625 8.8884,-3.2219 17.6681,-6.7925 26.24,-10.7813 3.7753,-1.7569 8.4603,-4.7881 12.8,-3.7322 3.9697,0.966 7.3594,4.5282 10.1925,7.27 7.3584,7.1214 13.6678,15.4394 18.955,24.1928 3.23,5.3477 6.615,13.6618 13.7516,14.4243 6.3115,0.6743 12.5015,-4.8149 17.9009,-7.3843 m -380.16,-37.12 c -2.2017,9.6388 2.5327,16.2716 11.52,19.84 v 0.64 l -29.44,-1e-4 c -3.743,0 -9.3005,0.8697 -12.3534,-1.8152 -4.401,-3.8703 -5.6944,-13.2722 -7.4866,-18.6647 h 37.76 m 73.6,19.84 v 0.64 h -30.72 c 11.1594,-3.1084 19.5219,-3.3632 30.72,-0.64 m -959.36,11.52 c -1.0934,7.7088 -5.5048,14.1043 -13.4409,15.9343 -7.301,1.6836 -15.5907,0.7057 -23.0391,0.7057 h -42.88 -256.63996 -49.28 c -8.4963,0 -17.8755,1.0872 -26.2395,-0.5706 -8.5161,-1.6878 -13.1985,-8.4715 -14.0805,-16.7094 l 425.59996,0.64 m 1091.84,344.96 c -10.1594,0.4291 -17.4758,4.1833 -21.12,14.08 -17.9764,0 -37.5856,-2.2915 -55.04,2.56 5.1436,-70.0553 13.9708,-140.0229 20.9602,-209.92 l 4.544,-44.8 c 1.0777,-10.7865 2.1313,-20.4918 -7.0448,-28.2375 -8.9117,-7.5228 -20.2322,-7.6017 -31.2594,-7.6025 h -43.52 -194.56 -764.8 -211.2 -38.4 c -15.8879,0 -32.2759,0.3122 -44.6437,11.8724 -14.25066,13.3201 -9.0725,31.762 -7.3561,48.9276 l 11.839,117.76 c 10.8738,108.1588 21.7683,216.315 32.5767,324.48 l 10.6882,106.24 c 1.8219,18.2322 4.7397,36.7228 5.2159,55.04 h -67.83996 c -25.0592,-177.0469 -52.9442,-353.7618 -79.702,-530.56 -6.5208,-43.0851 -13.0387,-86.1731 -19.4132,-129.28 -2.0863,-14.1078 -10.1935,-36.0753 0.9089,-47.8109 6.7153,-7.0981 16.9939,-5.3091 25.8863,-5.3091 h 62.72 255.35996 c 16.0061,0 32.712,1.3729 48.64,-0.2187 8.1134,-0.8106 14.6047,-4.8805 23.04,-4.8994 199.4525,-0.4484 398.9489,-0.8537 598.4,0 7.3483,0.032 14.4245,1.8385 21.76,1.9047 66.548,0.6019 133.1291,0.011 199.68,0.011 61.8595,0 123.7428,0.5072 185.6,-0.01 13.2178,-0.1105 26.3463,-1.9099 39.68,-1.9099 h 40.32 c 16.0306,0 32.7584,0.3647 45.3197,11.8857 11.8345,10.8547 9.6284,23.7418 7.5272,38.0343 -2.2594,15.3685 -4.682,30.7124 -6.946,46.08 -5.9109,40.1241 -11.9675,80.2344 -18.1337,120.32 -2.9009,18.8582 -4.5731,38.3077 -8.6813,56.9382 -1.7834,8.0878 -9.6154,13.2554 -13.3146,20.5018 -5.1563,10.1005 -6.1497,22.8117 -7.6913,33.92 m -725.76,-267.52 c -4.0995,15.6547 -16.3356,31.1624 -23.9758,45.44 -14.2836,26.6925 -27.4414,54.8296 -36.2728,83.84 -3.262,10.7153 -5.8922,21.4944 -7.1953,32.6352 -0.1839,1.5726 -0.8878,10.4301 -4.4778,7.8483 -2.7358,-1.9675 -1.551,-8.2647 -1.2674,-11.0436 1.0624,-10.4085 3.6154,-20.7389 6.695,-30.7199 10.605,-34.37 26.463,-67.1034 43.7522,-98.56 4.9736,-9.049 11.2444,-28.0651 22.7419,-29.44 m 398.72,0 v 0.64 c -29.2222,23.5344 -42.0266,54.7508 -56.0814,88.32 -13.4108,32.0311 -26.928,64.0203 -40.4611,96 -6.8939,16.2908 -12.6661,33.7882 -21.2175,49.28 -12.4095,-23.0779 -22.7737,-47.5003 -32.825,-71.68 -21.6752,-52.1428 -38.855,-105.6854 -38.855,-162.56 h 189.44 m 262.4,104.96 c -45.0984,5.1788 -97.0744,-8.6903 -134.3998,24.0478 -17.1285,15.0235 -25.9363,34.1291 -36.0089,54.0322 -7.4822,14.7847 -15.6891,29.2816 -24.1599,43.52 -32.4698,54.5777 -70.2083,106.6903 -115.1914,151.68 -19.4766,19.4794 -39.5517,38.1455 -61.44,54.9228 -6.0209,4.6152 -16.2659,15.5569 -24.32,15.341 -5.827,-0.1561 -12.363,-5.5016 -17.28,-8.2857 -12.6125,-7.1415 -25.4086,-14.074 -37.76,-21.6581 10.8411,-31.7531 26.0377,-62.495 39.0106,-93.44 26.4038,-62.9817 52.9825,-125.8923 79.5627,-188.8 8.2881,-19.6156 16.4783,-39.2729 24.7867,-58.88 11.4219,-26.9543 23.1764,-52.2057 46.72,-70.9212 14.7088,-11.6925 40.9664,-6.5188 58.88,-6.5188 h 145.92 c 12.3733,0 24.7467,-0.027 37.12,0 8.6386,0.021 17.7509,0.751 23.7286,7.8739 6.1348,7.3102 2.8936,18.7 2.0313,27.3239 -2.3219,23.2194 -3.955,46.651 -7.1999,69.76 m -1191.04,-72.96 c 47.9353,29.9675 81.5961,77.7663 93.2734,133.12 2.636,12.495 3.7005,25.0246 4.1464,37.76 0.2861,8.171 -1.8184,16.3263 -10.3925,19.3561 -5.5814,1.9724 -23.7435,3.7558 -27.4048,-1.9687 -3.6953,-5.7778 -4.6284,-14.6682 -6.5025,-21.2274 -4.2709,-14.9476 -8.505,-29.9061 -12.9611,-44.8 -7.8249,-26.1534 -15.7576,-52.3406 -24.8697,-78.08 -4.9469,-13.9737 -13.3621,-29.479 -15.2892,-44.16 m 1523.84,29.44 -5.76,220.16 c -4.0869,-10e-5 -9.7406,0.9197 -13.4319,-1.175 -2.8797,-1.634 -4.3965,-5.1575 -6.7331,-7.4217 -3.8675,-3.7478 -8.5562,-4.9639 -13.755,-5.4833 1.1506,-10.9011 5.1766,-22.2893 3.2575,-33.28 -1.3478,-7.7187 -7.4047,-13.4022 -8.3306,-21.12 -2.5891,-21.5847 -2.6522,-44.1875 -3.2244,-65.92 -0.2528,-9.6053 -1.0594,-19.195 -1.2953,-28.8 -0.095,-3.8818 -1.1319,-8.8065 0.5734,-12.4414 2.866,-6.1089 11.6441,-10.5783 16.6994,-14.7861 11.225,-9.3432 20.9194,-20.269 32,-29.7325 m -55.68,48 4.48,103.68 -10.0019,-4.4022 -11.125,-8.8779 -26.8731,-0.7999 h -53.12 c 0.4975,-10.9 1.8578,-21.7764 2.8506,-32.64 0.376,-4.1143 -0.1265,-10.3601 2.4922,-13.8078 2.0675,-2.722 6.3016,-3.4129 9.3791,-4.3394 6.9203,-2.0831 13.7181,-4.4704 20.4781,-7.0251 21.9428,-8.2927 41.1775,-20.2624 61.44,-31.7877 m -277.76,1.92 c -0.6037,10.258 -1.8856,20.4969 -2.9122,30.7199 -0.3303,3.2897 0.036,8.9533 -2.7211,11.3267 -2.6487,2.28 -7.7887,1.4712 -11.0068,1.4731 l -26.2399,3e-4 h -105.6 c 11.383,-18.229 28.4442,-32.3536 49.28,-38.3309 15.2019,-4.3609 31.0858,-3.2691 46.72,-3.2691 17.5216,0 34.9911,-0.9151 52.48,-1.92 m -437.76,0.64 15.36,42.88 c -21.6909,-1.482 -18.8917,-27.1025 -15.36,-42.88 m -1427.83996,17.28 c 9.59379,11.2314 20.67383,21.3874 32,30.8421 4.98094,4.1579 13.84442,8.6086 16.34981,14.8518 2.77261,6.9093 0.09,18.018 -0.24153,25.3461 -0.85871,18.9841 -1.8409,37.9716 -2.58679,56.96 -2.71391,69.0888 -5.22082,138.3485 -9.4684,207.36 -1.63938,26.6356 -2.18641,53.3488 -3.55239,80 -0.34988,6.8263 -0.7116,13.651 -1.03378,20.4788 -0.13852,2.9356 0.31578,6.8103 -1.58028,9.2959 -3.38051,4.4316 -13.88883,4.7784 -19.00664,5.4253 l -7.72515,-312.32 -2.52946,-97.28 -0.62539,-40.96 m 2044.79996,23.68 -4.48,46.08 h -51.2 l 1.28,-38.4 c 18.3467,-0.4712 36.4834,-3.994 54.4,-7.68 m -60.8,8.32 c -0.2228,8.7146 -0.3545,17.5446 -0.9384,26.24 -0.2508,3.7336 0.1668,8.2908 -1.8094,11.6207 -5.1966,8.7559 -14.0241,11.3287 -22.8522,14.6193 l 7.68,-52.48 h 17.92 m -531.2,16 c 5.5081,15.0675 12.7936,29.7044 19.7277,44.16 3.0656,6.391 8.97,14.4767 9.0189,21.76 0.035,5.1838 -3.2939,10.691 -5.263,15.36 -4.2241,10.0163 -8.5036,20.0121 -12.6036,30.08 h -0.64 c -3.1777,-23.3295 -4.6697,-46.9715 -7.0081,-70.4 -1.3041,-13.0653 -4.76,-27.8953 -3.2319,-40.96 m 234.24,35.2 -4.48,194.56 -5.12,-0.64 c -3.3609,-11.3743 -9.9675,-23.3506 -11.3233,-35.1489 -0.6272,-5.4573 5.0936,-8.2694 5.2585,-13.5265 0.3148,-10.0383 -5.5897,-22.3186 -8.2471,-31.9646 -3.1764,-11.53 -6.4151,-23.0428 -9.6372,-34.56 -1.4682,-5.2479 -4.3957,-11.7653 -3.3553,-17.28 1.4008,-7.4248 8.3636,-14.844 12.3493,-21.12 8.4246,-13.2656 15.8028,-27.285 24.5551,-40.32 m 284.16,3.84 -1.28,7.68 c -20.0083,6.8716 -24.0322,24.2433 -26.88,42.88 h -5.76 c 2.5488,-22.4275 8.0022,-46.0614 33.92,-50.56 m 181.76,50.56 h -5.76 c 1.4597,-9.5465 4.915,-20.1068 0.9463,-29.439 -3.5819,-8.4228 -12.9607,-11.2507 -12.4663,-21.121 2.8919,0.345 5.6597,0.851 8.3181,2.1022 19.1238,8.9997 11.8291,32.3953 8.9619,48.4578 m -1998.07996,-45.44 c 17.26485,4.6997 35.86875,7.3497 53.76,7.68 0,146.1469 13.44,292.2522 13.44,438.4 l -26.88,1.92 c -12.02117,-99.8353 -18.61828,-200.6556 -27.75219,-300.8 l -9.01851,-98.56 c -1.40203,-15.3481 -5.82703,-33.3603 -3.5493,-48.64 m 593.27996,8.32 -3.2,28.8 h -0.64 l -7.04,-28.8 h 10.88 m 1392.64,37.76 c -5.1997,0.2983 -10.3003,1.1128 -14.4187,4.5838 -3.5066,2.9554 -5.1807,8.3515 -10.0972,9.2131 -8.2757,1.45 -17.6528,0.2831 -26.0441,0.2831 h -51.2 l 3.84,-43.52 h 58.88 c 11.7556,0 22.1303,1.0053 30.72,-8.32 15.5947,7.7064 10.8025,23.8522 8.32,37.76 m -159.36,-30.08 -1.28,44.16 h -12.8 c -2.7147,-8.4628 -8.7016,-12.7037 -17.28,-14.08 1.3161,-10.9381 2.4997,-34.309 17.6972,-35.6687 4.4058,-0.3944 9.1689,4.6406 13.6628,5.5887 m 55.04,0.64 -3.84,43.52 h -46.08 l 1.28,-43.52 h 48.64 m -391.68,43.52 c 4.1863,17.846 9.633,35.4838 14.6252,53.12 1.7718,6.2597 6.684,16.3199 5.1225,22.81 -1.6816,6.9889 -13.7603,13.2582 -19.1077,17.4336 -18.3391,14.3202 -36.2031,30.2192 -55.68,42.9564 l -16.8862,-26.88 -5.6494,-12.16 5.3928,-8.96 15.0612,-16.64 36.8758,-45.44 20.2458,-26.24 m -476.8,3.2 c -0.016,6.906 0.9586,16.4935 -1.7527,22.9305 -2.7457,6.5191 -9.6967,11.8702 -14.047,17.3895 -2.8875,3.6635 -6.4389,11.0639 -11.3672,12.1752 -5.3725,1.2114 -13.4339,-4.1045 -18.2731,-6.1224 -4.4547,-1.8575 -12.2197,-3.6142 -14.8306,-8.0409 -1.6813,-2.8503 -1.4266,-6.9741 -1.656,-10.1723 -0.5195,-7.2446 -1.1836,-14.5002 -1.4334,-21.7596 21.3441,-0.1875 42.4002,-2.5064 63.36,-6.4 m 1036.8,2.56 c -6.0231,10.7903 -7.4031,23.2372 -9.8675,35.2 -3.9997,19.4141 -8.0794,38.8132 -12.0169,58.24 -13.0206,64.243 -26.0984,128.4925 -39.5825,192.64 -6.6625,31.695 -23.4575,70.84 7.0669,94.72 -10.5381,1.7988 -21.9722,0.64 -32.64,0.64 h -58.88 -184.32 -64.64 c -12.2759,0 -24.6261,1.1385 -35.1736,-6.374 -26.7842,-19.0766 -9.1595,-60.5688 -3.7594,-86.426 13.9807,-66.9434 27.1782,-134.0528 41.3308,-200.96 5.6506,-26.7134 6.2352,-61.599 30.8825,-78.5226 14.0241,-9.6294 29.811,-9.1574 46.0797,-9.1574 h 58.88 256.64 m 12.8031,0.5188 c 8.4632,-1.7319 24.4807,-2.5922 30.766,4.3126 4.5203,4.9658 4.1412,12.5683 4.6697,18.8486 1.1665,13.8632 2.3115,27.731 3.4062,41.6 5.9794,75.7456 12.1481,151.486 18.5163,227.2 1.1659,13.8644 2.275,27.7335 3.4125,41.6 0.664,8.0966 2.2515,16.8947 0.7493,24.96 -1.9153,10.2838 -10.4115,19.1206 -20.5631,21.571 -9.8028,2.3662 -21.3269,0.829 -31.36,0.829 h -39.04 c -18.2462,0 -36.2647,-0.093 -46.0634,-18.5603 -5.9319,-11.1794 -3.6588,-22.7772 -1.2963,-34.5597 2.3547,-11.7422 4.7463,-23.4875 7.2453,-35.2 11.9053,-55.7937 23.2472,-111.7475 34.4832,-167.68 6.3481,-31.5997 12.9268,-63.16 19.4709,-94.72 2.1819,-10.5215 2.5447,-27.529 15.6034,-30.2012 m -1309.4431,3.9657 v 35.84 h -0.64 c -6.9805,-10.2406 -28.0473,-9.5867 -37.5694,-2.3697 -4.5261,3.4307 -7.0375,9.0744 -9.7906,13.8897 h -0.64 l -4.48,-44.8 53.12,-2.56 m 1024.64,152.32 c -2.8384,10.3949 -12.2931,29.3681 -6.1731,39.5319 4.128,6.8559 11.9508,6.5434 18.9731,6.5478 l 44.16,3e-4 c 7.1058,0 15.0408,0.9144 20.9158,-3.9069 7.9811,-6.549 9.013,-20.5381 11.2336,-30.0128 1.2084,-5.1559 2.0206,-11.1711 8.2519,-11.9607 10.35,-1.3118 21.489,-0.1996 31.9187,-0.1996 h 61.44 c 12.8581,0 28.9653,2.7992 38.4959,-7.9036 7.1188,-7.9943 8.1407,-21.0751 10.525,-31.1364 5.3585,-22.6122 10.771,-45.2129 16.066,-67.84 1.8847,-8.054 4.3159,-16.1397 5.6437,-24.305 0.2807,-1.7259 0.6722,-8.3397 -3.0053,-6.4689 -2.6647,1.3558 -3.2028,5.8106 -3.8269,8.3766 -1.8128,7.4548 -3.5734,14.9258 -5.3159,22.3973 -5.5275,23.6997 -11.3081,47.3402 -16.8337,71.04 -2.3,9.865 -3.46,22.4122 -13.6091,27.5106 -6.6638,3.3475 -15.7875,1.9294 -23.0197,1.9294 h -48 -173.44 -60.16 c -4.6541,0 -17.05,-2.1356 -20.2322,2.0878 -2.0889,2.7724 2.4505,3.9738 4.3086,4.1588 6.4931,0.6465 13.2425,0.1534 19.7636,0.1534 h 81.92 m 292.9666,-137.6539 c -4.7407,2.5058 -2.4066,17.3241 -2.4066,21.8139 v 66.56 152.96 41.6 c 0,5.515 1.4709,13.7063 -1.1756,18.7328 -2.5188,4.7838 -9.7041,7.4285 -14.1844,9.9653 -11.2162,6.351 -23.9997,11.9485 -34.2528,19.7732 -3.3097,2.5256 -3.5219,7.1172 1.71,5.6431 13.2953,-3.7463 26.9631,-14.72 38.9428,-21.5659 4.4863,-2.5635 11.6053,-5.1794 14.1413,-9.9757 2.6687,-5.0481 1.2187,-13.194 1.2187,-18.7328 v -43.52 -158.72 -65.28 c 0,-5.1525 0.6022,-10.7601 -0.3066,-15.8484 -0.2971,-1.6647 -1.4531,-4.5863 -3.6868,-3.4055 m -1125.6066,21.8139 c 10.3422,3.9922 20.5097,8.4828 30.72,12.7994 3.7577,1.5884 9.0136,4.7366 13.1425,2.8425 4.2583,-1.9534 7.0213,-7.5597 9.7114,-11.162 5.4397,-7.2846 11.2195,-14.6967 18.1283,-20.6552 4.9097,-4.2342 10.6931,-8.0583 17.2578,-5.1895 8.0006,3.4962 14.7972,10.7295 21.12,16.5572 11.9403,11.005 23.4538,22.4679 35.84,32.9848 22.488,19.0944 48.3105,33.0678 69.0709,54.385 6.9996,7.1872 18.7685,18.9369 17.4258,30.0716 -1.4279,11.8415 -19.8431,18.9118 -29.5367,22.1425 -33.5792,11.19 -66.4291,2.9347 -99.84,-4.2386 -25.2273,-5.4164 -50.3825,-11.1953 -75.52,-17.0117 -10.1889,-2.3575 -24.0195,-3.2218 -30.9552,-12.0243 -6.2948,-7.9892 -4.5839,-20.9326 -3.9467,-30.4617 1.5917,-23.802 3.2319,-47.5053 7.3819,-71.04 m -186.24,9.6 h 0.64 c 6.5956,35.0219 11.2845,70.4438 17.1195,105.6 2.0824,12.5463 8.8902,31.6213 2.5508,43.5 -5.6894,10.6613 -17.27,11.4231 -27.9903,12.46 -24.0206,2.3231 -48.2958,2.3569 -72.32,0.062 -10.2367,-0.9778 -21.8945,-1.2825 -28.3094,-10.6513 -7.9729,-11.6447 -0.033,-29.9028 3.1439,-42.1703 6.5591,-25.3309 13.4175,-50.5908 23.2544,-74.88 5.0822,-12.5489 10.8005,-26.2322 19.8311,-36.48 1.2309,3.2061 3.2116,12.3371 7.687,12.326 5.2602,-0.013 8.8116,-11.7 11.6327,-15.1491 4.4712,-5.4666 19.3256,-7.6262 25.9566,-5.8 8.8603,2.4406 3.5242,15.6688 10.3042,19.0752 3.8047,1.9117 5.7618,-5.5997 6.4995,-7.8921 m 310.8166,13.8033 c -3.6064,0.9692 -6.6866,4.4349 -9.3766,6.8417 -5.9816,5.3516 -12.0702,10.6435 -17.855,16.2075 -1.07,1.0291 -8.3825,9.1057 -2.812,8.9913 3.6731,-0.075 7.2726,-4.2188 9.787,-6.4703 6.9108,-6.1889 14.6447,-12.1522 20.7984,-19.1013 1.5475,-1.7475 4.6005,-7.8508 -0.5418,-6.4689 m 434.7834,20.1167 c 4.4077,11.4925 11.9495,26.6944 12.4363,39.04 0.4606,11.6827 -5.3046,24.5325 -6.0363,36.48 -7.7055,0.5485 -20.0033,3.1969 -27.2661,0.3375 -4.4423,-1.749 -7.3615,-6.9262 -10.0848,-10.5781 -6.4707,-8.6772 -13.9482,-17.2661 -18.9691,-26.8794 l 49.92,-38.4 m -553.6152,40.09 c -6.182,2.1356 5.5821,7.3747 7.0579,7.941 11.8064,4.5287 23.7807,8.6968 35.8373,12.5093 38.1544,12.065 78.1441,22.2189 118.4,22.0138 16.1744,-0.082 37.717,-2.1274 50.2834,-13.5475 1.4511,-1.3188 5.0325,-6.6455 0.5157,-6.4485 -4.7786,0.2088 -10.0014,5.2374 -14.3191,7.1663 -8.2123,3.6691 -17.3236,5.3203 -26.24,6.1034 -39.1603,3.4396 -79.9455,-7.4042 -117.12,-18.5365 -13.1453,-3.9364 -26.1537,-8.3163 -39.04,-13.0303 -4.0203,-1.4707 -11.0239,-5.6739 -15.3752,-4.171 m -226.5448,5.0077 c -4.697,0.3129 -9.3769,0.2846 -14.08,0.3738 -5.365,0.1016 -11.2464,0.01 -16.5372,0.8866 -1.7142,0.2856 -5.304,1.5864 -3.9526,4.0165 1.2198,2.1938 4.9581,2.0083 7.0607,1.9666 6.5891,-0.1306 13.2435,-0.3222 19.8291,-0.6111 5.8464,-0.2564 20.0338,1.8076 24.4797,-2.4117 2.0608,-1.9557 -0.3944,-3.7069 -2.3031,-4.1341 -4.5657,-1.0216 -9.8705,-0.3947 -14.4966,-0.087 m 634.24,9.3019 2.6222,76.8 3.1378,96 -26.24,0.64 -10.0212,-104.32 -2.7483,-28.16 -0.05,-13.859 10.9001,-9.9282 22.3997,-17.1728 m -53.76,24.32 c -10.4441,12.2263 -22.5548,23.195 -33.92,34.56 -5.2612,5.2613 -10.8394,12.7938 -17.92,15.6188 -8.7909,3.5081 -27.6266,-3.296 -27.8442,-14.34 -0.1177,-5.9675 6.9317,-12.7082 10.1983,-17.2788 9.7367,-13.6242 19.814,-27.0694 29.1659,-40.96 l 40.32,22.4 m 558.72,-6.4 c -1.8281,7.9206 -3.8584,15.7969 -5.8412,23.68 -1.1204,4.4544 -2.023,9.5606 -5.5269,12.8419 -4.3814,4.1034 -11.2713,3.1575 -16.7919,3.1581 h -40.32 c -5.0347,0 -13.1892,1.4156 -17.0287,-2.6659 -4.2816,-4.5516 -0.575,-12.7519 0.8371,-17.8141 1.3894,-4.9803 2.128,-13.6661 5.9868,-17.3847 2.6168,-2.5218 7.535,-1.8112 10.8453,-1.8147 l 28.1595,-6e-4 h 39.68 m -297.5478,3.6281 c 5.7664,-1.554 -0.3755,9.82 -1.1133,11.0921 -6.8611,11.8273 -14.0481,23.4751 -21.083,35.1998 -11.0664,18.4441 -21.35,45.3169 -40.5759,56.5188 -13.0848,7.624 -30.1212,7.9518 -44.8,10.1465 -8.195,1.2253 -19.6372,5.1691 -27.8126,3.5572 -7.5068,-1.4797 3.106,-5.9697 5.4176,-6.3556 12.5475,-2.0953 25.1703,-3.8503 37.755,-5.7116 10.4053,-1.539 20.7416,-2.9009 29.4156,-9.3781 13.3207,-9.9472 20.9469,-28.3944 29.3364,-42.3772 7.7968,-12.9947 15.4991,-26.045 23.296,-39.04 2.2373,-3.7287 5.5525,-12.4092 10.1642,-13.6519 m -1034.2922,11.7319 12.8,33.92 23.68,-6.4 c -1.7528,11.2525 -0.5506,24.4328 -4.2728,35.2 -3.3972,9.8269 -12.2927,15.7869 -13.3045,26.88 -1.0432,11.4378 7.6237,20.3625 7.9303,31.36 0.2704,9.7028 -1.6586,19.7906 -2.6064,29.44 -1.9064,19.4088 -3.9296,38.8156 -5.6666,58.24 l -26.24,-0.64 4.4349,-131.2 1.7519,-54.4 1.4932,-22.4 m 234.6133,9.3731 c -8.7966,-1.0434 -20.2988,3.6572 -29.1733,4.8172 -18.9422,2.476 -37.9495,3.2141 -56.96,1.0894 -5.8542,-0.6544 -11.93,-2.4331 -17.8039,-2.4916 -1.9616,-0.02 -5.5497,1.0882 -3.7083,3.7029 3.8181,5.4221 19.3722,5.0115 25.3522,5.5359 21.3481,1.8719 42.887,0.61 64,-3.0209 5.7952,-0.9969 12.2839,-1.6854 17.7366,-3.9735 2.889,-1.2122 5.2039,-5.1081 0.5567,-5.6594 m -136.6933,0.8669 8.96,41.6 c -4.8955,0.5335 -9.6142,1.4106 -14.08,3.5816 -3.9205,1.9062 -7.6772,5.0978 -12.16,5.4915 -5.5244,0.485 -9.7864,-3.869 -14.08,-6.6375 -3.6541,-2.3559 -9.1603,-2.8518 -12.2934,-5.7253 -4.9318,-4.5228 -4.9586,-18.5431 -5.6266,-24.8703 l 49.28,-13.44 m -289.27996,7.68 -9.6,43.52 c -4.8301,-1.2544 -9.6711,-2.9334 -14.72,-2.854 -4.7585,0.075 -9.992,2.1125 -14.4927,-0.2466 -4.4462,-2.3306 -6.1275,-7.6406 -8.7648,-11.5784 -2.7488,-4.1041 -6.2611,-6.8641 -10.6625,-9.001 1.2541,-5.3484 2.0791,-16.0834 6.3834,-19.835 3.1043,-2.7056 10.2968,-1.3406 14.0966,-1.2231 12.5963,0.3894 25.1502,1.2181 37.76,1.2181 m 234.23996,8.96 c 1.3767,10.5956 7.1703,22.3222 -3.2,29.44 l 3.2,-29.44 m 893.925,2.0013 c 6.8634,-1.9766 20.3405,4.1081 26.9939,6.2553 1.6541,0.534 8.3977,3.6169 4.3163,5.829 -2.5088,1.3594 -6.228,7e-4 -8.7558,-0.659 -6.8467,-1.7869 -14.4808,-3.1069 -20.9581,-5.9803 -2.0538,-0.9113 -5.5832,-4.2969 -1.5963,-5.445 m -303.4436,9.0937 c 2.1495,-0.4531 3.6733,2.2366 4.4859,3.7731 2.699,5.1019 5.0827,10.9594 6.8065,16.4672 0.5234,1.6725 1.5589,5.6997 -1.1193,6.2166 -2.1368,0.4125 -3.6273,-2.2619 -4.4282,-3.7947 -2.6699,-5.1091 -5.0433,-10.9469 -6.7661,-16.4475 -0.5174,-1.6519 -1.6188,-5.6587 1.0212,-6.2147 m -827.92136,97.065 c -9.3609,-0.8047 -18.772,-1.475 -28.1586,-1.8922 -2.2015,-0.098 -8.2963,-0.9518 -8.9986,2.1847 -0.7463,3.3331 5.7883,3.775 7.7223,3.9513 9.5265,0.8678 19.23,1.4809 28.7949,1.5162 l -1.28,19.84 c -8.863,-1.3794 -17.9243,-1.6412 -26.8773,-2.0362 -2.0597,-0.091 -8.4013,-0.8163 -8.4013,2.6522 0,3.1515 5.6908,3.2637 7.7637,3.4503 8.8476,0.7962 17.9962,1.5106 26.8749,1.0537 -1.8287,24.4188 -6.0512,49.3894 -12.6986,72.96 -2.7315,9.6853 -8.7221,21.3716 -20.5814,20.6019 -17.1122,-1.1103 -28.1304,-27.3019 -34.717,-40.4419 -21.9757,-43.8406 -34.78378,-97.3015 -29.60308,-146.56 1.55672,-14.8012 13.29558,-21.2919 25.92008,-26.409 5.8209,-2.3591 12.4723,-4.7225 18.5045,-1.7044 8.715,4.3603 9.4534,16.1965 18.6303,20.2365 11.0573,4.8675 22.1013,-3.4675 32.1817,6.9422 6.2645,6.4691 6.8601,14.8328 6.8391,23.3347 -0.033,13.3581 -0.5783,27.0256 -1.9156,40.32 M 1757.4301,2749.86 c 2.2339,-0.7337 3.6986,2.6072 4.3442,4.131 1.9322,4.5603 3.7669,9.7031 4.7651,14.5581 0.3211,1.5616 0.7975,4.6462 -1.2393,5.3369 -2.2811,0.7731 -3.8846,-2.535 -4.5832,-4.1116 -1.985,-4.4803 -3.8739,-9.7416 -4.7157,-14.5753 -0.2766,-1.5881 -0.6011,-4.6722 1.4289,-5.3391 m 326.5214,2.0057 c 4.7686,-1.6929 14.5576,1.859 19.0331,3.7525 1.8289,0.7737 5.1777,3.6062 1.9742,5.1496 -4.4137,2.1269 -15.1753,-1.8331 -19.4664,-3.5696 -2.1358,-0.8641 -5.2297,-4.0232 -1.5409,-5.3325 m -786.513,67.2915 c -9.2425,3.2369 -18.4578,6.7991 -27.4987,10.5638 -1.4993,0.6243 -8.3515,3.479 -5.676,6.0987 2.2056,2.16 7.2211,-0.4053 9.4952,-1.2622 8.6875,-3.2725 17.2437,-7.2897 26.2395,-9.6403 l 6.4,17.92 c -8.3969,2.9406 -16.7214,6.2497 -24.9503,9.6319 -1.9775,0.8128 -7.7361,2.7491 -6.8983,5.8312 0.8422,3.0985 6.4722,0.636 8.1847,0 8.6084,-3.2125 17.2092,-6.5572 25.5839,-10.34 7.4447,22.4181 14.2098,45.175 18.2556,68.48 1.7144,9.8747 3.1469,21.7985 -6.2162,28.4869 -15.278,10.9141 -39.0883,-10.2247 -50.4394,-19.0703 -29.1814,-22.7406 -53.5342,-51.5541 -71.8381,-83.6566 -6.996,-12.27 -14.1874,-25.4694 -18.3097,-39.04 -4.1536,-13.6734 3.7741,-24.4084 12.8416,-33.8994 4.42,-4.6262 9.6278,-9.6187 16.5062,-9.2287 9.5539,0.5419 15.1052,11.3275 24.96,10.6541 11.9942,-0.8197 18.6933,-12.4835 31.9986,-7.4457 9.3408,3.5369 13.4517,12.146 17.1789,20.7197 5.0231,11.5547 10.3988,23.1675 14.1825,35.2 m -423.77296,-43.5737 c -2.7666,1.5128 -1.9746,6.479 -1.894,9.015 0.2712,8.5437 0.8736,17.0862 1.6525,25.5987 3.3375,36.4788 9.8615,74.1744 27.1126,106.88 5.088,9.646 11.5064,19.2741 19.9649,26.2894 2.1139,1.7531 7.2887,6.2681 10.3139,4.095 3.1608,-2.2709 -3.2293,-6.8044 -4.6198,-7.9906 -8.324,-7.1013 -14.7982,-15.9528 -19.8976,-25.5938 -17.3386,-32.7797 -23.5668,-70.3131 -26.835,-106.88 -0.7416,-8.2972 -0.8131,-16.6659 -1.6553,-24.945 -0.1788,-1.7578 -0.8262,-8.2822 -4.1422,-6.4687 m 320.80316,21.645 c -3.8063,1.2343 0.5584,8.5731 1.5195,10.4093 5.2151,9.9625 10.6755,19.8004 16.4681,29.4394 18.2039,30.2916 40.1042,60.9931 69.6222,81.1919 7.4586,5.1037 15.5792,9.5562 24.32,12.0197 3.0138,0.8494 7.1945,2.0328 10.2072,0.599 3.1584,-1.5031 0.6406,-4.0803 -1.497,-4.8775 -8.896,-3.3168 -17.1238,-5.5518 -25.3502,-10.6612 -30.72,-19.0806 -53.167,-51.0128 -71.5459,-81.4719 -5.6986,-9.4444 -10.993,-19.0869 -16.2244,-28.795 -1.1911,-2.2103 -3.9995,-8.995 -7.5195,-7.8537 m 499.7546,-0.1875 c 3.58,-1.7816 8.9393,-0.9235 12.8152,-0.9238 h 28.8 101.76 c 11.0914,0 22.1867,-0.09 33.2775,0.01 1.4073,0.012 12.0634,0.6353 8.2275,4.3703 -2.5308,2.464 -8.8678,1.3806 -12.065,1.3812 h -32.64 -106.24 c -9.582,0 -19.2077,0.266 -28.785,-0.038 -1.9753,-0.063 -10.4983,-2.1369 -5.1502,-4.7981 m 552.1886,86.4578 c -2.7892,1.3253 -2.3075,4.0587 0.5013,4.8978 3.6452,1.0891 8.0447,0.5206 11.8053,0.5206 h 52.48 190.08 61.44 c 4.6175,0 17.6303,2.215 20.8722,-1.7431 1.76,-2.1488 -1.4309,-3.8116 -3.1244,-4.205 -4.6009,-1.0694 -9.854,-0.4519 -14.5478,-0.4519 h -62.08 -183.68 -51.2 c -6.5003,0 -16.5605,-1.8625 -22.5466,0.9816 z"
       id="path1" />
  </g>
</svg>
