<?xml version="1.0" encoding="UTF-8" standalone="no"?>
<!-- Created with Inkscape (http://www.inkscape.org/) -->

<svg
   version="1.1"
   id="svg1"
   width="2355.073"
   height="2441.2532"
   viewBox="0 0 2355.073 2441.2532"
   xmlns="http://www.w3.org/2000/svg"
   xmlns:svg="http://www.w3.org/2000/svg">
  <defs
     id="defs1" />
  <g
     id="g1"
     transform="translate(-2.090178,-2.523528)">
    <path
       style="fill:#030303;stroke:none"
       d="m 1789.5804,556.41089 c -3.8155,8.89833 -8.0658,17.79263 -9.2351,27.52003 -1.4404,11.9811 1.374,24.6873 3.3176,36.48 4.1622,25.2534 11.1625,50.1979 14.8324,75.4787 1.1781,8.116 -8.3129,9.4253 -13.2646,13.8905 -7.0122,6.323 -10.92,15.7461 -10.0028,25.1908 1.8391,18.9381 10.0903,38.1936 13.8397,56.96 10.185,50.979 13.427,106.1145 -3.1397,156.16 -5.3756,16.2389 -12.8751,36.3318 -24.9017,48.88727 -4.0227,4.19951 -9.6111,3.59091 -14.9658,3.59251 l -31.36,2e-4 h -132.48 -131.2 c -21.8708,0 -44.8047,1.9846 -66.56,-0.2314 -14.4619,-1.47321 -29.2762,-8.26751 -43.52,-11.53178 -23.7887,-5.4515 -48.1102,-8.2175 -72.32,-11.054 -27.0545,-3.1699 -54.1508,-6.0283 -81.28,-8.485 -8.3069,-0.7522 -25.27,0.9814 -31.7375,-4.7866 -7.6328,-6.8072 -10.4512,-21.5847 -12.6769,-31.1112 -6.5337,-27.9674 -8.0656,-57.1296 -8.0656,-85.76 7.2405,0.5153 14.5633,1.1606 21.76,-0.1666 23.8586,-4.3997 34.1781,-27.1495 36.6864,-49.1134 0.9074,-7.9449 -0.1698,-16.5313 1.3411,-24.32 1.6878,-8.7002 11.7358,-15.5932 10.5503,-24.96 -1.0455,-8.2607 -9.622,-16.708 -13.123,-24.32 -5.3732,-11.683 -6.7432,-24.1532 -9.8548,-36.48 15.3814,-6.7847 31.5425,-11.8893 46.72,-19.0997 7.3566,-3.495 14.6041,-7.5091 20.1252,-13.6224 26.8848,-29.769 -8.0218,-74.7056 -34.2052,-90.6142 -21.0964,-12.81795 -41.4467,-8.80904 -64.64,-9.18373 -13.4328,-0.21703 -25.4814,-5.61953 -33.5691,-16.60687 -10.0996,-13.72078 -9.3109,-31.8125 -9.3109,-47.99313 0,-21.2439 -1.0212,-43.74062 -13.0262,-62.08 -19.4052,-29.64421 -59.4361,-43.04718 -92.5738,-49.85921 -20.23623,-4.15985 -38.87673,-2.05219 -54.96063,-17.525 -14.8949,-14.32875 -19.2549,-34.21641 -25.9513,-52.93578 -4.3975,-12.29281 -10.9665,-24.98672 -24.6881,-28.43047 -11.3009,-2.83625 -22.0133,2.93656 -31.36,8.65781 -12.7386,7.79735 -25.0073,16.19719 -39.68,19.92985 -17.7144,4.5064 -36.3223,1.47437 -51.84,-8.08688 -14.3229,-8.825 -25.8152,-21.72672 -42.88,-25.3475 -18.5363,-3.93297 -38.3787,2.8986 -53.76,13.13906 -30.7466,20.47016 -54.5128,57.72375 -48,95.65813 h -191.36 -44.8 c -2.63484,4.6e-4 -13.30523,-1.26422 -13.30523,3.2 0,4.46437 10.67039,3.19953 13.30523,3.2 h 45.44 192 c 3.0977,21.93796 5.41,40.69796 -6.4794,60.79999 -8.0533,13.61625 -21.9897,20.9986 -32.0842,32.67407 -12.6359,14.61468 -15.0331,35.22984 -12.2042,53.72593 6.8963,45.09083 40.2308,86.68153 82.7678,102.86143 13.632,5.1851 28.0552,7.3765 42.24,10.4561 9.2223,2.0022 19.3228,4.7717 25.1126,12.8556 8.5146,11.8884 1.4524,25.3103 -5.8166,35.7469 -12.5874,18.0725 -28.6267,35.9178 -26.7604,59.52 2.0139,25.4697 22.2771,46.0356 42.0244,60.0156 33.0825,23.4206 77.9063,37.1145 118.4,30.2387 14.805,-2.5139 28.0723,-8.4918 41.6,-14.7343 v 48.64 c 0,10.7253 0.6563,21.257 -5.3222,30.7186 -10.9708,17.3621 -28.9162,17.2814 -47.1578,17.2814 h -102.4 -85.76 c -6.7798,0 -13.6725,-0.3555 -20.4391,0.091 -1.6389,0.1082 -5.7351,0.4406 -5.4528,2.9686 0.4534,4.059 11.0995,2.6998 13.7319,2.7 h 43.52 129.92 35.2 c 8.7291,0 17.3898,0.3668 25.6,-3.1168 30.3422,-12.874 24.96,-47.5718 24.96,-74.3232 0,-7.2313 -3.0266,-23.4641 2.6273,-28.8689 5.4727,-5.2316 15.798,-7.8763 22.9727,-9.6586 26.8102,-6.66 55.2389,0.6134 78.08003,15.319 6.3113,4.0633 21.6413,11.1269 23.5628,18.9016 2.0905,8.4584 -4.2873,22.2448 -6.3628,30.5469 -6.0534,24.2136 -13.0712,48.4596 -17.84,72.96 -33.13863,0 -66.12473,0.2457 -99.20003,2.3446 -16.5384,1.0496 -32.4583,1.0935 -48.64,5.4013 -15.203,4.0473 -29.513,10.4102 -42.88,18.6705 -7.438,4.5964 -15.5174,13.44527 -24.32,14.86388 -7.818,1.2598 -16.414,0.3197 -24.32,0.3197 h -46.08 -143.36 c 3.9159,-11.56238 4.7738,-23.79068 6.28,-35.83998 2.0877,-16.7016 5.3502,-33.1024 -1.1472,-49.28 -2.9173,-7.2636 -7.5833,-13.3829 -12.7342,-19.2 -3.83,-4.3255 -8.8795,-8.7763 -9.958,-14.72 -1.5861,-8.7414 -0.3606,-18.6505 -0.3606,-27.52 v -54.4 c 0,-13.3824 8e-4,-29.4694 -6.5468,-41.5975 -5.2884,-9.7958 -16.2941,-15.6683 -27.3732,-14.3216 -4.4788,0.5444 -10.1678,4.2434 -14.58008,2.4727 -4.56007,-1.8302 -8.27882,-7.1572 -11.6632,-10.5538 -8.62187,-8.6528 -16.99922,-17.54 -25.57484,-26.2398 -48.1736,-48.8707 -95.55188,-98.5698 -143.31961,-147.8396 -23.28235,-24.01456 -45.53024,-50.0169 -70.46227,-72.32003 v -0.64 c 16.2125,-21.27078 -4.92172,-52.01796 -30.71992,-42.67062 -27.66109,10.02234 -20.30141,48.13703 6.39992,52.91062 v 157.44003 c 0,26.5681 1.18266,53.4409 -0.0602,79.9776 -0.40133,8.5688 -8.3143,8.7767 -13.96656,13.3942 -7.18243,5.8677 -10.8304,14.5299 -10.07711,23.7482 2.64336,32.3478 49.54882,31.7815 54.1839,0.64 h 173.44 44.16 c 4.73305,0 13.05961,-1.5314 16.92321,1.8153 2.89757,2.51 3.76406,7.2 5.91765,10.3256 2.87406,4.1713 8.21644,7.0831 10.15864,11.7947 2.3006,5.5809 0.9205,13.6505 0.9205,19.5844 v 40.96 c -12.22234,-8.5608 -33.80547,-10.5155 -39.04,7.04 -12.0114,-6.4522 -25.97203,-3.6421 -29.44,10.88 -11.23961,-6.1454 -25.32976,-2.2119 -26.69289,12.16 -1.51273,15.949 -0.18711,32.6193 -0.18711,48.64 0,21.8768 -1.47562,42.5884 6.4,63.35998 H 135.18037 c -40.443709,0 -87.517379,-9.79298 -116.26453,26.2412 -20.8407399,26.1236 -15.5754699,60.9345 -15.5754699,92.1588 v 201.5999 674.56 186.88 c 0,28.6181 -5.69414,63.8153 7.2219199,90.24 2.81585,5.761 6.33835,11.1431 10.55543,15.9769 23.22582,26.6212 56.845891,24.9831 89.10265,24.9831 h 80.64 v 0.64 h -67.2 c -13.24023,0 -27.156089,-1.479 -39.679999,3.6438 -32.19918,13.1706 -41.697071,55.8334 -18.29211,81.4368 15.53121,16.99 35.462579,16.6794 56.692109,16.6794 h 62.08 321.92 c 12.9216,0 26.1543,-0.82 39.04,0.1647 9.3166,0.7122 18.0575,3.0269 27.52,3.0347 409.8128,0.3419 819.62723,6e-4 1229.44003,6e-4 0.7813,14.3381 17.9969,13.295 29.44,15.286 31.4564,5.4731 64.0309,9.5621 96,9.6703 44.708,0.1515 88.9791,-1.4416 133.12,-9.255 8.5091,-1.5063 19.2899,-1.8813 27.1425,-5.5969 5.6231,-2.6606 3.7147,-9.5053 11.2953,-10.0122 27.8853,-1.8644 56.4897,-0.092 84.4422,-0.092 15.6291,0 32.1053,1.5347 46.72,-5.1119 39.7003,-18.0559 41.9228,-75.1421 3.84,-96.2853 -13.8256,-7.6756 -28.8978,-6.7628 -44.16,-6.7628 h -65.28 l 2.5217,-17.7203 5.5636,-11.1259 10.0928,-71.6338 17.3635,-138.24 8.6184,-74.24 -3.84,0.64 17.92,-138.88 h -6.4 l -17.92,139.52 c -141.4537,12.9444 -281.6545,16.0566 -423.04,0 l -17.92,-139.52 h -6.4 l 17.92,138.88 -3.84,-0.64 18.525,142.08 8.995,71.04 h -289.92 c 2.2295,-26.0081 1.28,-52.6209 1.28,-78.72 0,-8.4587 -3.5378,-23.9631 0.5353,-31.4814 2.6538,-4.8986 10.8131,-7.4486 15.4647,-10.0106 10.6581,-5.8702 20.8417,-12.5683 30.08,-20.5117 30.5894,-26.3025 50.1186,-64.2894 54.0606,-104.3963 2.45,-24.9267 -1.9617,-50.12 -4.7097,-74.88 -4.119,-37.1153 -8.1678,-74.2382 -12.2287,-111.36 -9.8483,-90.0251 -19.5219,-180.0711 -29.5131,-270.08 -5.4246,-48.8682 -12.9963,-98.1232 -15.9291,-147.2 66.803,0 133.4736,-7.251 198.4,-23.2871 28.3797,-7.0096 55.3625,-17.3732 83.2,-25.9929 v 124.8 35.84 c 0,5.4177 1.0286,12.195 -1.1753,17.28 -2.8173,6.5005 -9.9142,11.7296 -14.8247,16.64 l -32.64,32.64 -41.5997,41.6 c -1.9644,1.9655 -13.8911,11.7493 -10.1453,15.1122 2.1938,1.9696 6.1227,-1.8137 7.5897,-3.1243 6.25,-5.5844 11.9902,-11.8227 17.9153,-17.7479 l 74.88,-74.88 v 249.6 h 6.4 v -172.8 -53.76 c 0,-8.4551 -1.5337,-18.6487 0.5327,-26.88 1.6865,-6.7184 8.8651,-11.9575 13.5473,-16.64 l 32.64,-32.64 c 3.6686,-3.6687 7.8858,-7.2292 10.8952,-11.4803 0.8837,-1.2482 2.6401,-4.0781 0.7845,-5.3229 -4.21,-2.8244 -13.0986,8.6229 -15.5197,11.0434 l -42.88,42.8798 v -126.72 -33.28 c 2e-4,-4.1926 -1.0212,-10.3162 1.4733,-13.976 2.0276,-2.9749 6.2589,-4.231 9.408,-5.5897 6.9039,-2.9789 13.7498,-6.0371 20.4787,-9.396 20.5609,-10.2637 40.1399,-22.6103 57.6,-37.5982 v 492.1599 h 6.4 v -335.36 -106.88 c 0,-16.4067 -2.8345,-35.7565 0.3927,-51.8398 2.014,-10.0372 16.1111,-19.4075 22.6582,-26.8801 15.1221,-17.2596 28.0443,-36.549 38.5215,-56.96 31.5806,-61.5241 41.426,-131.2963 42.7157,-199.67998 1.0552,-55.9452 -6.4315,-112.9157 -17.3762,-167.68 -5.4,-27.0202 -10.6755,-55.2966 -20.0075,-81.28 -3.9189,-10.9116 -12.6272,-18.8996 -24.0244,-21.3753 -4.5175,-0.9813 -11.3378,0.2531 -15.1912,-2.4979 -3.1216,-2.2284 -3.9408,-7.2542 -4.9904,-10.6871 -2.9518,-9.6552 -9.0981,-21.8455 -9.1059,-31.9752 0,-4.922 4.098,-7.4781 8.1781,-9.1538 8.7753,-3.6039 17.9357,-6.4045 26.8694,-9.5932 30.9014,-11.0297 61.8888,-21.8175 92.8,-32.82 l 22.3983,-7.9519 c 3.548,-1.2711 7.9309,-2.5575 9.8569,-6.1173 3.8279,-7.0758 -6.2316,-14.5961 -10.4952,-18.8683 13.9494,-5.1663 29.9513,-15.0883 44.8,-16.45987 20.775,-1.91891 42.4934,-0.18016 63.36,-0.18016 18.0803,0 34.57,-1 46.5313,-16.6475 9.2706,-12.12765 8.5087,-27.14265 8.5087,-41.5925 v -72.32 V 129.5311 60.411109 c 0,-19.01844 -0.9991,-37.95469 -18.5662,-49.59438 -16.9913,-11.25812003 -41.4347,-7.3656198 -60.7938,-7.3656198 h -133.76 -376.96 -119.04 c -20.1928,0 -42.9045,-2.85344023 -62.72,1.44906 -40.9455,8.8903098 -32.64,58.2521898 -32.64,89.4309308 v 26.24 303.99999 73.6 c 0,14.7325 -0.6997,30.02203 9.0039,42.22797 12.9877,16.33686 30.902,16.01203 49.8761,16.01203 h 49.28 273.92 m 304,-6.4 c -4.1601,-14.45953 -21.7567,-19.37703 -35.2,-19.76812 -5.0267,-0.14625 -10.4294,1.06656 -15.36,-0.12563 -5.4262,-1.31203 -10.2151,-5.02484 -15.36,-7.1464 -8.9083,-3.6736 -18.5301,-5.38985 -28.16,-4.80282 -12.1244,0.73907 -24.0897,4.90657 -35.84,7.74563 -21.3503,5.15859 -42.6908,10.37 -64,15.69734 -11.3891,2.84734 -25.2644,8.57391 -37.0484,8.15313 -8.7421,-0.31219 -4.9892,-10.33344 -3.7591,-15.75313 2.9686,-13.07797 10.0202,-30.23719 5.4931,-43.51984 -1.842,-5.405 -7.2418,-13.58 -13.9642,-12.38859 -6.3928,1.13296 -11.3525,9.04796 -15.1961,13.66843 -10.7598,12.93469 -21.0754,26.33016 -30.4329,40.32 -3.4579,5.16969 -7.2227,15.04047 -13.5004,17.21266 -7.6314,2.64062 -18.6151,0.70734 -26.632,0.70734 h -56.96 -192 -53.76 c -12.965,0 -25.2027,0.55875 -35.6997,-8.395 -12.1965,-10.40344 -12.3003,-24.87812 -12.3003,-39.605 v -67.2 V 132.7311 58.491109 c 0,-15.75 0.3431,-30.90844 14.107,-41.36875 14.3999,-10.9434398 36.1232,-7.2712498 53.093,-7.2712498 h 122.24 421.12 112.64 c 16.0506,0 36.8316,-3.47063 51.1978,5.1256198 18.5975,11.12781 17.2822,31.03719 17.2822,49.91438 v 124.159991 256.63999 56.32 c 0,13.95125 0.1678,27.48031 -10.5522,38.01469 -10.7703,10.58359 -24.0762,9.98531 -38.0878,9.98531 h -63.36 M 1334.957,50.757159 c -4.6582,1.62343 -8.555,6.91437 -11.9366,10.29406 l -23.68,23.67968 -83.84,83.840001 c -9.3808,9.38063 -18.8625,18.67219 -28.1348,28.16 -0.9497,0.97188 -9.7658,10.13563 -4.5204,10.61906 4.1655,0.38407 8.9611,-6.13468 11.5352,-8.70125 l 27.52,-27.51781 88.32,-88.320001 c 7.8634,-7.86343 16.008,-15.53156 23.5794,-23.67749 1.2248,-1.31782 7.6073,-10.62407 1.1572,-8.37625 m 474.4634,17.33375 c -5.7156,5.74718 -10.0423,10.15843 -10.24,18.55999 l 7.68,-6.4 V 319.6109 h -119.04 c 0,-55.89188 5.3645,-112.45344 -36.8022,-156.01812 -7.8711,-8.13188 -16.8498,-15.23094 -26.5578,-21.04719 -31.2536,-18.72469 -64.0759,-18.13469 -99.2,-18.13469 -8.5252,0 -17.068,-0.15781 -25.5912,0.0237 -1.8211,0.0388 -7.689,-0.0806 -7.3407,3.03625 0.3163,2.83 5.401,2.635 7.3407,2.67625 8.097,0.1725 16.2123,0.0237 24.3112,0.0237 33.9367,0 66.5319,-0.40406 96.64,17.72875 9.2789,5.58813 17.9406,12.2725 25.4803,20.06438 16.5408,17.09406 28.1847,38.68187 32.8261,62.04687 5.7299,28.84375 2.4936,60.31469 2.4936,89.6 h -144.64 l -33.9197,0.001 c -2.3676,0.004 -10.1495,-0.87422 -10.5322,2.78234 -0.4234,4.04766 7.5983,3.595 9.8925,3.61016 11.3053,0.075 22.6138,0.006 33.9194,0.006 h 145.28 c 0.011,50.92875 27.1486,97.6439 73.6,120.11734 9.7217,4.70344 20.132,8.12578 30.72,10.24718 5.5174,1.10547 12.3317,0.70454 17.5274,2.80032 5.8954,2.37797 3.4218,14.14828 3.6526,19.1339 0.078,1.69094 0.2647,6.47516 3,6.16047 2.4658,-0.28359 2.5581,-4.39281 2.64,-6.16047 0.295,-6.37172 0.06,-12.80078 0.06,-19.17875 19.0788,-1.645 36.8647,-4.65437 54.4,-12.79125 47.6264,-22.10015 72.4953,-69.57578 74.24,-120.32874 h 172.16 l -5.76,7.04 c 5.6108,-0.13203 16.5469,-3.15985 15.5259,-10.87656 -0.9814,-7.41875 -10.1673,-9.51438 -16.1659,-9.60344 l 6.4,7.04 h -172.16 c 0,-28.36188 -3.2823,-59.04938 1.6391,-87.04 5.2389,-29.79687 21.9903,-57.00437 45.7209,-75.69562 25.6752,-20.22281 55.673,-26.70438 87.68,-26.70438 7.0139,0 14.0878,0.265 21.0949,-0.06 1.7046,-0.0791 6.3826,-0.265 6.077,-3 -0.2963,-2.65156 -4.8499,-2.60281 -6.7069,-2.66187 -7.6619,-0.24406 -15.3597,-0.0381 -23.025,-0.0381 -32.7233,0 -62.5612,6.59032 -88.96,27.10157 -8.0939,6.28874 -15.4226,13.52249 -21.8106,21.53843 -34.093,42.78219 -28.1094,95.31062 -28.1094,146.56 h -122.24 V 80.250329 l 7.68,6.4 c -0.2009,-8.53937 -4.6028,-13.18125 -10.88,-18.55999 m -576.8575,17.86624 c -5.8119,2.01375 -10.9144,9.265631 -15.1425,13.493751 l -31.36,31.36 -112,112 c -12.5862,12.58625 -25.1922,25.15281 -37.7575,37.76 -2.8405,2.85 -6.4281,5.79781 -8.2275,9.47031 -0.6994,1.42734 -1.0872,3.9125 1.138,4.09656 5.2162,0.43157 11.5254,-8.4064 14.767,-11.64703 l 36.48,-36.47984 117.12,-117.12 c 10.6594,-10.65937 21.447,-21.20625 31.9703,-32 1.1497,-1.17906 10.6892,-13.593751 3.0122,-10.933751 M 1806.8604,326.0109 v 126.71999 c -16.0351,-1.41125 -31.2867,-4.16484 -46.08,-10.77687 -46.2072,-20.65281 -72.96,-66.22141 -72.96,-115.94312 h 119.04 m 128,0 c -0.2559,68.97687 -53.0672,124.3314 -122.24,126.71999 V 326.0109 h 122.24 M 137.74037,384.66183 c -18.03222,2.24922 -33.0491,16.0161 -35.93062,34.14906 -2.705749,17.02688 -0.54938,35.89282 -0.54938,53.12 v 102.40003 259.2 46.08 c 0,18.4746 -0.30555,35.8686 15.3791,48.7006 13.73778,11.2392 31.41508,8.8994 47.9809,8.8994 h 99.84 71.04 c 7.99399,0 22.17766,2.7384 29.40703,-0.8822 2.26203,-1.1328 1.67602,-3.3708 -0.46054,-4.1942 -2.94164,-1.1338 -6.65696,-0.6816 -9.74657,-0.6833 l -45.43992,-3e-4 h -139.52 c -19.92156,0 -42.42445,3.0153 -55.63164,-15.3846 -8.45457,-11.7786 -6.44836,-26.5945 -6.44836,-40.2954 v -81.28 -267.52003 -76.16 c 0,-12.20437 -2.22941,-26.93671 2.68621,-38.4 8.33891,-19.4464 26.08496,-21.75999 44.67379,-21.75999 h 85.76 l 33.91985,-9.4e-4 c 2.82968,-0.004 9.83625,0.94031 11.23211,-2.46531 1.91046,-4.6611 -9.1875,-3.93094 -11.23211,-3.93313 l -40.95985,-6.2e-4 h -37.12 c -19.2689,0 -39.75394,-1.97469 -58.88,0.41093 m 496.64,5.98907 v -0.64 l 0.64,-5.76 h 195.84 c 25.7616,0 57.792,-4.31954 70.4742,24.32 5.0475,11.39859 3.7658,24.32968 3.7658,36.47999 v 61.44 222.08003 74.24 c 0,5.8965 0.4264,11.9848 -0.1534,17.8572 -0.1714,1.7353 -0.6838,5.0478 -3.0466,5.0478 -2.363,0 -2.8752,-3.3127 -3.0466,-5.0478 -0.5592,-5.6636 -0.1534,-11.5307 -0.1534,-17.2172 v -74.24 -222.08003 -62.08 c 0,-10.8489 1.6294,-23.13781 -2.9683,-33.28 -12.1839,-26.87734 -43.9976,-21.11999 -68.0717,-21.11999 h -193.28 M 2054.5404,589.69092 c -39.8036,14.3651 -79.8194,28.1476 -119.68,42.3542 l -27.52,9.7153 c -5.472,1.9469 -11.3909,4.327 -13.86,10.0484 -2.3126,5.3589 0.2984,11.4064 1.898,16.6021 3.4075,11.0682 6.9622,22.1154 10.042,33.28 h -99.2 c -5.728,-25.9177 -11.2858,-51.9061 -15.7275,-78.08 -2.3291,-13.7249 -5.9905,-28.9785 -3.343,-42.88 3.7374,-19.6236 17.3438,-38.44284 28.6786,-54.40003 7.9625,-11.20953 16.4,-22.10031 25.2339,-32.6375 2.4983,-2.98015 6.966,-9.97281 11.6818,-8.67437 6.7089,1.84734 7.312,12.85109 6.5634,18.27187 -1.8206,13.1836 -6.1794,25.93906 -8.4475,39.04 -1.0152,5.86375 1.0502,11.87578 7.2387,13.76797 6.0993,1.86486 13.8791,-1.4875 19.8016,-2.96797 14.0664,-3.51625 28.1636,-6.91781 42.24,-10.39594 16.84,-4.16093 33.72,-8.16718 50.56,-12.32812 13.1533,-3.25 25.9709,-7.10891 39.68,-5.66719 11.7747,1.23828 19.9006,8.1425 30.72,11.47953 11.2077,3.45688 23.0702,-1.24328 34.5594,3.6511 3.4408,1.46578 8.3022,3.76375 9.624,7.5875 1.7208,4.9775 -6.382,7.1364 -9.6243,8.44 -8.5127,3.42285 -17.0914,6.67855 -25.5977,10.11645 -2.7228,1.1004 -7.783,2.4135 -8.8406,5.5707 -0.8227,2.4558 1.6828,4.6818 3.2466,6.1757 3.9176,3.7426 7.4926,7.1001 10.0726,11.9303 m -1786.88003,177.92 c -1.39312,-7.4318 -4.85406,-13.7211 -10.92445,-18.3994 -4.00703,-3.0881 -11.48234,-4.2855 -12.47234,-9.9411 -1.48454,-8.4806 -0.28321,-18.0997 -0.28321,-26.6995 v -51.84 -161.92003 c 4.16977,-1.07203 9.77367,-4.36234 14.07938,-3.1039 5.93898,1.73578 10.6957,9.07718 14.80422,13.3439 10.75375,11.16797 21.70226,22.14875 32.49414,33.28 49.80234,51.36843 99.84726,102.52763 149.29179,154.24003 13.14719,13.7501 26.68805,27.1225 39.74516,40.96 8.06086,8.5426 16.0643,13.3431 10.10781,25.4004 -2.94148,5.9543 -9.7339,4.6793 -15.4025,4.6796 h -42.24 -179.2 M 2007.9988,542.96027 c -7.3325,-1.48469 -18.6223,3.74156 -25.7784,5.53062 l -60.16,15.04003 c -6.5042,1.6261 -13.4564,2.7592 -19.7334,5.1309 -1.7427,0.6584 -6.1064,3.3189 -3.0396,5.3334 2.2236,1.4607 5.7163,0.3118 8.0544,-0.2393 6.4178,-1.5128 12.8017,-3.1858 19.1986,-4.785 l 65.28,-16.32003 c 5.0678,-1.26703 11.0125,-1.97609 15.6878,-4.37172 2.2991,-1.17797 4.2174,-4.56437 0.4906,-5.3189 m 10.9722,31.95875 c -7.4275,-1.415 -18.6306,3.7619 -25.8706,5.5719 l -60.16,15.04 c -6.4916,1.6229 -13.4705,2.7351 -19.7167,5.1559 -1.7075,0.6617 -5.9936,3.2902 -2.9964,5.2744 2.2026,1.4583 5.6731,0.3362 7.995,-0.2075 6.4194,-1.5031 12.8017,-3.1838 19.1981,-4.7828 l 65.28,-16.32 c 5.108,-1.2771 11.0175,-2.0138 15.7547,-4.3733 2.4048,-1.1978 4.425,-4.6139 0.5159,-5.3586 m 334.9341,62.6086 c -5.405,2.074 -9.9341,8.333 -13.9247,12.3233 l -28.16,28.16 -83.84,83.84 c -14.8203,14.8203 -32.6203,28.9776 -37.0137,50.56 -2.9175,14.3318 -0.4925,29.7192 7.2081,42.24 9.3406,15.1873 22.2544,24.9621 23.2753,44.16 1.2622,23.7348 -14.3763,38.8264 -29.9497,54.4 l -60.8,60.79998 c -8.5153,8.5153 -17.2383,16.8698 -25.535,25.5986 -0.9147,0.9623 -8.3625,9.7045 -2.812,9.2532 4.2301,-0.3439 8.3069,-5.8637 11.067,-8.6145 l 24.96,-24.9573 56.96,-56.95998 c 17.2141,-17.2141 34.2713,-33.8204 32.4375,-60.16 -2.2597,-32.4575 -37.8362,-49.2139 -30.6662,-83.84 4.2962,-20.7477 22.3903,-34.4014 36.6287,-48.64 l 85.76,-85.76 c 10.6591,-10.6591 21.4503,-21.2028 31.9697,-31.9997 1.3316,-1.3669 10.445,-13.4772 2.435,-10.4036 m -673.3386,7.1495 c -6.6991,2.3149 -12.8173,11.165 -17.7061,16.0538 l -39.04,39.04 -138.24,138.24 -46.7198,46.72 c -3.5318,3.5326 -7.9468,7.0698 -10.4621,11.4436 -0.82,1.4257 -1.777,4.5476 0.8149,4.7684 5.7984,0.4939 13.6803,-10.6453 17.327,-14.292 l 46.08,-46.08 142.72,-142.72 c 13.2261,-13.2261 26.4734,-26.4318 39.6775,-39.68 2.8438,-2.8533 6.4474,-5.8097 8.2275,-9.4994 1.1231,-2.328 0.3478,-5.0403 -2.6789,-3.9944 m -511.1461,12.8538 c 5.4348,20.6387 7.0053,42.5815 14.1311,62.72 2.3031,6.5089 5.3536,12.6912 8.9855,18.56 2.1392,3.4567 5.6068,7.2753 5.8153,11.52 0.4628,9.4284 -10.0555,16.8037 -10.3349,26.88 -0.5884,21.2182 -1.0862,49.9522 -23.0782,61.04 -17.3497,8.7473 -39.0288,1.7515 -55.0388,-6.5111 -4.743,-2.4478 -9.193,-5.6063 -14.0448,-7.8153 -1.3274,-0.6044 -4.1811,-1.845 -5.2891,-0.1883 -2.0077,3.002 5.4292,6.909 7.1811,7.9831 9.6173,5.8962 19.7925,11.0139 30.7128,13.9716 0,31.8137 1.272,65.2573 10.1805,96 2.7064,9.34 6.0231,18.6973 11.3758,26.88 2.3045,3.5229 7.7912,8.5036 6.6579,13.1692 -0.8751,3.6029 -5.2664,4.7298 -8.3789,5.4562 -7.9617,1.8582 -16.1745,2.8292 -24.3153,3.4621 -26.4875,2.05897 -53.2234,-0.2214 -79.36,-4.7732 -9.5117,-1.6565 -22.3497,-2.2773 -28.2775,-11.0156 -4.2827,-6.313 -2.6187,-13.5137 -0.9202,-20.3787 2.5324,-10.2343 4.9607,-20.4921 7.5177,-30.72 7.517,-30.0683 14.883,-60.1721 22.4,-90.24 3.47,-13.8802 10.4136,-30.3746 10.5609,-44.6986 0.067,-6.5444 -8.5268,-7.0685 -13.2009,-8.7991 -11.077,-4.1014 -30.2312,-16.3651 -22.6705,-30.8989 3.6039,-6.9275 12.3647,-8.6767 19.4703,-8.9716 3.571,-0.1481 8.9511,0.6254 11.3682,-2.6992 3.3278,-4.5775 1.4058,-14.2839 2.2012,-19.7726 2.075,-14.3188 7.7805,-27.8011 16.9539,-39.0303 3.0855,-3.7769 6.9053,-8.7911 11.7264,-10.3718 4.1425,-1.3581 8.8243,0.9686 12.7905,2.0536 6.9258,1.8946 13.9592,2.9639 21.12,3.406 19.7564,1.2195 37.3363,-5.943 53.76,-16.2175 m 294.4,1434.23988 c -1.4484,-112.3622 -14.1327,-227.3481 -43.3514,-336 -9.7334,-36.1943 -23.3161,-70.4484 -36.0086,-105.6 17.4578,-4.1565 33.4041,-7.9975 43.6914,-24.32 10.2728,-16.2996 5.6352,-33.0575 2.1327,-50.56 -6.0253,-30.1093 -12.3093,-60.1732 -18.5444,-90.24 -34.2224,-165.025 -68.592,-330.0724 -101.5197,-495.35988 42.9219,3.64367 86.767,20.43148 124.8,39.85888 21.7844,11.1275 41.8328,24.8818 64.64,34.0312 75.5306,30.3002 171.2042,22.8034 235.52,-29.6978 70.2878,-57.37618 76.395,-153.18608 61.3211,-236.19228 -2.4616,-13.555 -5.5805,-27.0266 -9.1923,-40.32 -2.1807,-8.0257 -5.8188,-16.5632 -5.8641,-24.96 -0.063,-11.6538 8.827,-21.9502 20.2953,-23.8289 10.9088,-1.7871 22.885,-0.4911 33.92,-0.4911 h 64.64 c 12.6638,0 27.8653,-2.4447 38.3005,6.3253 10.1183,8.5036 12.1184,25.0128 15.2133,37.1947 7.8434,30.8737 14.4025,61.9782 19.4067,93.44 21.7986,137.0484 18.3733,307.30558 -94.6805,405.89868 -30.2091,26.345 -65.8486,43.9739 -103.04,58.1977 -52.0953,19.9235 -107.2606,32.8776 -162.56,39.862 -28.5562,3.6067 -57.5886,6.6969 -86.4,6.7595 -7.0356,0.015 -14.083,-0.1245 -21.117,0.026 -2.9883,0.064 -6.8549,0.1186 -8.5416,3.0689 -1.9411,3.3953 -0.5411,8.6155 -0.137,12.2673 l 2.9865,27.52 c 3.9539,35.62 7.9364,71.2418 11.7235,106.88 10.794,101.5791 22.6054,203.0513 33.3034,304.64 3.2138,30.5185 6.6622,61.0166 10.0147,91.52 2.0667,18.8047 5.473,37.9969 4.1469,56.96 -4.0463,57.8657 -40.2647,111.5816 -95.0994,133.12 M 555.02037,784.25092 v 67.2 c 0,10.3909 -2.0058,23.1887 0.6023,33.28 3.124,12.0871 17.5235,20.2901 22.6662,32 7.4735,17.0168 2.4984,36.105 0.2915,53.76 -1.2956,10.365 -1.8448,21.13137 -6.3575,30.71998 -6.3577,13.5092 -18.4881,22.0925 -31.9225,27.754 -30.19398,12.7246 -72.18687,7.5794 -94.86265,-17.6086 -17.84383,-19.82061 -15.21735,-44.28858 -15.21735,-69.02538 11.88469,4.157 20.99438,1.1709 26.24,-10.88 12.19227,4.7714 21.90297,2.8929 28.8,-8.96 6.94149,3.3576 14.42149,2.1107 21.12,5.015 5.90297,2.5593 10.6395,8.7684 14.72,13.545 -13.29422,7.6265 -23.86398,18.71 -27.51562,33.92 -1.05711,4.4029 -2.21438,9.459 -1.57141,14.0018 0.22555,1.5935 1.06375,4.58747 3.22883,4.33877 2.31844,-0.2664 2.58617,-3.85057 2.74734,-5.57417 0.62063,-6.6371 1.32891,-12.9671 3.99555,-19.1664 3.31563,-7.7083 8.89695,-14.2247 15.91591,-18.8093 2.6599,-1.7373 9.722,-3.9192 9.722,-7.8107 0,-5.7557 -10.048,-12.7855 -13.5626,-16.9 10.1705,-7.9821 10.24,-16.7689 10.24,-28.8 11.2514,6.4036 21.4929,14.8421 32,22.3836 2.2324,1.6023 8.5299,7.4337 11.5961,5.3518 3.5731,-2.4261 -6.3516,-8.8009 -7.7588,-9.8131 -11.0914,-7.9778 -22.1639,-17.8464 -34.5573,-23.6823 v -92.8 c 12.6863,1.6562 21.2575,-4.3225 29.44,-13.44 m 1073.91833,49.9647 c -2.9388,0.5321 -0.9227,4.3959 0.021,5.7468 2.2124,3.1661 8.2711,10.8128 12.7957,10.035 2.9521,-0.5075 0.96,-4.2708 0,-5.6258 -2.1885,-3.0887 -8.3741,-10.9607 -12.8169,-10.156 m 57.2726,0 c -4.4614,0.679 -9.4028,6.7076 -11.846,10.156 -1.0538,1.4872 -2.9854,5.6643 0.4681,5.6643 4.6748,0 10.5158,-7.13 12.7437,-10.6936 1.0872,-1.7389 2.0657,-5.6489 -1.3658,-5.1267 m -1464.15062,23.7584 c -3.68906,3.2401 4.13258,4.8348 5.93469,4.9269 9.55094,0.4875 19.22203,0.07 28.785,0.07 h 113.92 l 32.63992,-10e-4 c 3.18008,0 9.11391,0.8239 11.34149,-2.1037 3.12031,-4.101 -6.38352,-4.2714 -8.14406,-4.2871 -11.09078,-0.098 -22.18618,-0.01 -33.27735,-0.01 h -112 l -28.15992,3e-4 c -3.12453,0 -8.4807,-0.8449 -11.03977,1.4028 m 425.59999,0 c -2.1361,1.8762 0.4806,3.9114 2.3031,4.4378 4.2859,1.238 9.4407,0.5591 13.8566,0.5591 h 59.52 c 4.6538,0 17.0501,2.1357 20.2322,-2.0877 1.6996,-2.2558 -1.3227,-3.6834 -3.1245,-4.0067 -5.2795,-0.9474 -11.12,-0.3056 -16.4677,-0.3056 h -55.68 c -5.0239,0 -16.6273,-2.1211 -20.6397,1.4031 m -153.41498,1.1948 c 2.45601,-0.6815 5.12507,-0.6929 7.65468,-0.6009 20.2815,0.7383 16,24.1258 16,38.323 0,7.9834 1.5793,19.6784 -8.34679,22.4036 -2.46664,0.6771 -5.11641,0.625 -7.65321,0.6254 -3.99851,6e-4 -8.40062,0.054 -11.74718,-2.4765 -7.88336,-5.9619 -4.25282,-25.2397 -4.25282,-33.9925 0,-8.3789 -2.17125,-21.3633 8.34532,-24.2821 m -30.04665,9.7536 c 6.14149,-2.0017 12.8718,1.2069 14.62344,7.5136 1.38844,4.9991 0.67789,10.836 0.67789,15.9749 0,8.2062 0.71953,16.7981 -0.21492,24.9568 -0.52094,4.5482 -2.97812,8.5889 -7.50711,10.0516 -6.18765,1.9984 -12.76492,-1.2106 -14.57086,-7.5136 -3.20656,-11.1916 -1.74804,-28.7377 -0.54672,-40.2931 0.48844,-4.6983 2.7968,-9.1447 7.53828,-10.6902 m 1176.57226,10.7331 c -4.4614,0.679 -9.4028,6.7077 -11.8461,10.1561 -1.0537,1.4874 -2.9851,5.6643 0.4682,5.6643 4.6748,0 10.5156,-7.1299 12.7437,-10.6936 1.0872,-1.7389 2.0656,-5.6489 -1.3658,-5.1268 m 33.594,0 c -2.9624,0.5324 -0.9629,4.381 0,5.7469 2.2168,3.145 8.3096,10.8161 12.8168,10.035 2.9283,-0.5075 0.92,-4.2858 -0.021,-5.6258 -2.1841,-3.1096 -8.3349,-10.9576 -12.7956,-10.1561 m -1236.41665,0.1388 c 5.07211,-1.2105 10.03977,1.9959 11.44938,6.9137 1.47328,5.1399 0.66234,11.2874 0.66234,16.5829 0,8.3593 0.89649,17.3068 -0.26398,25.594 -0.59149,4.2241 -3.14438,8.0906 -7.45508,9.2072 -5.20586,1.3484 -10.18242,-2.3376 -11.51492,-7.3089 -1.33867,-4.9945 -0.60602,-10.8456 -0.60602,-15.9723 0,-8.4124 -0.74601,-17.2268 0.19907,-25.591 0.49953,-4.4214 2.98718,-8.3417 7.52921,-9.4256 m 568.91175,85.5784 c 2.9694,19.2603 17.7556,23.0787 34.56,26.1215 28.888,5.23077 58.3908,8.02687 87.68,4.98247 13.108,-1.3625 40.8245,-3.055 32.64,-22.78397 47.3131,0.6114 95.1366,9.375 142.08,14.72 8.2055,47.13568 19.2508,93.91508 28.7942,140.79998 21.3705,104.9878 43.2416,209.8742 64.5217,314.8799 8.0455,39.7004 16.5002,79.3191 24.4441,119.04 3.4178,17.0899 11.2175,37.3818 4.2072,54.4 -6.9984,16.9894 -22.3044,22.1043 -38.7672,25.7407 -26.8431,5.9293 -54.0437,10.2815 -81.28,13.9392 -105.7337,14.1998 -214.1783,12.8209 -320.00003,0.2661 -18.1723,-2.1561 -36.3342,-4.5488 -54.4,-7.4741 -21.9756,-3.5587 -42.6991,-7.9387 -54.3422,-29.2719 -10.127,-18.5553 -5.4076,-40.7229 -4.0062,-60.8 2.889,-41.3892 5.7451,-82.7842 8.8211,-124.16 7.5311,-101.3051 14.2848,-202.6728 21.5207,-303.9999 2.5897,-36.264 5.235,-72.5266 7.6874,-108.8 1.2506,-18.4982 3.5175,-37.13788 3.6792,-55.67998 30.2216,-3.853 61.7488,-1.92 92.16003,-1.92 m -97.92003,2.56 c -6.5705,50.63978 -7.5173,102.65458 -11.085,153.59998 -7.2009,102.8301 -14.3109,205.6743 -21.8531,308.4799 -3.0514,41.5932 -5.8238,83.2061 -8.8617,124.8 -1.5408,21.096 -6.4779,44.6363 2.5392,64.64 12.5208,27.7768 39.0504,33.2863 66.1406,37.4583 13.1759,2.0292 26.4103,4.1099 39.68,5.4217 -2.6678,11.9243 -7.49,23.4116 -10.757,35.2 -6.313,22.7788 -11.3391,45.841 -15.4099,69.12 -18.2095,104.1341 -22.2598,212.5789 -18.6331,318.08 -60.3048,-27.8817 -107.0129,-81.8706 -126.6548,-145.28 -13.0888,-42.254 -15.8904,-88.6726 -20.7585,-132.48 -6.9669,-62.6939 -12.9079,-125.7678 -15.7126,-188.8 -1.6136,-36.2673 -3.6252,-72.5121 -4.5089,-108.8 -0.2386,-9.797 -0.6024,-19.6471 -0.6758,-29.44 -0.028,-3.744 0.9451,-9.475 -1.2281,-12.7698 -1.6735,-2.5372 -4.5979,-0.9658 -6.4903,0.4073 -5.3518,3.8832 -10.0583,8.7035 -15.331,12.7243 -22.4183,17.0956 -47.6778,30.0759 -74.24,39.4126 -45.7818,16.0924 -95.4777,19.0706 -143.36,12.8992 -37.57593,-4.8429 -73.34742,-17.0692 -99.09617,-46.2831 -27.74945,-31.4839 -39.0875,-73.6692 -43.45078,-114.5505 -8.28,-77.5785 5.1825,-157.7204 23.59594,-232.9599 6.10695,-24.954 12.97734,-49.6891 20.54062,-74.24 3.7418,-12.1463 6.4786,-25.665 17.15031,-33.7588 12.70665,-9.637 26.68274,3.3402 39.66008,7.1902 15.7293,4.6664 32.05594,5.0809 48,1.2529 8.4227,-2.0222 15.9922,-6.7159 24.32,-8.6762 7.1938,-1.6933 17.1437,-0.8203 24.3198,0.7587 20.3572,4.4794 17.1614,25.3399 15.4313,40.9132 l -13.7956,124.16 c -1.4695,13.2232 -2.9185,26.4506 -4.3341,39.6796 -0.3787,3.5383 -1.7988,11.9672 4.2647,10.9108 9.1163,-1.5883 19.1608,-10.1423 26.5939,-15.3065 22.0556,-15.3235 42.2754,-33.4363 60.4358,-53.2039 61.0649,-66.4696 95.1103,-173.9016 188.5242,-203.62178 18.0167,-5.732 36.2714,-6.9382 55.04,-6.9382 m -463.36,53.11998 c -18.04781,8.7668 -22.55117,24.4165 -28.10484,42.24 -3.89328,12.4946 -7.82711,25.0429 -10.93516,37.76 h -193.92 c -21.52367,0 -55.60762,-6.8315 -69.93847,13.4665 -5.49579,7.7841 -5.58071,16.4411 -5.58149,25.5735 -0.002,18.6725 3.03527,38.1887 24.95996,42.5173 9.14719,1.8059 18.88586,1.0027 28.16,1.0027 h 47.36 149.12 c -1.56461,7.8751 -3.00906,15.7726 -4.40836,23.6787 -0.52023,2.9394 -0.65703,7.3392 -3.14203,9.408 -3.05937,2.547 -9.245,1.4731 -12.92961,1.4733 h -32.64 -128.64 -53.12 c -5.75887,10e-5 -15.20109,-1.5654 -16.8568,5.8654 -1.80843,8.1163 -0.4232,17.8414 -0.4232,26.1346 v 51.1999 162.56 514.56 177.92 42.88 c 8e-5,4.6225 -1.40847,12.6944 2.66598,16.02 5.9768,4.8778 21.98144,1.9 29.33402,1.9 h 78.72 308.48 1200.64003 l 8.2003,63.3425 6.5197,24.9775 h -1292.80003 -307.2 c -39.67812,0 -89.899409,8.8081 -114.386519,-30.72 -9.746211,-15.7328 -9.773481,-32.0562 -9.773481,-49.92 v -43.52 -208 -645.12 -188.7999 -51.84 c 0,-13.2955 -0.60508,-26.3846 4.202891,-39.04 7.83492,-20.623 26.57813,-36.4233 48.27711,-40.476 11.855199,-2.2142 24.470039,-1.124 36.479999,-1.124 h 215.68 57.6 c 7.58688,0 18.80375,-2.0597 25.88539,0.9206 5.175,2.178 9.37321,8.7372 12.51461,13.1594 m 343.04,-14.08 -51.3522,61.44 -14.7783,21.7587 -7.9917,9.7059 -11.6379,1.1752 -23.0399,2e-4 h -84.48 c 1.7273,-23.0686 15.4386,-61.3835 -12.1602,-74.046 -6.4893,-2.9773 -13.5756,-2.4439 -20.4798,-3.394 l 14.5101,-15.4647 16.8499,-1.1753 h 37.76 156.8 m 965.12003,0 c -16.7419,22.2128 -41.8876,38.4643 -67.2,49.2728 -55.5656,23.7267 -120.5723,25.1564 -177.28,4.6259 -38.2011,-13.8303 -70.2591,-40.1 -108.8,-53.2587 l 40.32,-0.64 h 76.16 236.8 m 291.7394,63.4387 c -16.7619,-0.6192 -29.5928,17.8159 -28.4428,33.2013 1.1937,15.9714 14.9648,29.16 31.1034,29.1846 11.6992,0.018 22.7322,-6.6384 28.1114,-17.0259 1.4408,-2.782 6.1914,-13.9153 1.0047,-15.5706 -1.8673,-0.596 -2.9367,1.6053 -3.4369,2.9953 -1.5997,4.4455 -2.4068,8.6594 -5.3376,12.5419 -7.8472,10.395 -21.9091,13.9537 -33.1044,6.7357 -14.9367,-9.63 -15.5763,-29.6857 -1.9105,-40.6739 4.1024,-3.2984 12.8042,-3.5554 15.7747,-7.3623 1.9514,-2.5008 -1.8742,-3.9564 -3.762,-4.0261 m 159.834,1.6727 c -6.149,1.3515 -12.1231,9.9982 -16.3734,14.2486 l -37.76,37.76 -141.44,141.4399 -45.44,45.44 c -3.5772,3.578 -7.9148,7.1129 -10.5983,11.4472 -0.8404,1.3575 -2.1103,4.5177 0.4217,4.9782 5.4324,0.9879 13.2521,-9.901 16.5766,-13.2254 l 45.44,-45.44 144.64,-144.6399 38.3981,-38.4 c 2.8597,-2.8674 6.485,-5.8222 8.3303,-9.4972 1.01,-2.0114 0.6757,-4.7424 -2.195,-4.1114 M 651.66037,1183.6109 c -7.4944,8.7732 -16.1425,16.4931 -24.96,23.9076 -4.212,3.5419 -8.7354,8.062 -14.08,9.7897 -8.8586,2.8636 -20.8312,0.8627 -30.08,0.8627 0.3582,-7.7041 1.4159,-15.3786 2.2763,-23.0394 0.3327,-2.963 0.1885,-7.3719 2.3513,-9.7053 3.2911,-3.5507 12.7633,-1.8153 17.1324,-1.8153 h 47.36 m -272,40.96 c -3.95414,19.714 -5.66718,40.1317 -7.18297,60.1599 -5.0832,67.1638 -2.50046,147.1263 42.53141,201.6 27.03805,32.7072 64.61156,46.6293 105.45156,52.291 60.8363,8.4337 123.0531,0.071 178.56,-26.6227 20.8711,-10.0372 38.0627,-24.1853 56.96,-37.1883 4.8549,107.5638 8.0748,214.7377 19.9822,321.92 5.4242,48.8252 7.9349,100.9769 23.4539,147.84 14.288,43.1457 40.3869,81.5314 74.9639,111.0238 11.5267,9.8315 24.007,18.4306 37.12,25.999 5.2009,3.0019 15.0419,5.8319 18.0248,11.336 1.7325,3.1965 1.1282,7.4995 1.2371,11.0012 0.2319,7.4513 0.3426,14.9566 0.7181,22.4 1.4205,28.1653 2.3345,56.3363 4.34,84.48 h -794.88 v -986.2399 h 238.72 m 224.64,0 v 0.64 l -24.32,14.72 1.28,-15.36 h 23.04 m 692.18643,92.7462 c -5.7612,2.6345 -9.6195,17.0069 -12.3472,22.4537 -9.6028,19.176 -20.4909,37.7168 -32.1956,55.68 -40.258,61.7843 -92.8058,117.6594 -158.0436,153.1889 -15.1662,8.2599 -31.0405,15.2294 -47.3586,20.8794 -1.7531,0.6071 -14.8947,7.0774 -6.7198,8.0205 6.0636,0.6995 13.9879,-3.7259 19.5184,-5.8622 16.1222,-6.2272 31.8075,-13.6556 46.72,-22.4016 63.9636,-37.5139 115.3355,-93.5321 154.878,-155.745 11.5503,-18.1723 22.4331,-36.9228 31.8061,-56.32 2.3362,-4.835 5.4162,-10.0318 6.6161,-15.295 0.4346,-1.9068 0.1711,-5.991 -2.8738,-4.5987 m 694.0536,409.0137 c 9.02,-6.6468 15.7981,-16.6736 21.4327,-26.24 4.8122,-8.1703 8.5884,-16.9554 10.6198,-26.24 1.5111,-6.9065 2.1927,-14.0737 1.4519,-21.12 -5.7069,-54.2778 -74.007,-68.5384 -84.0977,-119.68 -6.6083,-33.4923 17.2502,-65.4307 38.1083,-88.96 7.4139,-8.3634 17.0338,-15.9459 22.725,-25.6 -13.6733,7.2249 -25.2466,21.1272 -35.2839,32.64 -8.5487,9.8055 -16.3589,20.4321 -22.3606,32 -4.2828,8.2549 -7.5516,17.0794 -9.2202,26.24 -1.2403,6.8093 -1.6901,13.6007 -0.8269,20.48 6.5313,52.0466 70.6363,66.1225 84.3877,113.92 5.8269,20.2535 -0.6148,41.4138 -11.2711,58.88 -4.8856,8.0078 -11.9294,15.0694 -15.665,23.68 m 30.08,-241.92 c -11.8817,30.1632 -9.3155,59.8221 12.108,85.12 15.8278,18.6905 40.5381,34.4307 45.2476,60.16 4.9289,26.9279 -14.3006,53.6466 -30.6903,72.96 -5.8903,6.9411 -12.9981,13.295 -17.7053,21.12 10.9542,-5.3418 19.8378,-16.4998 27.6436,-25.6 6.9417,-8.0928 13.1997,-16.8068 18.1955,-26.24 3.6284,-6.8512 6.6167,-14.1425 8.1712,-21.76 10.0652,-49.3193 -44.4075,-67.9615 -61.3053,-106.88 -8.8823,-20.4573 -3.7634,-38.2537 0.255,-58.88 h -1.92 M 308.62037,1585.2619 c -30.04187,3.1847 -55.08554,25.4763 -62.41133,54.6689 -3.3864,13.4946 -2.22867,27.8072 -2.22867,41.6 v 327.04 81.92 c 0,20.1842 -0.94898,40.0196 9.30391,58.24 3.10453,5.5172 6.97422,10.6972 11.39015,15.2333 25.03375,25.7145 59.17938,21.8867 91.94594,21.8867 h 195.84 63.36 c 12.2557,0 24.9638,0.951 37.12,-0.8178 28.9693,-4.215 53.1127,-25.7266 60.2395,-54.2222 3.6789,-14.71 2.4805,-30.4131 2.4805,-45.44 v -328.32 -76.8 c 0,-21.445 0.4891,-42.5348 -11.2991,-61.44 -3.2837,-5.2662 -7.286,-10.1562 -11.8312,-14.384 -26.1537,-24.3263 -61.101,-19.536 -93.9897,-19.536 h -192 c -32.14289,0 -65.96148,-3.0168 -97.92,0.3711 m -0.64,6.363 c 11.12946,-1.2066 22.73383,-0.3341 33.92,-0.3341 h 62.72 191.36 c 37.8906,0 80.2671,-6.105 103.4233,31.36 10.6305,17.1994 9.8567,36.2404 9.8567,55.68 v 76.16 315.52 c 0,32.0178 4.8618,67.7975 -21.1931,91.8161 -4.3874,4.0445 -9.3477,7.5483 -14.6469,10.2936 -6.4,3.3156 -13.3491,5.5834 -20.48,6.6331 -11.6949,1.7219 -24.0441,0.6972 -35.84,0.6972 h -62.72 -194.56 c -31.73289,0 -66.39734,5.0619 -90.74117,-19.9142 -4.075,-4.1808 -7.56914,-8.8995 -10.3975,-14.0058 -9.48617,-17.1261 -8.30133,-35.4856 -8.30133,-54.4 v -78.72 -312.32 c 0,-32.8268 -4.85312,-67.4348 21.77602,-91.9551 4.5657,-4.2042 9.76008,-7.7295 15.34398,-10.4408 6.37196,-3.0937 13.42524,-5.3052 20.48,-6.07 m 120.96,73.9059 v 425.6 h 74.88 c 5.6075,0 21.4055,2.7186 25.4066,-1.8153 3.8104,-4.3178 1.4734,-17.0642 1.4734,-22.5047 v -62.08 -244.48 -68.48 c 0,-5.79 2.5585,-19.8559 -1.4734,-24.4246 -4.0011,-4.534 -19.7991,-1.8154 -25.4066,-1.8154 h -74.88 m 1298.56003,134.4 h 439.68 l -9.5509,-31.3597 c -1.1657,-3.7946 -1.9975,-9.8409 -6.2291,-11.4528 -7.6534,-2.9156 -19.6101,-0.7075 -27.74,-0.7075 h -62.72 -212.48 -72.96 c -9.3244,0 -23.4491,-2.6531 -32.1987,0.7075 -4.1975,1.6122 -5.0896,7.6732 -6.2318,11.4528 -3.1614,10.4616 -6.3471,20.9166 -9.5695,31.3597 m -1425.28003,-42.24 v 248.96 61.44 c 0,5.0028 -2.29367,17.9407 1.81531,21.5666 4.06118,3.5839 15.49805,1.4734 20.58469,1.4734 h 56.96 c 5.00344,0 19.92539,2.5916 21.86735,-3.5928 2.9082,-9.2611 0.53265,-22.5664 0.53265,-32.2472 v -69.12 -228.48 h -101.76 m 1384.96003,48.64 v 47.36 h 520.32 v -47.36 h -520.32 m -1131.52003,85.76 v 199.04 h 73.6 c 6.1364,0 21.5288,2.7766 26.3447,-1.4734 2.7264,-2.4059 1.8132,-8.1049 1.815,-11.3267 l 3e-4,-31.3599 v -114.56 l -7e-4,-28.1597 c 0,-3.0937 0.8008,-8.3789 -1.8146,-10.6868 -4.8159,-4.25 -20.2084,-1.4735 -26.3447,-1.4735 h -73.6 m 1251.35973,303.11 c 3.1816,-0.949 7.2291,3.2838 9.4406,5.0025 6.5174,5.0641 13.3874,9.6385 21.1197,12.6388 10.7844,4.1843 21.5174,3.575 32,-1.1882 9.0802,-4.1262 18.8438,-12.315 29.428,-8.569 6.9664,2.4656 10.3686,9.0078 13.0451,15.4053 1.5544,3.7153 3.5275,9.3809 8.1732,10.0562 4.9257,0.7157 9.4471,-4.9643 12.3512,-8.149 6.6581,-7.3016 13.5459,-17.601 24.0425,-19.3625 12.9417,-2.1719 19.3342,10.0834 25.0295,19.3744 2.5214,4.1134 6.0835,10.1237 11.4619,10.6059 5.2735,0.4731 9.5558,-5.0406 12.4472,-8.6938 6.0663,-7.6643 11.8338,-17.4703 22.1014,-19.8021 10.7406,-2.4394 20.2838,4.005 27.2756,11.5453 1.646,1.775 7.6278,7.9065 4.7047,10.6218 -2.5439,2.3629 -7.1094,-3.49 -8.5209,-4.9515 -5.5225,-5.7185 -13.3349,-13.7072 -22.1792,-10.941 -14.8091,4.6322 -19.1419,30.621 -36.4789,29.0541 -11.4871,-1.0384 -15.8085,-14.58 -21.5885,-22.5406 -2.9548,-4.0697 -7.4056,-8.8975 -12.9729,-7.9803 -15.705,2.5875 -21.5677,31.0731 -39.031,28.2581 -13.447,-2.1675 -10.5236,-21.8953 -22.4456,-26.3094 -8.8814,-3.2884 -20.157,6.9025 -28.1233,9.8431 -13.9466,5.1485 -28.7344,2.8022 -41.6,-4.1868 -6.2814,-3.4125 -12.5569,-7.6035 -17.7061,-12.5891 -1.1795,-1.1422 -5.5869,-6.0647 -1.9742,-7.1422 m 314.0803,96.25 c -3.7369,20.2378 -5.6383,41.0191 -8.1997,61.44 -0.7409,5.9075 -0.044,18.6472 -4.5064,23.0222 -4.345,4.2597 -15.4584,4.3788 -21.2139,5.4269 -19.0998,3.4787 -38.2945,6.2572 -57.6,8.305 -53.9823,5.7259 -108.5709,5.7359 -162.56,0.068 -27.572,-2.895 -54.5303,-8.6344 -81.92,-12.5019 l -11.52,-86.4 c 79.5459,17.1403 159.1477,27.5244 240.64,20.2325 36.5799,-3.2731 71.1859,-11.6825 106.88,-19.5925 m -350.08,25.6 c 1.7238,15.1688 3.8188,30.3091 5.8459,45.44 0.7094,5.295 0.2515,13.6469 4.054,17.815 3.7539,4.115 11.8123,4.35 16.9801,5.225 l 3.2,26.88 h -984.96003 -233.6 c -10.211,0 -20.8179,0.8156 -30.72,-2.1665 -19.5745,-5.8957 -33.5388,-24.8147 -33.7167,-45.1935 -0.2142,-24.5475 19.2505,-46.3309 43.9567,-47.8644 27.5213,-1.7084 55.623,-0.1356 83.2,-0.1356 h 163.84 961.92003 m 322.56,95.36 3.2,-26.88 c 5.2056,-0.7369 13.212,-1.0828 16.9805,-5.2225 3.9014,-4.2856 3.4965,-13.0081 4.1795,-18.4575 1.8708,-14.9272 4.2403,-29.8284 5.72,-44.8 h 66.56 c 13.5056,0 27.2881,-1.3256 39.68,5.0769 33.8113,17.4694 34.3169,66.7537 0.64,84.745 -14.3391,7.66 -31.6828,5.5381 -47.36,5.5381 z"
       id="path1" />
  </g>
</svg>
